%TF.GenerationSoftware,KiCad,Pcbnew,(6.0.2)*%
%TF.CreationDate,2022-09-16T22:24:32-05:00*%
%TF.ProjectId,REF1222 Optimized,52454631-3232-4322-904f-7074696d697a,rev?*%
%TF.SameCoordinates,Original*%
%TF.FileFunction,Soldermask,Bot*%
%TF.FilePolarity,Negative*%
%FSLAX46Y46*%
G04 Gerber Fmt 4.6, Leading zero omitted, Abs format (unit mm)*
G04 Created by KiCad (PCBNEW (6.0.2)) date 2022-09-16 22:24:32*
%MOMM*%
%LPD*%
G01*
G04 APERTURE LIST*
%ADD10C,1.700000*%
%ADD11C,5.600000*%
%ADD12C,2.000000*%
%ADD13C,1.830000*%
G04 APERTURE END LIST*
D10*
%TO.C,J2*%
X166131000Y-75967000D03*
X164623000Y-77517000D03*
X163155000Y-75962000D03*
X161649000Y-77518000D03*
X160137000Y-75969000D03*
X158633000Y-77518000D03*
X157124000Y-75968000D03*
X155654000Y-77517000D03*
X154111000Y-75969000D03*
X152599000Y-77517000D03*
X151092000Y-75967000D03*
X149583000Y-77517000D03*
X148076000Y-75968000D03*
X146529000Y-77515000D03*
X145099000Y-75967000D03*
X143591000Y-77514000D03*
X142082000Y-75927300D03*
X140573800Y-77514800D03*
X139067000Y-75926000D03*
X137557600Y-77514800D03*
X136051000Y-75929000D03*
X134584000Y-77514000D03*
X133033200Y-75927300D03*
X131484000Y-77514000D03*
X130018000Y-75926000D03*
X128507000Y-77516000D03*
X126996000Y-75964000D03*
X125492000Y-77513000D03*
X124022000Y-75965000D03*
X122518000Y-77517000D03*
X120970000Y-75966000D03*
X119459000Y-77474000D03*
%TD*%
D11*
%TO.C,Hole*%
X142361000Y-117796000D03*
%TD*%
D12*
%TO.C,SW1*%
X147237800Y-72352400D03*
X148511800Y-70168400D03*
X152952800Y-70172400D03*
X154262800Y-72357400D03*
%TD*%
D13*
%TO.C,J3*%
X135535000Y-73106000D03*
X122791000Y-73105000D03*
X131685000Y-73099000D03*
X129142000Y-73104000D03*
X126564000Y-73107000D03*
%TD*%
M02*
