%TF.GenerationSoftware,KiCad,Pcbnew,(6.0.2)*%
%TF.CreationDate,2022-10-22T11:53:18-05:00*%
%TF.ProjectId,REF1222 Optimized,52454631-3232-4322-904f-7074696d697a,rev?*%
%TF.SameCoordinates,Original*%
%TF.FileFunction,Paste,Top*%
%TF.FilePolarity,Positive*%
%FSLAX46Y46*%
G04 Gerber Fmt 4.6, Leading zero omitted, Abs format (unit mm)*
G04 Created by KiCad (PCBNEW (6.0.2)) date 2022-10-22 11:53:18*
%MOMM*%
%LPD*%
G01*
G04 APERTURE LIST*
%ADD10O,2.460000X0.360000*%
%ADD11O,0.360000X2.460000*%
%ADD12R,1.500000X1.500000*%
%ADD13R,1.030000X7.580000*%
%ADD14R,2.220000X0.600000*%
%ADD15R,0.600000X2.220000*%
%ADD16R,3.250000X0.600000*%
G04 APERTURE END LIST*
D10*
%TO.C,U3*%
X150184000Y-95791000D03*
X150184000Y-96791000D03*
X150184000Y-97791000D03*
X150184000Y-98791000D03*
X150184000Y-99791000D03*
X150184000Y-100791000D03*
X150184000Y-101791000D03*
X150184000Y-102791000D03*
X150184000Y-103791000D03*
X150184000Y-104791000D03*
X150184000Y-105791000D03*
X150184000Y-106791000D03*
X150184000Y-107791000D03*
D11*
X152834000Y-110441000D03*
X153834000Y-110441000D03*
X154834000Y-110441000D03*
X155834000Y-110441000D03*
X156834000Y-110441000D03*
X157834000Y-110441000D03*
X158834000Y-110441000D03*
X159834000Y-110441000D03*
X160834000Y-110441000D03*
X161834000Y-110441000D03*
X162834000Y-110441000D03*
X163834000Y-110441000D03*
X164834000Y-110441000D03*
D10*
X167484000Y-107791000D03*
X167484000Y-106791000D03*
X167484000Y-105791000D03*
X167484000Y-104791000D03*
X167484000Y-103791000D03*
X167484000Y-102791000D03*
X167484000Y-101791000D03*
X167484000Y-100791000D03*
X167484000Y-99791000D03*
X167484000Y-98791000D03*
X167484000Y-97791000D03*
X167484000Y-96791000D03*
X167484000Y-95791000D03*
D11*
X164834000Y-93141000D03*
X163834000Y-93141000D03*
X162834000Y-93141000D03*
X161834000Y-93141000D03*
X160834000Y-93141000D03*
X159834000Y-93141000D03*
X158834000Y-93141000D03*
X157834000Y-93141000D03*
X156834000Y-93141000D03*
X155834000Y-93141000D03*
X154834000Y-93141000D03*
X153834000Y-93141000D03*
X152834000Y-93141000D03*
%TD*%
D12*
%TO.C,R1*%
X121529500Y-78239000D03*
X124746500Y-78241000D03*
%TD*%
%TO.C,C2*%
X121654000Y-81335000D03*
X124871000Y-81337000D03*
%TD*%
%TO.C,R2*%
X121533000Y-84511000D03*
X124750000Y-84513000D03*
%TD*%
%TO.C,C1*%
X121532500Y-75063000D03*
X124749500Y-75065000D03*
%TD*%
D13*
%TO.C,J1*%
X121694000Y-123521000D03*
X123237000Y-123521000D03*
X124744000Y-123516000D03*
X126254000Y-123512000D03*
X127761000Y-123512000D03*
X129232000Y-123512000D03*
X130739000Y-123512000D03*
X132245000Y-123512000D03*
X133752000Y-123494000D03*
X135258000Y-123504000D03*
X136765000Y-123504000D03*
X138272000Y-123516000D03*
X139790000Y-123516000D03*
X141294000Y-123521000D03*
X142801000Y-123521000D03*
X144344000Y-123521000D03*
X145815000Y-123521000D03*
X147286000Y-123521000D03*
X148811000Y-123521000D03*
X150301000Y-123511000D03*
X151808000Y-123511000D03*
X153315000Y-123511000D03*
X154822000Y-123511000D03*
X156339000Y-123509000D03*
X157846000Y-123509000D03*
X159389000Y-123520000D03*
X160872000Y-123520000D03*
X162362000Y-123503000D03*
X163881000Y-123503000D03*
X165340000Y-123503000D03*
X166859000Y-123515000D03*
X168366000Y-123515000D03*
%TD*%
D14*
%TO.C,U1*%
X151845000Y-79900000D03*
X151842000Y-78589000D03*
X151845000Y-77362000D03*
X151845000Y-76044000D03*
D15*
X149943000Y-74148000D03*
X148673000Y-74143000D03*
X147362000Y-74145000D03*
X146130000Y-74143000D03*
X144866000Y-74143000D03*
X143590000Y-74143000D03*
X142280000Y-74148000D03*
X141012000Y-74145000D03*
X139740000Y-74145000D03*
D14*
X137835000Y-76050000D03*
X137837000Y-77359000D03*
X137835000Y-78587000D03*
X137835000Y-79900000D03*
X137835000Y-81167000D03*
X137835000Y-82478000D03*
X137835000Y-83747000D03*
D15*
X139741000Y-85653000D03*
X141013000Y-85653000D03*
X142285000Y-85654000D03*
X143590000Y-85654000D03*
X144859000Y-85654000D03*
X146131000Y-85654000D03*
X147363000Y-85653000D03*
X148670000Y-85655000D03*
X149942000Y-85651000D03*
D14*
X151845000Y-83746000D03*
X151845000Y-82483000D03*
X151845000Y-81206000D03*
%TD*%
D12*
%TO.C,C3*%
X121652000Y-90739000D03*
X124869000Y-90741000D03*
%TD*%
%TO.C,R3*%
X121530000Y-87565000D03*
X124747000Y-87567000D03*
%TD*%
D16*
%TO.C,U2*%
X135456000Y-112652000D03*
X135452000Y-111377000D03*
X135457000Y-110072000D03*
X135453000Y-108843000D03*
X135450000Y-107529000D03*
X135458000Y-106216000D03*
X135451000Y-104948000D03*
X135455000Y-103679000D03*
X135455000Y-102409000D03*
X135455000Y-101102000D03*
X135455000Y-99786000D03*
X135455000Y-98522000D03*
X135455000Y-97247000D03*
X135455000Y-95983000D03*
X135451000Y-94674000D03*
X135459000Y-93439000D03*
X123585000Y-93437000D03*
X123585000Y-94669000D03*
X123585000Y-95978000D03*
X123585000Y-97250000D03*
X123585000Y-98520000D03*
X123585000Y-99786000D03*
X123585000Y-101100000D03*
X123589000Y-102407000D03*
X123585000Y-103679000D03*
X123589000Y-104952000D03*
X123589000Y-106220000D03*
X123585000Y-107528000D03*
X123585000Y-108842000D03*
X123592000Y-110070000D03*
X123589000Y-111376000D03*
X123585000Y-112651000D03*
%TD*%
M02*
