%TF.GenerationSoftware,KiCad,Pcbnew,(6.0.2)*%
%TF.CreationDate,2022-07-14T18:27:25-05:00*%
%TF.ProjectId,REF1222 Optimized,52454631-3232-4322-904f-7074696d697a,rev?*%
%TF.SameCoordinates,Original*%
%TF.FileFunction,Soldermask,Top*%
%TF.FilePolarity,Negative*%
%FSLAX46Y46*%
G04 Gerber Fmt 4.6, Leading zero omitted, Abs format (unit mm)*
G04 Created by KiCad (PCBNEW (6.0.2)) date 2022-07-14 18:27:25*
%MOMM*%
%LPD*%
G01*
G04 APERTURE LIST*
%ADD10R,1.500000X1.500000*%
%ADD11C,1.700000*%
%ADD12R,1.030000X7.580000*%
%ADD13C,5.600000*%
%ADD14R,2.220000X0.600000*%
%ADD15R,0.600000X2.220000*%
%ADD16C,2.000000*%
%ADD17C,1.830000*%
%ADD18O,2.460000X0.360000*%
%ADD19O,0.360000X2.460000*%
%ADD20R,3.250000X0.600000*%
G04 APERTURE END LIST*
D10*
%TO.C,100k Ohm*%
X119098500Y-84854000D03*
X122315500Y-84856000D03*
%TD*%
D11*
%TO.C,J2*%
X166131000Y-75967000D03*
X164623000Y-77517000D03*
X163155000Y-75962000D03*
X161649000Y-77518000D03*
X160137000Y-75969000D03*
X158633000Y-77518000D03*
X157124000Y-75968000D03*
X155654000Y-77517000D03*
X154111000Y-75969000D03*
X152599000Y-77517000D03*
X151092000Y-75967000D03*
X149583000Y-77517000D03*
X148076000Y-75968000D03*
X146529000Y-77515000D03*
X145099000Y-75967000D03*
X143591000Y-77514000D03*
X142082000Y-75927300D03*
X140573800Y-77514800D03*
X139067000Y-75926000D03*
X137557600Y-77514800D03*
X136051000Y-75929000D03*
X134584000Y-77514000D03*
X133033200Y-75927300D03*
X131484000Y-77514000D03*
X130018000Y-75926000D03*
X128507000Y-77516000D03*
X126996000Y-75964000D03*
X125492000Y-77513000D03*
X124022000Y-75965000D03*
X122518000Y-77517000D03*
X120970000Y-75966000D03*
X119459000Y-77474000D03*
%TD*%
D10*
%TO.C,100 nF*%
X119223000Y-87950000D03*
X122440000Y-87952000D03*
%TD*%
%TO.C,10k Ohm*%
X119102000Y-91126000D03*
X122319000Y-91128000D03*
%TD*%
%TO.C,250 nF*%
X119101500Y-81678000D03*
X122318500Y-81680000D03*
%TD*%
D12*
%TO.C,J1*%
X119263000Y-130136000D03*
X120806000Y-130136000D03*
X122313000Y-130131000D03*
X123823000Y-130127000D03*
X125330000Y-130127000D03*
X126801000Y-130127000D03*
X128308000Y-130127000D03*
X129814000Y-130127000D03*
X131321000Y-130109000D03*
X132827000Y-130119000D03*
X134334000Y-130119000D03*
X135841000Y-130131000D03*
X137359000Y-130131000D03*
X138863000Y-130136000D03*
X140370000Y-130136000D03*
X141913000Y-130136000D03*
X143384000Y-130136000D03*
X144855000Y-130136000D03*
X146380000Y-130136000D03*
X147870000Y-130126000D03*
X149377000Y-130126000D03*
X150884000Y-130126000D03*
X152391000Y-130126000D03*
X153908000Y-130124000D03*
X155415000Y-130124000D03*
X156958000Y-130135000D03*
X158441000Y-130135000D03*
X159931000Y-130118000D03*
X161450000Y-130118000D03*
X162909000Y-130118000D03*
X164428000Y-130130000D03*
X165935000Y-130130000D03*
%TD*%
D13*
%TO.C,Hole*%
X142361000Y-117796000D03*
%TD*%
D14*
%TO.C,NM27C010V*%
X149414000Y-87821000D03*
X149414000Y-89098000D03*
X149414000Y-90361000D03*
D15*
X147511000Y-92266000D03*
X146239000Y-92270000D03*
X144932000Y-92268000D03*
X143700000Y-92269000D03*
X142428000Y-92269000D03*
X141159000Y-92269000D03*
X139854000Y-92269000D03*
X138582000Y-92268000D03*
X137310000Y-92268000D03*
D14*
X135404000Y-90362000D03*
X135404000Y-89093000D03*
X135404000Y-87782000D03*
X135404000Y-86515000D03*
X135404000Y-85202000D03*
X135406000Y-83974000D03*
X135404000Y-82665000D03*
D15*
X137309000Y-80760000D03*
X138581000Y-80760000D03*
X139849000Y-80763000D03*
X141159000Y-80758000D03*
X142435000Y-80758000D03*
X143699000Y-80758000D03*
X144931000Y-80760000D03*
X146242000Y-80758000D03*
X147512000Y-80763000D03*
D14*
X149414000Y-82659000D03*
X149414000Y-83977000D03*
X149411000Y-85204000D03*
X149414000Y-86515000D03*
%TD*%
D10*
%TO.C,100 nF*%
X119221000Y-97354000D03*
X122438000Y-97356000D03*
%TD*%
D16*
%TO.C,SW1*%
X147237800Y-72352400D03*
X148511800Y-70168400D03*
X152952800Y-70172400D03*
X154262800Y-72357400D03*
%TD*%
D10*
%TO.C,10K Ohm*%
X119099000Y-94180000D03*
X122316000Y-94182000D03*
%TD*%
D17*
%TO.C,J3*%
X126564000Y-73107000D03*
X129142000Y-73104000D03*
X131685000Y-73099000D03*
X122791000Y-73105000D03*
X135535000Y-73106000D03*
%TD*%
D18*
%TO.C,DATEL GBOY*%
X147658000Y-102332000D03*
X147662000Y-103324000D03*
X147669000Y-104394000D03*
X147662000Y-105386000D03*
X147662000Y-106416000D03*
X147662000Y-107449000D03*
X147662000Y-108442000D03*
X147662000Y-109513000D03*
X147662000Y-110506000D03*
X147662000Y-111537000D03*
X147662000Y-112571000D03*
X147662000Y-113603000D03*
X147662000Y-114633000D03*
D19*
X150242000Y-117173000D03*
X151273000Y-117173000D03*
X152306000Y-117175000D03*
X153299000Y-117175000D03*
X154330000Y-117171000D03*
X155362000Y-117173000D03*
X156391000Y-117172000D03*
X157389000Y-117176000D03*
X158416000Y-117176000D03*
X159452000Y-117175000D03*
X160483000Y-117172000D03*
X161514000Y-117172000D03*
X162507000Y-117172000D03*
D18*
X165005000Y-114632000D03*
X165005000Y-113602000D03*
X165005000Y-112568000D03*
X165005000Y-111537000D03*
X165008000Y-110507000D03*
X165008000Y-109510000D03*
X165005000Y-108441000D03*
X165009000Y-107447000D03*
X165005000Y-106420000D03*
X165009000Y-105385000D03*
X165005000Y-104394000D03*
X165009000Y-103321000D03*
X165007000Y-102332000D03*
D19*
X162466000Y-99750000D03*
X161474000Y-99753000D03*
X160443000Y-99753000D03*
X159409000Y-99750000D03*
X158374000Y-99750000D03*
X157348000Y-99749000D03*
X156353000Y-99753000D03*
X155321000Y-99748000D03*
X154289000Y-99752000D03*
X153259000Y-99752000D03*
X152266000Y-99752000D03*
X151236000Y-99747000D03*
X150201000Y-99747000D03*
%TD*%
D20*
%TO.C,HY628100ALLG-70*%
X121154000Y-119266000D03*
X121158000Y-117991000D03*
X121161000Y-116685000D03*
X121154000Y-115457000D03*
X121154000Y-114143000D03*
X121158000Y-112835000D03*
X121158000Y-111567000D03*
X121154000Y-110294000D03*
X121158000Y-109022000D03*
X121154000Y-107715000D03*
X121154000Y-106401000D03*
X121154000Y-105135000D03*
X121154000Y-103865000D03*
X121154000Y-102593000D03*
X121154000Y-101284000D03*
X121154000Y-100052000D03*
X133028000Y-100054000D03*
X133020000Y-101289000D03*
X133024000Y-102598000D03*
X133024000Y-103862000D03*
X133024000Y-105137000D03*
X133024000Y-106401000D03*
X133024000Y-107717000D03*
X133024000Y-109024000D03*
X133024000Y-110294000D03*
X133020000Y-111563000D03*
X133027000Y-112831000D03*
X133019000Y-114144000D03*
X133022000Y-115458000D03*
X133026000Y-116687000D03*
X133021000Y-117992000D03*
X133025000Y-119267000D03*
%TD*%
M02*
