%TF.GenerationSoftware,KiCad,Pcbnew,(6.0.2)*%
%TF.CreationDate,2022-09-16T22:24:32-05:00*%
%TF.ProjectId,REF1222 Optimized,52454631-3232-4322-904f-7074696d697a,rev?*%
%TF.SameCoordinates,Original*%
%TF.FileFunction,Legend,Top*%
%TF.FilePolarity,Positive*%
%FSLAX46Y46*%
G04 Gerber Fmt 4.6, Leading zero omitted, Abs format (unit mm)*
G04 Created by KiCad (PCBNEW (6.0.2)) date 2022-09-16 22:24:32*
%MOMM*%
%LPD*%
G01*
G04 APERTURE LIST*
%ADD10C,0.150000*%
%ADD11C,0.125000*%
G04 APERTURE END LIST*
D10*
X151024857Y-86495428D02*
X151786761Y-86495428D01*
X152786761Y-86876380D02*
X152215333Y-86876380D01*
X152501047Y-86876380D02*
X152501047Y-85876380D01*
X152405809Y-86019238D01*
X152310571Y-86114476D01*
X152215333Y-86162095D01*
X151329333Y-109372666D02*
X151805523Y-109372666D01*
X151234095Y-109658380D02*
X151567428Y-108658380D01*
X151900761Y-109658380D01*
X152805523Y-109658380D02*
X152472190Y-109182190D01*
X152234095Y-109658380D02*
X152234095Y-108658380D01*
X152615047Y-108658380D01*
X152710285Y-108706000D01*
X152757904Y-108753619D01*
X152805523Y-108848857D01*
X152805523Y-108991714D01*
X152757904Y-109086952D01*
X152710285Y-109134571D01*
X152615047Y-109182190D01*
X152234095Y-109182190D01*
X153996000Y-109658380D02*
X153996000Y-108658380D01*
X154329333Y-109372666D01*
X154662666Y-108658380D01*
X154662666Y-109658380D01*
X155138857Y-109658380D02*
X155138857Y-108658380D01*
X155710285Y-109658380D02*
X155281714Y-109086952D01*
X155710285Y-108658380D02*
X155138857Y-109229809D01*
X156138857Y-109658380D02*
X156138857Y-108658380D01*
X156615047Y-109658380D02*
X156615047Y-108658380D01*
X129746666Y-119692380D02*
X129175238Y-119692380D01*
X129460952Y-119692380D02*
X129460952Y-118692380D01*
X129365714Y-118835238D01*
X129270476Y-118930476D01*
X129175238Y-118978095D01*
X130175238Y-119311428D02*
X130937142Y-119311428D01*
X149333857Y-102323428D02*
X150095761Y-102323428D01*
X151095761Y-102704380D02*
X150524333Y-102704380D01*
X150810047Y-102704380D02*
X150810047Y-101704380D01*
X150714809Y-101847238D01*
X150619571Y-101942476D01*
X150524333Y-101990095D01*
X150777190Y-111099380D02*
X150967666Y-111099380D01*
X151062904Y-111147000D01*
X151158142Y-111242238D01*
X151205761Y-111432714D01*
X151205761Y-111766047D01*
X151158142Y-111956523D01*
X151062904Y-112051761D01*
X150967666Y-112099380D01*
X150777190Y-112099380D01*
X150681952Y-112051761D01*
X150586714Y-111956523D01*
X150539095Y-111766047D01*
X150539095Y-111432714D01*
X150586714Y-111242238D01*
X150681952Y-111147000D01*
X150777190Y-111099380D01*
X152205761Y-112099380D02*
X151872428Y-111623190D01*
X151634333Y-112099380D02*
X151634333Y-111099380D01*
X152015285Y-111099380D01*
X152110523Y-111147000D01*
X152158142Y-111194619D01*
X152205761Y-111289857D01*
X152205761Y-111432714D01*
X152158142Y-111527952D01*
X152110523Y-111575571D01*
X152015285Y-111623190D01*
X151634333Y-111623190D01*
X152967666Y-111575571D02*
X153110523Y-111623190D01*
X153158142Y-111670809D01*
X153205761Y-111766047D01*
X153205761Y-111908904D01*
X153158142Y-112004142D01*
X153110523Y-112051761D01*
X153015285Y-112099380D01*
X152634333Y-112099380D01*
X152634333Y-111099380D01*
X152967666Y-111099380D01*
X153062904Y-111147000D01*
X153110523Y-111194619D01*
X153158142Y-111289857D01*
X153158142Y-111385095D01*
X153110523Y-111480333D01*
X153062904Y-111527952D01*
X152967666Y-111575571D01*
X152634333Y-111575571D01*
X153634333Y-112099380D02*
X153634333Y-111099380D01*
X153967666Y-111099380D02*
X154539095Y-111099380D01*
X154253380Y-112099380D02*
X154253380Y-111099380D01*
X156062904Y-111099380D02*
X155872428Y-111099380D01*
X155777190Y-111147000D01*
X155729571Y-111194619D01*
X155634333Y-111337476D01*
X155586714Y-111527952D01*
X155586714Y-111908904D01*
X155634333Y-112004142D01*
X155681952Y-112051761D01*
X155777190Y-112099380D01*
X155967666Y-112099380D01*
X156062904Y-112051761D01*
X156110523Y-112004142D01*
X156158142Y-111908904D01*
X156158142Y-111670809D01*
X156110523Y-111575571D01*
X156062904Y-111527952D01*
X155967666Y-111480333D01*
X155777190Y-111480333D01*
X155681952Y-111527952D01*
X155634333Y-111575571D01*
X155586714Y-111670809D01*
X157110523Y-112099380D02*
X156539095Y-112099380D01*
X156824809Y-112099380D02*
X156824809Y-111099380D01*
X156729571Y-111242238D01*
X156634333Y-111337476D01*
X156539095Y-111385095D01*
X157443857Y-111099380D02*
X158062904Y-111099380D01*
X157729571Y-111480333D01*
X157872428Y-111480333D01*
X157967666Y-111527952D01*
X158015285Y-111575571D01*
X158062904Y-111670809D01*
X158062904Y-111908904D01*
X158015285Y-112004142D01*
X157967666Y-112051761D01*
X157872428Y-112099380D01*
X157586714Y-112099380D01*
X157491476Y-112051761D01*
X157443857Y-112004142D01*
X158681952Y-111099380D02*
X158777190Y-111099380D01*
X158872428Y-111147000D01*
X158920047Y-111194619D01*
X158967666Y-111289857D01*
X159015285Y-111480333D01*
X159015285Y-111718428D01*
X158967666Y-111908904D01*
X158920047Y-112004142D01*
X158872428Y-112051761D01*
X158777190Y-112099380D01*
X158681952Y-112099380D01*
X158586714Y-112051761D01*
X158539095Y-112004142D01*
X158491476Y-111908904D01*
X158443857Y-111718428D01*
X158443857Y-111480333D01*
X158491476Y-111289857D01*
X158539095Y-111194619D01*
X158586714Y-111147000D01*
X158681952Y-111099380D01*
X159634333Y-111099380D02*
X159729571Y-111099380D01*
X159824809Y-111147000D01*
X159872428Y-111194619D01*
X159920047Y-111289857D01*
X159967666Y-111480333D01*
X159967666Y-111718428D01*
X159920047Y-111908904D01*
X159872428Y-112004142D01*
X159824809Y-112051761D01*
X159729571Y-112099380D01*
X159634333Y-112099380D01*
X159539095Y-112051761D01*
X159491476Y-112004142D01*
X159443857Y-111908904D01*
X159396238Y-111718428D01*
X159396238Y-111480333D01*
X159443857Y-111289857D01*
X159491476Y-111194619D01*
X159539095Y-111147000D01*
X159634333Y-111099380D01*
X160348619Y-111813666D02*
X160824809Y-111813666D01*
X160253380Y-112099380D02*
X160586714Y-111099380D01*
X160920047Y-112099380D01*
%TO.C,DATEL GBOY*%
X151362095Y-108250380D02*
X151362095Y-107250380D01*
X151600190Y-107250380D01*
X151743047Y-107298000D01*
X151838285Y-107393238D01*
X151885904Y-107488476D01*
X151933523Y-107678952D01*
X151933523Y-107821809D01*
X151885904Y-108012285D01*
X151838285Y-108107523D01*
X151743047Y-108202761D01*
X151600190Y-108250380D01*
X151362095Y-108250380D01*
X152314476Y-107964666D02*
X152790666Y-107964666D01*
X152219238Y-108250380D02*
X152552571Y-107250380D01*
X152885904Y-108250380D01*
X153076380Y-107250380D02*
X153647809Y-107250380D01*
X153362095Y-108250380D02*
X153362095Y-107250380D01*
X153981142Y-107726571D02*
X154314476Y-107726571D01*
X154457333Y-108250380D02*
X153981142Y-108250380D01*
X153981142Y-107250380D01*
X154457333Y-107250380D01*
X155362095Y-108250380D02*
X154885904Y-108250380D01*
X154885904Y-107250380D01*
X156981142Y-107298000D02*
X156885904Y-107250380D01*
X156743047Y-107250380D01*
X156600190Y-107298000D01*
X156504952Y-107393238D01*
X156457333Y-107488476D01*
X156409714Y-107678952D01*
X156409714Y-107821809D01*
X156457333Y-108012285D01*
X156504952Y-108107523D01*
X156600190Y-108202761D01*
X156743047Y-108250380D01*
X156838285Y-108250380D01*
X156981142Y-108202761D01*
X157028761Y-108155142D01*
X157028761Y-107821809D01*
X156838285Y-107821809D01*
X157790666Y-107726571D02*
X157933523Y-107774190D01*
X157981142Y-107821809D01*
X158028761Y-107917047D01*
X158028761Y-108059904D01*
X157981142Y-108155142D01*
X157933523Y-108202761D01*
X157838285Y-108250380D01*
X157457333Y-108250380D01*
X157457333Y-107250380D01*
X157790666Y-107250380D01*
X157885904Y-107298000D01*
X157933523Y-107345619D01*
X157981142Y-107440857D01*
X157981142Y-107536095D01*
X157933523Y-107631333D01*
X157885904Y-107678952D01*
X157790666Y-107726571D01*
X157457333Y-107726571D01*
X158647809Y-107250380D02*
X158838285Y-107250380D01*
X158933523Y-107298000D01*
X159028761Y-107393238D01*
X159076380Y-107583714D01*
X159076380Y-107917047D01*
X159028761Y-108107523D01*
X158933523Y-108202761D01*
X158838285Y-108250380D01*
X158647809Y-108250380D01*
X158552571Y-108202761D01*
X158457333Y-108107523D01*
X158409714Y-107917047D01*
X158409714Y-107583714D01*
X158457333Y-107393238D01*
X158552571Y-107298000D01*
X158647809Y-107250380D01*
X159695428Y-107774190D02*
X159695428Y-108250380D01*
X159362095Y-107250380D02*
X159695428Y-107774190D01*
X160028761Y-107250380D01*
D11*
%TO.C,R1*%
X120631666Y-83810190D02*
X120465000Y-83572095D01*
X120345952Y-83810190D02*
X120345952Y-83310190D01*
X120536428Y-83310190D01*
X120584047Y-83334000D01*
X120607857Y-83357809D01*
X120631666Y-83405428D01*
X120631666Y-83476857D01*
X120607857Y-83524476D01*
X120584047Y-83548285D01*
X120536428Y-83572095D01*
X120345952Y-83572095D01*
X121107857Y-83810190D02*
X120822142Y-83810190D01*
X120965000Y-83810190D02*
X120965000Y-83310190D01*
X120917380Y-83381619D01*
X120869761Y-83429238D01*
X120822142Y-83453047D01*
%TO.C,C2*%
X120789666Y-86872571D02*
X120765857Y-86896380D01*
X120694428Y-86920190D01*
X120646809Y-86920190D01*
X120575380Y-86896380D01*
X120527761Y-86848761D01*
X120503952Y-86801142D01*
X120480142Y-86705904D01*
X120480142Y-86634476D01*
X120503952Y-86539238D01*
X120527761Y-86491619D01*
X120575380Y-86444000D01*
X120646809Y-86420190D01*
X120694428Y-86420190D01*
X120765857Y-86444000D01*
X120789666Y-86467809D01*
X120980142Y-86467809D02*
X121003952Y-86444000D01*
X121051571Y-86420190D01*
X121170619Y-86420190D01*
X121218238Y-86444000D01*
X121242047Y-86467809D01*
X121265857Y-86515428D01*
X121265857Y-86563047D01*
X121242047Y-86634476D01*
X120956333Y-86920190D01*
X121265857Y-86920190D01*
%TO.C,R2*%
X120539666Y-90105190D02*
X120373000Y-89867095D01*
X120253952Y-90105190D02*
X120253952Y-89605190D01*
X120444428Y-89605190D01*
X120492047Y-89629000D01*
X120515857Y-89652809D01*
X120539666Y-89700428D01*
X120539666Y-89771857D01*
X120515857Y-89819476D01*
X120492047Y-89843285D01*
X120444428Y-89867095D01*
X120253952Y-89867095D01*
X120730142Y-89652809D02*
X120753952Y-89629000D01*
X120801571Y-89605190D01*
X120920619Y-89605190D01*
X120968238Y-89629000D01*
X120992047Y-89652809D01*
X121015857Y-89700428D01*
X121015857Y-89748047D01*
X120992047Y-89819476D01*
X120706333Y-90105190D01*
X121015857Y-90105190D01*
%TO.C,C1*%
X120662666Y-80572571D02*
X120638857Y-80596380D01*
X120567428Y-80620190D01*
X120519809Y-80620190D01*
X120448380Y-80596380D01*
X120400761Y-80548761D01*
X120376952Y-80501142D01*
X120353142Y-80405904D01*
X120353142Y-80334476D01*
X120376952Y-80239238D01*
X120400761Y-80191619D01*
X120448380Y-80144000D01*
X120519809Y-80120190D01*
X120567428Y-80120190D01*
X120638857Y-80144000D01*
X120662666Y-80167809D01*
X121138857Y-80620190D02*
X120853142Y-80620190D01*
X120996000Y-80620190D02*
X120996000Y-80120190D01*
X120948380Y-80191619D01*
X120900761Y-80239238D01*
X120853142Y-80263047D01*
D10*
%TO.C,NM27C010V*%
X137911333Y-89652380D02*
X137911333Y-88652380D01*
X138482761Y-89652380D01*
X138482761Y-88652380D01*
X138958952Y-89652380D02*
X138958952Y-88652380D01*
X139292285Y-89366666D01*
X139625619Y-88652380D01*
X139625619Y-89652380D01*
X140054190Y-88747619D02*
X140101809Y-88700000D01*
X140197047Y-88652380D01*
X140435142Y-88652380D01*
X140530380Y-88700000D01*
X140578000Y-88747619D01*
X140625619Y-88842857D01*
X140625619Y-88938095D01*
X140578000Y-89080952D01*
X140006571Y-89652380D01*
X140625619Y-89652380D01*
X140958952Y-88652380D02*
X141625619Y-88652380D01*
X141197047Y-89652380D01*
X142578000Y-89557142D02*
X142530380Y-89604761D01*
X142387523Y-89652380D01*
X142292285Y-89652380D01*
X142149428Y-89604761D01*
X142054190Y-89509523D01*
X142006571Y-89414285D01*
X141958952Y-89223809D01*
X141958952Y-89080952D01*
X142006571Y-88890476D01*
X142054190Y-88795238D01*
X142149428Y-88700000D01*
X142292285Y-88652380D01*
X142387523Y-88652380D01*
X142530380Y-88700000D01*
X142578000Y-88747619D01*
X143197047Y-88652380D02*
X143292285Y-88652380D01*
X143387523Y-88700000D01*
X143435142Y-88747619D01*
X143482761Y-88842857D01*
X143530380Y-89033333D01*
X143530380Y-89271428D01*
X143482761Y-89461904D01*
X143435142Y-89557142D01*
X143387523Y-89604761D01*
X143292285Y-89652380D01*
X143197047Y-89652380D01*
X143101809Y-89604761D01*
X143054190Y-89557142D01*
X143006571Y-89461904D01*
X142958952Y-89271428D01*
X142958952Y-89033333D01*
X143006571Y-88842857D01*
X143054190Y-88747619D01*
X143101809Y-88700000D01*
X143197047Y-88652380D01*
X144482761Y-89652380D02*
X143911333Y-89652380D01*
X144197047Y-89652380D02*
X144197047Y-88652380D01*
X144101809Y-88795238D01*
X144006571Y-88890476D01*
X143911333Y-88938095D01*
X145101809Y-88652380D02*
X145197047Y-88652380D01*
X145292285Y-88700000D01*
X145339904Y-88747619D01*
X145387523Y-88842857D01*
X145435142Y-89033333D01*
X145435142Y-89271428D01*
X145387523Y-89461904D01*
X145339904Y-89557142D01*
X145292285Y-89604761D01*
X145197047Y-89652380D01*
X145101809Y-89652380D01*
X145006571Y-89604761D01*
X144958952Y-89557142D01*
X144911333Y-89461904D01*
X144863714Y-89271428D01*
X144863714Y-89033333D01*
X144911333Y-88842857D01*
X144958952Y-88747619D01*
X145006571Y-88700000D01*
X145101809Y-88652380D01*
X145720857Y-88652380D02*
X146054190Y-89652380D01*
X146387523Y-88652380D01*
D11*
%TO.C,C3*%
X120723666Y-96266571D02*
X120699857Y-96290380D01*
X120628428Y-96314190D01*
X120580809Y-96314190D01*
X120509380Y-96290380D01*
X120461761Y-96242761D01*
X120437952Y-96195142D01*
X120414142Y-96099904D01*
X120414142Y-96028476D01*
X120437952Y-95933238D01*
X120461761Y-95885619D01*
X120509380Y-95838000D01*
X120580809Y-95814190D01*
X120628428Y-95814190D01*
X120699857Y-95838000D01*
X120723666Y-95861809D01*
X120890333Y-95814190D02*
X121199857Y-95814190D01*
X121033190Y-96004666D01*
X121104619Y-96004666D01*
X121152238Y-96028476D01*
X121176047Y-96052285D01*
X121199857Y-96099904D01*
X121199857Y-96218952D01*
X121176047Y-96266571D01*
X121152238Y-96290380D01*
X121104619Y-96314190D01*
X120961761Y-96314190D01*
X120914142Y-96290380D01*
X120890333Y-96266571D01*
%TO.C,R3*%
X120638666Y-93123190D02*
X120472000Y-92885095D01*
X120352952Y-93123190D02*
X120352952Y-92623190D01*
X120543428Y-92623190D01*
X120591047Y-92647000D01*
X120614857Y-92670809D01*
X120638666Y-92718428D01*
X120638666Y-92789857D01*
X120614857Y-92837476D01*
X120591047Y-92861285D01*
X120543428Y-92885095D01*
X120352952Y-92885095D01*
X120805333Y-92623190D02*
X121114857Y-92623190D01*
X120948190Y-92813666D01*
X121019619Y-92813666D01*
X121067238Y-92837476D01*
X121091047Y-92861285D01*
X121114857Y-92908904D01*
X121114857Y-93027952D01*
X121091047Y-93075571D01*
X121067238Y-93099380D01*
X121019619Y-93123190D01*
X120876761Y-93123190D01*
X120829142Y-93099380D01*
X120805333Y-93075571D01*
D10*
%TO.C,HY628100ALLG-70*%
X130668380Y-116525952D02*
X129668380Y-116525952D01*
X130144571Y-116525952D02*
X130144571Y-115954523D01*
X130668380Y-115954523D02*
X129668380Y-115954523D01*
X130192190Y-115287857D02*
X130668380Y-115287857D01*
X129668380Y-115621190D02*
X130192190Y-115287857D01*
X129668380Y-114954523D01*
X129668380Y-114192619D02*
X129668380Y-114383095D01*
X129716000Y-114478333D01*
X129763619Y-114525952D01*
X129906476Y-114621190D01*
X130096952Y-114668809D01*
X130477904Y-114668809D01*
X130573142Y-114621190D01*
X130620761Y-114573571D01*
X130668380Y-114478333D01*
X130668380Y-114287857D01*
X130620761Y-114192619D01*
X130573142Y-114145000D01*
X130477904Y-114097380D01*
X130239809Y-114097380D01*
X130144571Y-114145000D01*
X130096952Y-114192619D01*
X130049333Y-114287857D01*
X130049333Y-114478333D01*
X130096952Y-114573571D01*
X130144571Y-114621190D01*
X130239809Y-114668809D01*
X129763619Y-113716428D02*
X129716000Y-113668809D01*
X129668380Y-113573571D01*
X129668380Y-113335476D01*
X129716000Y-113240238D01*
X129763619Y-113192619D01*
X129858857Y-113145000D01*
X129954095Y-113145000D01*
X130096952Y-113192619D01*
X130668380Y-113764047D01*
X130668380Y-113145000D01*
X130096952Y-112573571D02*
X130049333Y-112668809D01*
X130001714Y-112716428D01*
X129906476Y-112764047D01*
X129858857Y-112764047D01*
X129763619Y-112716428D01*
X129716000Y-112668809D01*
X129668380Y-112573571D01*
X129668380Y-112383095D01*
X129716000Y-112287857D01*
X129763619Y-112240238D01*
X129858857Y-112192619D01*
X129906476Y-112192619D01*
X130001714Y-112240238D01*
X130049333Y-112287857D01*
X130096952Y-112383095D01*
X130096952Y-112573571D01*
X130144571Y-112668809D01*
X130192190Y-112716428D01*
X130287428Y-112764047D01*
X130477904Y-112764047D01*
X130573142Y-112716428D01*
X130620761Y-112668809D01*
X130668380Y-112573571D01*
X130668380Y-112383095D01*
X130620761Y-112287857D01*
X130573142Y-112240238D01*
X130477904Y-112192619D01*
X130287428Y-112192619D01*
X130192190Y-112240238D01*
X130144571Y-112287857D01*
X130096952Y-112383095D01*
X130668380Y-111240238D02*
X130668380Y-111811666D01*
X130668380Y-111525952D02*
X129668380Y-111525952D01*
X129811238Y-111621190D01*
X129906476Y-111716428D01*
X129954095Y-111811666D01*
X129668380Y-110621190D02*
X129668380Y-110525952D01*
X129716000Y-110430714D01*
X129763619Y-110383095D01*
X129858857Y-110335476D01*
X130049333Y-110287857D01*
X130287428Y-110287857D01*
X130477904Y-110335476D01*
X130573142Y-110383095D01*
X130620761Y-110430714D01*
X130668380Y-110525952D01*
X130668380Y-110621190D01*
X130620761Y-110716428D01*
X130573142Y-110764047D01*
X130477904Y-110811666D01*
X130287428Y-110859285D01*
X130049333Y-110859285D01*
X129858857Y-110811666D01*
X129763619Y-110764047D01*
X129716000Y-110716428D01*
X129668380Y-110621190D01*
X129668380Y-109668809D02*
X129668380Y-109573571D01*
X129716000Y-109478333D01*
X129763619Y-109430714D01*
X129858857Y-109383095D01*
X130049333Y-109335476D01*
X130287428Y-109335476D01*
X130477904Y-109383095D01*
X130573142Y-109430714D01*
X130620761Y-109478333D01*
X130668380Y-109573571D01*
X130668380Y-109668809D01*
X130620761Y-109764047D01*
X130573142Y-109811666D01*
X130477904Y-109859285D01*
X130287428Y-109906904D01*
X130049333Y-109906904D01*
X129858857Y-109859285D01*
X129763619Y-109811666D01*
X129716000Y-109764047D01*
X129668380Y-109668809D01*
X130382666Y-108954523D02*
X130382666Y-108478333D01*
X130668380Y-109049761D02*
X129668380Y-108716428D01*
X130668380Y-108383095D01*
X130668380Y-107573571D02*
X130668380Y-108049761D01*
X129668380Y-108049761D01*
X130668380Y-106764047D02*
X130668380Y-107240238D01*
X129668380Y-107240238D01*
X129716000Y-105906904D02*
X129668380Y-106002142D01*
X129668380Y-106145000D01*
X129716000Y-106287857D01*
X129811238Y-106383095D01*
X129906476Y-106430714D01*
X130096952Y-106478333D01*
X130239809Y-106478333D01*
X130430285Y-106430714D01*
X130525523Y-106383095D01*
X130620761Y-106287857D01*
X130668380Y-106145000D01*
X130668380Y-106049761D01*
X130620761Y-105906904D01*
X130573142Y-105859285D01*
X130239809Y-105859285D01*
X130239809Y-106049761D01*
X130287428Y-105430714D02*
X130287428Y-104668809D01*
X129668380Y-104287857D02*
X129668380Y-103621190D01*
X130668380Y-104049761D01*
X129668380Y-103049761D02*
X129668380Y-102954523D01*
X129716000Y-102859285D01*
X129763619Y-102811666D01*
X129858857Y-102764047D01*
X130049333Y-102716428D01*
X130287428Y-102716428D01*
X130477904Y-102764047D01*
X130573142Y-102811666D01*
X130620761Y-102859285D01*
X130668380Y-102954523D01*
X130668380Y-103049761D01*
X130620761Y-103145000D01*
X130573142Y-103192619D01*
X130477904Y-103240238D01*
X130287428Y-103287857D01*
X130049333Y-103287857D01*
X129858857Y-103240238D01*
X129763619Y-103192619D01*
X129716000Y-103145000D01*
X129668380Y-103049761D01*
%TD*%
M02*
