%TF.GenerationSoftware,KiCad,Pcbnew,(6.0.2)*%
%TF.CreationDate,2022-09-16T22:24:32-05:00*%
%TF.ProjectId,REF1222 Optimized,52454631-3232-4322-904f-7074696d697a,rev?*%
%TF.SameCoordinates,Original*%
%TF.FileFunction,Paste,Top*%
%TF.FilePolarity,Positive*%
%FSLAX46Y46*%
G04 Gerber Fmt 4.6, Leading zero omitted, Abs format (unit mm)*
G04 Created by KiCad (PCBNEW (6.0.2)) date 2022-09-16 22:24:32*
%MOMM*%
%LPD*%
G01*
G04 APERTURE LIST*
%ADD10O,2.460000X0.360000*%
%ADD11O,0.360000X2.460000*%
%ADD12R,1.500000X1.500000*%
%ADD13R,1.500000X6.250000*%
%ADD14R,1.000000X6.000000*%
%ADD15R,2.220000X0.600000*%
%ADD16R,0.600000X2.220000*%
%ADD17R,3.250000X0.600000*%
G04 APERTURE END LIST*
D10*
%TO.C,DATEL GBOY*%
X147669000Y-102332000D03*
X147669000Y-103352000D03*
X147669000Y-104372000D03*
X147669000Y-105392000D03*
X147669000Y-106412000D03*
X147669000Y-107432000D03*
X147669000Y-108452000D03*
X147669000Y-109472000D03*
X147669000Y-110492000D03*
X147669000Y-111512000D03*
X147669000Y-112532000D03*
X147669000Y-113552000D03*
X147669000Y-114572000D03*
D11*
X150201000Y-116997000D03*
X151221000Y-116997000D03*
X152236000Y-116997000D03*
X153214000Y-116997000D03*
X154229000Y-116997000D03*
X155246000Y-116997000D03*
X156263000Y-116997000D03*
X157243000Y-116997000D03*
X158254000Y-116997000D03*
X159274000Y-116997000D03*
X160293000Y-116997000D03*
X161309000Y-116997000D03*
X162286000Y-116997000D03*
D10*
X164829000Y-114572000D03*
X164829000Y-113552000D03*
X164829000Y-112532000D03*
X164829000Y-111512000D03*
X164829000Y-110492000D03*
X164829000Y-109472000D03*
X164829000Y-108452000D03*
X164829000Y-107432000D03*
X164829000Y-106412000D03*
X164829000Y-105392000D03*
X164829000Y-104372000D03*
X164829000Y-103352000D03*
X164829000Y-102332000D03*
D11*
X162286000Y-99747000D03*
X161309000Y-99747000D03*
X160293000Y-99747000D03*
X159274000Y-99747000D03*
X158254000Y-99747000D03*
X157243000Y-99747000D03*
X156263000Y-99747000D03*
X155246000Y-99747000D03*
X154229000Y-99747000D03*
X153214000Y-99747000D03*
X152236000Y-99747000D03*
X151221000Y-99747000D03*
X150201000Y-99747000D03*
%TD*%
D12*
%TO.C,R1*%
X119098500Y-84854000D03*
X122315500Y-84856000D03*
%TD*%
%TO.C,C2*%
X119223000Y-87950000D03*
X122440000Y-87952000D03*
%TD*%
%TO.C,R2*%
X119102000Y-91126000D03*
X122319000Y-91128000D03*
%TD*%
%TO.C,C1*%
X119101500Y-81678000D03*
X122318500Y-81680000D03*
%TD*%
D13*
%TO.C,J1*%
X119063984Y-130521000D03*
D14*
X120814242Y-130396000D03*
X122314500Y-130396000D03*
X123814758Y-130396000D03*
X125315016Y-130396000D03*
X126815274Y-130396000D03*
X128315532Y-130396000D03*
X129815790Y-130396000D03*
X131316048Y-130396000D03*
X132816306Y-130396000D03*
X134316564Y-130396000D03*
X135816822Y-130396000D03*
X137317080Y-130396000D03*
X138817338Y-130396000D03*
X140317596Y-130396000D03*
X141817854Y-130396000D03*
X143318112Y-130396000D03*
X144818370Y-130396000D03*
X146318628Y-130396000D03*
X147818886Y-130396000D03*
X149319144Y-130396000D03*
X150819402Y-130396000D03*
X152319660Y-130396000D03*
X153819918Y-130396000D03*
X155320176Y-130396000D03*
X156820434Y-130396000D03*
X158320692Y-130396000D03*
X159820950Y-130396000D03*
X161321208Y-130396000D03*
X162821466Y-130396000D03*
X164321724Y-130396000D03*
D13*
X166071984Y-130521000D03*
%TD*%
D15*
%TO.C,NM27C010V*%
X149414000Y-86515000D03*
X149411000Y-85204000D03*
X149414000Y-83977000D03*
X149414000Y-82659000D03*
D16*
X147512000Y-80763000D03*
X146242000Y-80758000D03*
X144931000Y-80760000D03*
X143699000Y-80758000D03*
X142435000Y-80758000D03*
X141159000Y-80758000D03*
X139849000Y-80763000D03*
X138581000Y-80760000D03*
X137309000Y-80760000D03*
D15*
X135404000Y-82665000D03*
X135406000Y-83974000D03*
X135404000Y-85202000D03*
X135404000Y-86515000D03*
X135404000Y-87782000D03*
X135404000Y-89093000D03*
X135404000Y-90362000D03*
D16*
X137310000Y-92268000D03*
X138582000Y-92268000D03*
X139854000Y-92269000D03*
X141159000Y-92269000D03*
X142428000Y-92269000D03*
X143700000Y-92269000D03*
X144932000Y-92268000D03*
X146239000Y-92270000D03*
X147511000Y-92266000D03*
D15*
X149414000Y-90361000D03*
X149414000Y-89098000D03*
X149414000Y-87821000D03*
%TD*%
D12*
%TO.C,C3*%
X119221000Y-97354000D03*
X122438000Y-97356000D03*
%TD*%
%TO.C,R3*%
X119099000Y-94180000D03*
X122316000Y-94182000D03*
%TD*%
D17*
%TO.C,HY628100ALLG-70*%
X133025000Y-119267000D03*
X133021000Y-117992000D03*
X133026000Y-116687000D03*
X133022000Y-115458000D03*
X133019000Y-114144000D03*
X133027000Y-112831000D03*
X133020000Y-111563000D03*
X133024000Y-110294000D03*
X133024000Y-109024000D03*
X133024000Y-107717000D03*
X133024000Y-106401000D03*
X133024000Y-105137000D03*
X133024000Y-103862000D03*
X133024000Y-102598000D03*
X133020000Y-101289000D03*
X133028000Y-100054000D03*
X121154000Y-100052000D03*
X121154000Y-101284000D03*
X121154000Y-102593000D03*
X121154000Y-103865000D03*
X121154000Y-105135000D03*
X121154000Y-106401000D03*
X121154000Y-107715000D03*
X121158000Y-109022000D03*
X121154000Y-110294000D03*
X121158000Y-111567000D03*
X121158000Y-112835000D03*
X121154000Y-114143000D03*
X121154000Y-115457000D03*
X121161000Y-116685000D03*
X121158000Y-117991000D03*
X121154000Y-119266000D03*
%TD*%
M02*
