%TF.GenerationSoftware,KiCad,Pcbnew,(6.0.2)*%
%TF.CreationDate,2022-09-16T22:24:32-05:00*%
%TF.ProjectId,REF1222 Optimized,52454631-3232-4322-904f-7074696d697a,rev?*%
%TF.SameCoordinates,Original*%
%TF.FileFunction,Copper,L1,Top*%
%TF.FilePolarity,Positive*%
%FSLAX46Y46*%
G04 Gerber Fmt 4.6, Leading zero omitted, Abs format (unit mm)*
G04 Created by KiCad (PCBNEW (6.0.2)) date 2022-09-16 22:24:32*
%MOMM*%
%LPD*%
G01*
G04 APERTURE LIST*
%ADD10C,0.150000*%
%TA.AperFunction,NonConductor*%
%ADD11C,0.150000*%
%TD*%
%TA.AperFunction,SMDPad,CuDef*%
%ADD12O,2.460000X0.360000*%
%TD*%
%TA.AperFunction,SMDPad,CuDef*%
%ADD13O,0.360000X2.460000*%
%TD*%
%TA.AperFunction,SMDPad,CuDef*%
%ADD14R,1.500000X1.500000*%
%TD*%
%TA.AperFunction,ComponentPad*%
%ADD15C,1.700000*%
%TD*%
%TA.AperFunction,SMDPad,CuDef*%
%ADD16R,1.500000X6.250000*%
%TD*%
%TA.AperFunction,SMDPad,CuDef*%
%ADD17R,1.000000X6.000000*%
%TD*%
%TA.AperFunction,ComponentPad*%
%ADD18C,5.600000*%
%TD*%
%TA.AperFunction,SMDPad,CuDef*%
%ADD19R,2.220000X0.600000*%
%TD*%
%TA.AperFunction,SMDPad,CuDef*%
%ADD20R,0.600000X2.220000*%
%TD*%
%TA.AperFunction,ComponentPad*%
%ADD21C,2.000000*%
%TD*%
%TA.AperFunction,ComponentPad*%
%ADD22C,1.830000*%
%TD*%
%TA.AperFunction,SMDPad,CuDef*%
%ADD23R,3.250000X0.600000*%
%TD*%
%TA.AperFunction,ViaPad*%
%ADD24C,0.800000*%
%TD*%
%TA.AperFunction,Conductor*%
%ADD25C,0.250000*%
%TD*%
%TA.AperFunction,Conductor*%
%ADD26C,0.550000*%
%TD*%
G04 APERTURE END LIST*
D10*
D11*
X138647740Y-73048069D02*
X138281073Y-72524259D01*
X138019169Y-73048069D02*
X138019169Y-71948069D01*
X138438216Y-71948069D01*
X138542978Y-72000450D01*
X138595359Y-72052830D01*
X138647740Y-72157592D01*
X138647740Y-72314735D01*
X138595359Y-72419497D01*
X138542978Y-72471878D01*
X138438216Y-72524259D01*
X138019169Y-72524259D01*
X139119169Y-72471878D02*
X139485835Y-72471878D01*
X139642978Y-73048069D02*
X139119169Y-73048069D01*
X139119169Y-71948069D01*
X139642978Y-71948069D01*
X140481073Y-72471878D02*
X140114407Y-72471878D01*
X140114407Y-73048069D02*
X140114407Y-71948069D01*
X140638216Y-71948069D01*
X141633454Y-73048069D02*
X141004883Y-73048069D01*
X141319169Y-73048069D02*
X141319169Y-71948069D01*
X141214407Y-72105211D01*
X141109645Y-72209973D01*
X141004883Y-72262354D01*
X142052502Y-72052830D02*
X142104883Y-72000450D01*
X142209645Y-71948069D01*
X142471550Y-71948069D01*
X142576311Y-72000450D01*
X142628692Y-72052830D01*
X142681073Y-72157592D01*
X142681073Y-72262354D01*
X142628692Y-72419497D01*
X142000121Y-73048069D01*
X142681073Y-73048069D01*
X143100121Y-72052830D02*
X143152502Y-72000450D01*
X143257264Y-71948069D01*
X143519169Y-71948069D01*
X143623930Y-72000450D01*
X143676311Y-72052830D01*
X143728692Y-72157592D01*
X143728692Y-72262354D01*
X143676311Y-72419497D01*
X143047740Y-73048069D01*
X143728692Y-73048069D01*
X144147740Y-72052830D02*
X144200121Y-72000450D01*
X144304883Y-71948069D01*
X144566788Y-71948069D01*
X144671550Y-72000450D01*
X144723930Y-72052830D01*
X144776311Y-72157592D01*
X144776311Y-72262354D01*
X144723930Y-72419497D01*
X144095359Y-73048069D01*
X144776311Y-73048069D01*
D12*
%TO.P,DATEL GBOY,1,A0*%
%TO.N,/A0*%
X147669000Y-102332000D03*
%TO.P,DATEL GBOY,2,A1*%
%TO.N,/A1*%
X147669000Y-103352000D03*
%TO.P,DATEL GBOY,3,A2*%
%TO.N,/A2*%
X147669000Y-104372000D03*
%TO.P,DATEL GBOY,4,A3*%
%TO.N,/A3*%
X147669000Y-105392000D03*
%TO.P,DATEL GBOY,5,A4*%
%TO.N,/A4*%
X147669000Y-106412000D03*
%TO.P,DATEL GBOY,6,A5*%
%TO.N,/A5*%
X147669000Y-107432000D03*
%TO.P,DATEL GBOY,7,GND*%
%TO.N,/GND*%
X147669000Y-108452000D03*
%TO.P,DATEL GBOY,8,VCC*%
%TO.N,/VCC*%
X147669000Y-109472000D03*
%TO.P,DATEL GBOY,9,A6*%
%TO.N,/A6*%
X147669000Y-110492000D03*
%TO.P,DATEL GBOY,10,A7*%
%TO.N,/A7*%
X147669000Y-111512000D03*
%TO.P,DATEL GBOY,11,A8*%
%TO.N,/A8*%
X147669000Y-112532000D03*
%TO.P,DATEL GBOY,12,A9*%
%TO.N,/A9*%
X147669000Y-113552000D03*
%TO.P,DATEL GBOY,13,A10*%
%TO.N,/A10*%
X147669000Y-114572000D03*
D13*
%TO.P,DATEL GBOY,14,A11*%
%TO.N,/A11*%
X150201000Y-116997000D03*
%TO.P,DATEL GBOY,15,A12*%
%TO.N,/A12*%
X151221000Y-116997000D03*
%TO.P,DATEL GBOY,16,A13*%
%TO.N,/A13*%
X152236000Y-116997000D03*
%TO.P,DATEL GBOY,17,A14*%
%TO.N,/A14*%
X153214000Y-116997000D03*
%TO.P,DATEL GBOY,18,A15_Cart*%
%TO.N,/A15_Cart*%
X154229000Y-116997000D03*
%TO.P,DATEL GBOY,19,Button*%
%TO.N,/Button*%
X155246000Y-116997000D03*
%TO.P,DATEL GBOY,20,GND*%
%TO.N,/GND*%
X156263000Y-116997000D03*
%TO.P,DATEL GBOY,21,WE_Internal*%
%TO.N,/WE_Internal*%
X157243000Y-116997000D03*
%TO.P,DATEL GBOY,22,SRAM_OE*%
%TO.N,/SRAM_OE*%
X158254000Y-116997000D03*
%TO.P,DATEL GBOY,23,SRAM_CS1*%
%TO.N,/SRAM_CS1*%
X159274000Y-116997000D03*
%TO.P,DATEL GBOY,24,EEPROM_OE*%
%TO.N,/EEPROM_OE*%
X160293000Y-116997000D03*
%TO.P,DATEL GBOY,25,EEPROM_CE*%
%TO.N,/EEPROM_CE*%
X161309000Y-116997000D03*
%TO.P,DATEL GBOY,26,A15_Game*%
%TO.N,/A15_Game*%
X162286000Y-116997000D03*
D12*
%TO.P,DATEL GBOY,27,Wr_Game*%
%TO.N,/Wr_Game*%
X164829000Y-114572000D03*
%TO.P,DATEL GBOY,28,Rd_Game*%
%TO.N,/Rd_Game*%
X164829000Y-113552000D03*
%TO.P,DATEL GBOY,29,Wr_Sys*%
%TO.N,/Wr_Sys*%
X164829000Y-112532000D03*
%TO.P,DATEL GBOY,30,Rd_Sys*%
%TO.N,/Rd_Sys*%
X164829000Y-111512000D03*
%TO.P,DATEL GBOY,31,Const_High*%
%TO.N,/Const_High*%
X164829000Y-110492000D03*
%TO.P,DATEL GBOY,32,VCC*%
%TO.N,/VCC*%
X164829000Y-109472000D03*
%TO.P,DATEL GBOY,33,GND*%
%TO.N,/GND*%
X164829000Y-108452000D03*
%TO.P,DATEL GBOY,34,N/C*%
%TO.N,unconnected-(DATEL_GBOY1-Pad34)*%
X164829000Y-107432000D03*
%TO.P,DATEL GBOY,35,A16_Internal*%
%TO.N,/A16_Internal*%
X164829000Y-106412000D03*
%TO.P,DATEL GBOY,36,A15_Internal*%
%TO.N,/A15_Internal*%
X164829000Y-105392000D03*
%TO.P,DATEL GBOY,37,A14_Internal*%
%TO.N,/A14_Internal*%
X164829000Y-104372000D03*
%TO.P,DATEL GBOY,38,A13_Internal*%
%TO.N,/A13_Internal*%
X164829000Y-103352000D03*
%TO.P,DATEL GBOY,39,A12_Internal*%
%TO.N,/A12_Internal*%
X164829000Y-102332000D03*
D13*
%TO.P,DATEL GBOY,40,Switch*%
%TO.N,/Switch*%
X162286000Y-99747000D03*
%TO.P,DATEL GBOY,41,N/C*%
%TO.N,unconnected-(DATEL_GBOY1-Pad41)*%
X161309000Y-99747000D03*
%TO.P,DATEL GBOY,42,D0*%
%TO.N,/D0*%
X160293000Y-99747000D03*
%TO.P,DATEL GBOY,43,D1*%
%TO.N,/D1*%
X159274000Y-99747000D03*
%TO.P,DATEL GBOY,44,D2*%
%TO.N,/D2*%
X158254000Y-99747000D03*
%TO.P,DATEL GBOY,45,D3*%
%TO.N,/D3*%
X157243000Y-99747000D03*
%TO.P,DATEL GBOY,46,GND*%
%TO.N,/GND*%
X156263000Y-99747000D03*
%TO.P,DATEL GBOY,47,D4*%
%TO.N,/D4*%
X155246000Y-99747000D03*
%TO.P,DATEL GBOY,48,D5*%
%TO.N,/D5*%
X154229000Y-99747000D03*
%TO.P,DATEL GBOY,49,D6*%
%TO.N,/D6*%
X153214000Y-99747000D03*
%TO.P,DATEL GBOY,50,D7*%
%TO.N,/D7*%
X152236000Y-99747000D03*
%TO.P,DATEL GBOY,51,N/C*%
%TO.N,unconnected-(DATEL_GBOY1-Pad51)*%
X151221000Y-99747000D03*
%TO.P,DATEL GBOY,52,N/C*%
%TO.N,unconnected-(DATEL_GBOY1-Pad52)*%
X150201000Y-99747000D03*
%TD*%
D14*
%TO.P,R1,1*%
%TO.N,/VCC*%
X119098500Y-84854000D03*
%TO.P,R1,2*%
%TO.N,/Const_High*%
X122315500Y-84856000D03*
%TD*%
D15*
%TO.P,J2,1,+5V*%
%TO.N,/VCC*%
X166131000Y-75967000D03*
%TO.P,J2,2,Clock*%
%TO.N,/Clk*%
X164623000Y-77517000D03*
%TO.P,J2,3,Write*%
%TO.N,/Wr_Game*%
X163155000Y-75962000D03*
%TO.P,J2,4,Read*%
%TO.N,/Rd_Game*%
X161649000Y-77518000D03*
%TO.P,J2,5,CS*%
%TO.N,/CS*%
X160137000Y-75969000D03*
%TO.P,J2,6,A0*%
%TO.N,/A0*%
X158633000Y-77518000D03*
%TO.P,J2,7,A1*%
%TO.N,/A1*%
X157124000Y-75968000D03*
%TO.P,J2,8,A2*%
%TO.N,/A2*%
X155654000Y-77517000D03*
%TO.P,J2,9,A3*%
%TO.N,/A3*%
X154111000Y-75969000D03*
%TO.P,J2,10,A4*%
%TO.N,/A4*%
X152599000Y-77517000D03*
%TO.P,J2,11,A5*%
%TO.N,/A5*%
X151092000Y-75967000D03*
%TO.P,J2,12,A6*%
%TO.N,/A6*%
X149583000Y-77517000D03*
%TO.P,J2,13,A7*%
%TO.N,/A7*%
X148076000Y-75968000D03*
%TO.P,J2,14,A8*%
%TO.N,/A8*%
X146529000Y-77515000D03*
%TO.P,J2,15,A9*%
%TO.N,/A9*%
X145099000Y-75967000D03*
%TO.P,J2,16,A10*%
%TO.N,/A10*%
X143591000Y-77514000D03*
%TO.P,J2,17,A11*%
%TO.N,/A11*%
X142082000Y-75927300D03*
%TO.P,J2,18,A12*%
%TO.N,/A12*%
X140573800Y-77514800D03*
%TO.P,J2,19,A13*%
%TO.N,/A13*%
X139067000Y-75926000D03*
%TO.P,J2,20,A14*%
%TO.N,/A14*%
X137557600Y-77514800D03*
%TO.P,J2,21,A15*%
%TO.N,/A15_Game*%
X136051000Y-75929000D03*
%TO.P,J2,22,Data_0*%
%TO.N,/D0*%
X134584000Y-77514000D03*
%TO.P,J2,23,Data_1*%
%TO.N,/D1*%
X133033200Y-75927300D03*
%TO.P,J2,24,Data_2*%
%TO.N,/D2*%
X131484000Y-77514000D03*
%TO.P,J2,25,Data_3*%
%TO.N,/D3*%
X130018000Y-75926000D03*
%TO.P,J2,26,Data_4*%
%TO.N,/D4*%
X128507000Y-77516000D03*
%TO.P,J2,27,Data_5*%
%TO.N,/D5*%
X126996000Y-75964000D03*
%TO.P,J2,28,Data_6*%
%TO.N,/D6*%
X125492000Y-77513000D03*
%TO.P,J2,29,Data_7*%
%TO.N,/D7*%
X124022000Y-75965000D03*
%TO.P,J2,30,Reset*%
%TO.N,/Reset*%
X122518000Y-77517000D03*
%TO.P,J2,31,Audio*%
%TO.N,/Audio*%
X120970000Y-75966000D03*
%TO.P,J2,32,GND*%
%TO.N,/GND*%
X119459000Y-77474000D03*
%TD*%
D14*
%TO.P,C2,1*%
%TO.N,/GND*%
X119223000Y-87950000D03*
%TO.P,C2,2*%
%TO.N,/Button*%
X122440000Y-87952000D03*
%TD*%
%TO.P,R2,1*%
%TO.N,/VCC*%
X119102000Y-91126000D03*
%TO.P,R2,2*%
%TO.N,/Button*%
X122319000Y-91128000D03*
%TD*%
%TO.P,C1,1*%
%TO.N,/GND*%
X119101500Y-81678000D03*
%TO.P,C1,2*%
%TO.N,/Const_High*%
X122318500Y-81680000D03*
%TD*%
D16*
%TO.P,J1,1,+5V*%
%TO.N,/VCC*%
X119063984Y-130521000D03*
D17*
%TO.P,J1,2,Clock*%
%TO.N,/Clk*%
X120814242Y-130396000D03*
%TO.P,J1,3,Write*%
%TO.N,/Wr_Sys*%
X122314500Y-130396000D03*
%TO.P,J1,4,Read*%
%TO.N,/Rd_Sys*%
X123814758Y-130396000D03*
%TO.P,J1,5,CS*%
%TO.N,/CS*%
X125315016Y-130396000D03*
%TO.P,J1,6,A0*%
%TO.N,/A0*%
X126815274Y-130396000D03*
%TO.P,J1,7,A1*%
%TO.N,/A1*%
X128315532Y-130396000D03*
%TO.P,J1,8,A2*%
%TO.N,/A2*%
X129815790Y-130396000D03*
%TO.P,J1,9,A3*%
%TO.N,/A3*%
X131316048Y-130396000D03*
%TO.P,J1,10,A4*%
%TO.N,/A4*%
X132816306Y-130396000D03*
%TO.P,J1,11,A5*%
%TO.N,/A5*%
X134316564Y-130396000D03*
%TO.P,J1,12,A6*%
%TO.N,/A6*%
X135816822Y-130396000D03*
%TO.P,J1,13,A7*%
%TO.N,/A7*%
X137317080Y-130396000D03*
%TO.P,J1,14,A8*%
%TO.N,/A8*%
X138817338Y-130396000D03*
%TO.P,J1,15,A9*%
%TO.N,/A9*%
X140317596Y-130396000D03*
%TO.P,J1,16,A10*%
%TO.N,/A10*%
X141817854Y-130396000D03*
%TO.P,J1,17,A11*%
%TO.N,/A11*%
X143318112Y-130396000D03*
%TO.P,J1,18,A12*%
%TO.N,/A12*%
X144818370Y-130396000D03*
%TO.P,J1,19,A13*%
%TO.N,/A13*%
X146318628Y-130396000D03*
%TO.P,J1,20,A14*%
%TO.N,/A14*%
X147818886Y-130396000D03*
%TO.P,J1,21,A15*%
%TO.N,/A15_Cart*%
X149319144Y-130396000D03*
%TO.P,J1,22,Data_0*%
%TO.N,/D0*%
X150819402Y-130396000D03*
%TO.P,J1,23,Data_1*%
%TO.N,/D1*%
X152319660Y-130396000D03*
%TO.P,J1,24,Data_2*%
%TO.N,/D2*%
X153819918Y-130396000D03*
%TO.P,J1,25,Data_3*%
%TO.N,/D3*%
X155320176Y-130396000D03*
%TO.P,J1,26,Data_4*%
%TO.N,/D4*%
X156820434Y-130396000D03*
%TO.P,J1,27,Data_5*%
%TO.N,/D5*%
X158320692Y-130396000D03*
%TO.P,J1,28,Data_6*%
%TO.N,/D6*%
X159820950Y-130396000D03*
%TO.P,J1,29,Data_7*%
%TO.N,/D7*%
X161321208Y-130396000D03*
%TO.P,J1,30,Reset*%
%TO.N,/Reset*%
X162821466Y-130396000D03*
%TO.P,J1,31,Audio*%
%TO.N,/Audio*%
X164321724Y-130396000D03*
D16*
%TO.P,J1,32,GND*%
%TO.N,/GND*%
X166071984Y-130521000D03*
%TD*%
D18*
%TO.P,Hole,1*%
%TO.N,N/C*%
X142361000Y-117796000D03*
%TD*%
D19*
%TO.P,NM27C010V,1,Vpp*%
%TO.N,unconnected-(NM27C010V1-Pad1)*%
X149414000Y-86515000D03*
%TO.P,NM27C010V,2,A16*%
%TO.N,/A16_Internal*%
X149411000Y-85204000D03*
%TO.P,NM27C010V,3,A15*%
%TO.N,/A15_Internal*%
X149414000Y-83977000D03*
%TO.P,NM27C010V,4,A12*%
%TO.N,/A12_Internal*%
X149414000Y-82659000D03*
D20*
%TO.P,NM27C010V,5,A7*%
%TO.N,/A7*%
X147512000Y-80763000D03*
%TO.P,NM27C010V,6,A6*%
%TO.N,/A6*%
X146242000Y-80758000D03*
%TO.P,NM27C010V,7,A5*%
%TO.N,/A5*%
X144931000Y-80760000D03*
%TO.P,NM27C010V,8,A4*%
%TO.N,/A4*%
X143699000Y-80758000D03*
%TO.P,NM27C010V,9,A3*%
%TO.N,/A3*%
X142435000Y-80758000D03*
%TO.P,NM27C010V,10,A2*%
%TO.N,/A2*%
X141159000Y-80758000D03*
%TO.P,NM27C010V,11,A1*%
%TO.N,/A1*%
X139849000Y-80763000D03*
%TO.P,NM27C010V,12,A0*%
%TO.N,/A0*%
X138581000Y-80760000D03*
%TO.P,NM27C010V,13,O0*%
%TO.N,/D0*%
X137309000Y-80760000D03*
D19*
%TO.P,NM27C010V,14,O1*%
%TO.N,/D1*%
X135404000Y-82665000D03*
%TO.P,NM27C010V,15,O2*%
%TO.N,/D2*%
X135406000Y-83974000D03*
%TO.P,NM27C010V,16,GND*%
%TO.N,/GND*%
X135404000Y-85202000D03*
%TO.P,NM27C010V,17,O3*%
%TO.N,/D3*%
X135404000Y-86515000D03*
%TO.P,NM27C010V,18,O4*%
%TO.N,/D4*%
X135404000Y-87782000D03*
%TO.P,NM27C010V,19,O5*%
%TO.N,/D5*%
X135404000Y-89093000D03*
%TO.P,NM27C010V,20,O6*%
%TO.N,/D6*%
X135404000Y-90362000D03*
D20*
%TO.P,NM27C010V,21,O7*%
%TO.N,/D7*%
X137310000Y-92268000D03*
%TO.P,NM27C010V,22,CE#*%
%TO.N,/EEPROM_CE*%
X138582000Y-92268000D03*
%TO.P,NM27C010V,23,A10*%
%TO.N,/A10*%
X139854000Y-92269000D03*
%TO.P,NM27C010V,24,OE#*%
%TO.N,/EEPROM_OE*%
X141159000Y-92269000D03*
%TO.P,NM27C010V,25,A11*%
%TO.N,/A11*%
X142428000Y-92269000D03*
%TO.P,NM27C010V,26,A9*%
%TO.N,/A9*%
X143700000Y-92269000D03*
%TO.P,NM27C010V,27,A8*%
%TO.N,/A8*%
X144932000Y-92268000D03*
%TO.P,NM27C010V,28,A13*%
%TO.N,/A13_Internal*%
X146239000Y-92270000D03*
%TO.P,NM27C010V,29,A14*%
%TO.N,/A14_Internal*%
X147511000Y-92266000D03*
D19*
%TO.P,NM27C010V,30,N/C*%
%TO.N,unconnected-(NM27C010V1-Pad30)*%
X149414000Y-90361000D03*
%TO.P,NM27C010V,31,PGM*%
%TO.N,/WE_Internal*%
X149414000Y-89098000D03*
%TO.P,NM27C010V,32,VCC*%
%TO.N,/VCC*%
X149414000Y-87821000D03*
%TD*%
D14*
%TO.P,C3,1*%
%TO.N,/VCC*%
X119221000Y-97354000D03*
%TO.P,C3,2*%
%TO.N,/GND*%
X122438000Y-97356000D03*
%TD*%
D21*
%TO.P,SW1,1,1*%
%TO.N,unconnected-(SW1-Pad1)*%
X147237800Y-72352400D03*
%TO.P,SW1,2,2*%
%TO.N,/GND*%
X148511800Y-70168400D03*
%TO.P,SW1,3,3*%
%TO.N,/Button*%
X152952800Y-70172400D03*
%TO.P,SW1,4,4*%
%TO.N,unconnected-(SW1-Pad4)*%
X154262800Y-72357400D03*
%TD*%
D14*
%TO.P,R3,1*%
%TO.N,/VCC*%
X119099000Y-94180000D03*
%TO.P,R3,2*%
%TO.N,/Switch*%
X122316000Y-94182000D03*
%TD*%
D22*
%TO.P,J3,5*%
%TO.N,N/C*%
X135535000Y-73106000D03*
%TO.P,J3,4*%
X122791000Y-73105000D03*
%TO.P,J3,3,C*%
%TO.N,/GND*%
X131685000Y-73099000D03*
%TO.P,J3,2,B*%
%TO.N,/Switch*%
X129142000Y-73104000D03*
%TO.P,J3,1,A*%
%TO.N,unconnected-(J3-Pad1)*%
X126564000Y-73107000D03*
%TD*%
D23*
%TO.P,HY628100ALLG-70,1,N/C*%
%TO.N,unconnected-(HY628100ALLG-70-Pad1)*%
X133025000Y-119267000D03*
%TO.P,HY628100ALLG-70,2,A16*%
%TO.N,/A16_Internal*%
X133021000Y-117992000D03*
%TO.P,HY628100ALLG-70,3,A14*%
%TO.N,/A14_Internal*%
X133026000Y-116687000D03*
%TO.P,HY628100ALLG-70,4,A12*%
%TO.N,/A12_Internal*%
X133022000Y-115458000D03*
%TO.P,HY628100ALLG-70,5,A7*%
%TO.N,/A7*%
X133019000Y-114144000D03*
%TO.P,HY628100ALLG-70,6,A6*%
%TO.N,/A6*%
X133027000Y-112831000D03*
%TO.P,HY628100ALLG-70,7,A5*%
%TO.N,/A5*%
X133020000Y-111563000D03*
%TO.P,HY628100ALLG-70,8,A4*%
%TO.N,/A4*%
X133024000Y-110294000D03*
%TO.P,HY628100ALLG-70,9,A3*%
%TO.N,/A3*%
X133024000Y-109024000D03*
%TO.P,HY628100ALLG-70,10,A2*%
%TO.N,/A2*%
X133024000Y-107717000D03*
%TO.P,HY628100ALLG-70,11,A1*%
%TO.N,/A1*%
X133024000Y-106401000D03*
%TO.P,HY628100ALLG-70,12,A0*%
%TO.N,/A0*%
X133024000Y-105137000D03*
%TO.P,HY628100ALLG-70,13,I/O_1*%
%TO.N,/D0*%
X133024000Y-103862000D03*
%TO.P,HY628100ALLG-70,14,I/O_2*%
%TO.N,/D1*%
X133024000Y-102598000D03*
%TO.P,HY628100ALLG-70,15,I/O_3*%
%TO.N,/D2*%
X133020000Y-101289000D03*
%TO.P,HY628100ALLG-70,16,GND*%
%TO.N,/GND*%
X133028000Y-100054000D03*
%TO.P,HY628100ALLG-70,17,I/O_4*%
%TO.N,/D3*%
X121154000Y-100052000D03*
%TO.P,HY628100ALLG-70,18,I/O_5*%
%TO.N,/D4*%
X121154000Y-101284000D03*
%TO.P,HY628100ALLG-70,19,I/O_6*%
%TO.N,/D5*%
X121154000Y-102593000D03*
%TO.P,HY628100ALLG-70,20,I/O_7*%
%TO.N,/D6*%
X121154000Y-103865000D03*
%TO.P,HY628100ALLG-70,21,I/O_8*%
%TO.N,/D7*%
X121154000Y-105135000D03*
%TO.P,HY628100ALLG-70,22,/CS1*%
%TO.N,/SRAM_CS1*%
X121154000Y-106401000D03*
%TO.P,HY628100ALLG-70,23,A10*%
%TO.N,/A10*%
X121154000Y-107715000D03*
%TO.P,HY628100ALLG-70,24,/OE*%
%TO.N,/SRAM_OE*%
X121158000Y-109022000D03*
%TO.P,HY628100ALLG-70,25,A11*%
%TO.N,/A11*%
X121154000Y-110294000D03*
%TO.P,HY628100ALLG-70,26,A9*%
%TO.N,/A9*%
X121158000Y-111567000D03*
%TO.P,HY628100ALLG-70,27,A8*%
%TO.N,/A8*%
X121158000Y-112835000D03*
%TO.P,HY628100ALLG-70,28,A13*%
%TO.N,/A13_Internal*%
X121154000Y-114143000D03*
%TO.P,HY628100ALLG-70,29,/WE*%
%TO.N,/WE_Internal*%
X121154000Y-115457000D03*
%TO.P,HY628100ALLG-70,30,CS2*%
%TO.N,/VCC*%
X121161000Y-116685000D03*
%TO.P,HY628100ALLG-70,31,A15*%
%TO.N,/A15_Internal*%
X121158000Y-117991000D03*
%TO.P,HY628100ALLG-70,32,VCC*%
%TO.N,/VCC*%
X121154000Y-119266000D03*
%TD*%
D24*
%TO.N,/Const_High*%
X134481500Y-98729500D03*
X159553100Y-110135200D03*
%TO.N,/Rd_Sys*%
X127540200Y-118762500D03*
X161593200Y-111973000D03*
%TO.N,/Wr_Sys*%
X126963800Y-119689000D03*
X161593200Y-112998400D03*
%TO.N,/Button*%
X164891200Y-120619200D03*
X155440100Y-115121600D03*
X125372800Y-95542000D03*
%TO.N,/Audio*%
X163005900Y-125935800D03*
%TO.N,/Reset*%
X162265300Y-126612500D03*
%TO.N,/A15_Game*%
X165122700Y-118552100D03*
%TO.N,/A14*%
X148615600Y-91730100D03*
%TO.N,/A13*%
X146955800Y-90514900D03*
%TO.N,/A12*%
X148124100Y-78790800D03*
X157816100Y-88596100D03*
X151290600Y-104551900D03*
%TO.N,/CS*%
X125315000Y-126795700D03*
X160137000Y-86508600D03*
%TO.N,/Clk*%
X120814200Y-126790200D03*
X166431400Y-86247900D03*
%TO.N,/SRAM_OE*%
X126253800Y-106724300D03*
X156425700Y-113326000D03*
%TO.N,/SRAM_CS1*%
X136505600Y-100455500D03*
X156902600Y-110319400D03*
%TO.N,/VCC*%
X149507000Y-109332400D03*
X159050000Y-108605600D03*
X130219100Y-100650400D03*
X151148800Y-87909500D03*
%TO.N,/WE_Internal*%
X128346800Y-102665700D03*
X153917400Y-96646800D03*
%TO.N,/A14_Internal*%
X154094000Y-106816900D03*
X136488800Y-118220900D03*
X162382200Y-103896300D03*
%TO.N,/A13_Internal*%
X128160400Y-107574100D03*
X146132300Y-95378400D03*
%TO.N,/A8*%
X124910500Y-112835000D03*
X139178400Y-115533600D03*
X151158400Y-110368700D03*
X144932000Y-99815600D03*
%TO.N,/A9*%
X149610300Y-113445400D03*
X136829500Y-104026200D03*
X144153500Y-98374900D03*
%TO.N,/A11*%
X150201000Y-114583400D03*
X142561900Y-97926400D03*
X129166000Y-104793000D03*
%TO.N,/EEPROM_OE*%
X141126000Y-99145500D03*
X155902400Y-110603800D03*
%TO.N,/A10*%
X137528800Y-105396300D03*
X127603400Y-103987700D03*
X145837600Y-114347700D03*
X140118600Y-86523800D03*
%TO.N,/EEPROM_CE*%
X137557400Y-102567900D03*
X155294100Y-112776400D03*
%TO.N,/D7*%
X152236000Y-97717200D03*
X137313300Y-96276100D03*
X123453200Y-105151200D03*
X160673700Y-126769200D03*
%TO.N,/D6*%
X125836300Y-99085900D03*
X133664200Y-90095400D03*
X149595200Y-95268100D03*
%TO.N,/D5*%
X158320700Y-125484600D03*
X154669300Y-105941900D03*
X123903300Y-103883500D03*
%TO.N,/D4*%
X158776200Y-112641600D03*
X154223700Y-119401200D03*
X124402100Y-101745100D03*
%TO.N,/D3*%
X124852200Y-100744900D03*
X158054700Y-106274200D03*
X153181600Y-119945700D03*
%TO.N,/D2*%
X158607800Y-102835200D03*
X153819900Y-125171400D03*
X134712100Y-92570400D03*
X154821500Y-95276400D03*
%TO.N,/D1*%
X161193400Y-106028700D03*
X152319700Y-124152200D03*
X154852800Y-93904200D03*
X136127000Y-92447600D03*
%TO.N,/D0*%
X154840600Y-92586100D03*
X160326100Y-104540700D03*
X150819400Y-123949800D03*
%TO.N,/A0*%
X140560500Y-87539800D03*
%TO.N,/A1*%
X142539700Y-85798000D03*
%TO.N,/A2*%
X143671900Y-84879000D03*
%TO.N,/A3*%
X149466400Y-105958600D03*
X158875900Y-87503800D03*
X143124600Y-83747400D03*
%TO.N,/A4*%
X150134700Y-106713700D03*
X158430600Y-85954300D03*
X144320900Y-82779000D03*
%TO.N,/A5*%
X145829300Y-107148400D03*
X142092500Y-99770800D03*
X142460900Y-87074800D03*
X144456400Y-86523100D03*
%TO.N,/A6*%
X150528700Y-107868300D03*
X160960500Y-91702700D03*
X146317300Y-87808300D03*
%TO.N,/A12_Internal*%
X136574100Y-125585500D03*
X164019700Y-101550300D03*
%TO.N,/A15_Internal*%
X124931000Y-118341400D03*
X162070100Y-105056700D03*
%TO.N,/A16_Internal*%
X135266700Y-117829600D03*
X159216800Y-106855300D03*
%TO.N,/GND*%
X156019600Y-104517700D03*
X149438400Y-108064500D03*
X130414600Y-84378800D03*
%TO.N,/Switch*%
X129604700Y-96290700D03*
X153284100Y-94827100D03*
X120012700Y-80234600D03*
%TD*%
D25*
%TO.N,/Const_High*%
X122318500Y-81680000D02*
X122318500Y-82755100D01*
X162917100Y-110135200D02*
X163273900Y-110492000D01*
X159553100Y-110135200D02*
X162917100Y-110135200D01*
X164829000Y-110492000D02*
X163273900Y-110492000D01*
X122315500Y-82758100D02*
X122315500Y-84856000D01*
X122318500Y-82755100D02*
X122315500Y-82758100D01*
X134481500Y-97962700D02*
X134481500Y-98729500D01*
X122449900Y-85931100D02*
X134481500Y-97962700D01*
X122315500Y-85931100D02*
X122449900Y-85931100D01*
X122315500Y-84856000D02*
X122315500Y-85931100D01*
%TO.N,/Rd_Sys*%
X164829000Y-111512000D02*
X163273900Y-111512000D01*
X162812900Y-111973000D02*
X161593200Y-111973000D01*
X163273900Y-111512000D02*
X162812900Y-111973000D01*
X127688900Y-118911200D02*
X127540200Y-118762500D01*
X127688900Y-119989400D02*
X127688900Y-118911200D01*
X123814800Y-123863500D02*
X127688900Y-119989400D01*
X123814800Y-130396000D02*
X123814800Y-123863500D01*
%TO.N,/Wr_Sys*%
X164829000Y-112532000D02*
X163273900Y-112532000D01*
X162807500Y-112998400D02*
X161593200Y-112998400D01*
X163273900Y-112532000D02*
X162807500Y-112998400D01*
X122314500Y-124338300D02*
X126963800Y-119689000D01*
X122314500Y-130396000D02*
X122314500Y-124338300D01*
%TO.N,/Button*%
X122319000Y-91128000D02*
X122319000Y-90052900D01*
X122440000Y-89931900D02*
X122440000Y-89027100D01*
X122319000Y-90052900D02*
X122440000Y-89931900D01*
X122440000Y-87952000D02*
X122440000Y-89027100D01*
X125372800Y-95256900D02*
X122319000Y-92203100D01*
X125372800Y-95542000D02*
X125372800Y-95256900D01*
X122319000Y-91128000D02*
X122319000Y-92203100D01*
X155440100Y-115247800D02*
X155440100Y-115121600D01*
X155246000Y-115441900D02*
X155440100Y-115247800D01*
X155246000Y-116997000D02*
X155246000Y-115441900D01*
X155246000Y-118602200D02*
X155246000Y-116997000D01*
X157263000Y-120619200D02*
X155246000Y-118602200D01*
X164891200Y-120619200D02*
X157263000Y-120619200D01*
%TO.N,/A15_Cart*%
X154229000Y-116997000D02*
X154229000Y-118552100D01*
X149319100Y-122782800D02*
X149319100Y-130396000D01*
X152881300Y-119220600D02*
X149319100Y-122782800D01*
X153379000Y-119220600D02*
X152881300Y-119220600D01*
X154047500Y-118552100D02*
X153379000Y-119220600D01*
X154229000Y-118552100D02*
X154047500Y-118552100D01*
%TO.N,/Audio*%
X164141000Y-127070900D02*
X163005900Y-125935800D01*
X164321700Y-127070900D02*
X164141000Y-127070900D01*
X164321700Y-130396000D02*
X164321700Y-127070900D01*
%TO.N,/Reset*%
X162821500Y-130396000D02*
X162821500Y-127070900D01*
X162723700Y-127070900D02*
X162265300Y-126612500D01*
X162821500Y-127070900D02*
X162723700Y-127070900D01*
%TO.N,/A15_Game*%
X162286000Y-116997000D02*
X162286000Y-118552100D01*
X165122700Y-118552100D02*
X162286000Y-118552100D01*
%TO.N,/A14*%
X153214000Y-116997000D02*
X153214000Y-115441900D01*
X153214000Y-116997000D02*
X153214000Y-118552100D01*
X152783700Y-115011600D02*
X153214000Y-115441900D01*
X152783700Y-102129900D02*
X152783700Y-115011600D01*
X151730800Y-101077000D02*
X152783700Y-102129900D01*
X151730800Y-98429000D02*
X151730800Y-101077000D01*
X148615600Y-95313800D02*
X151730800Y-98429000D01*
X148615600Y-91730100D02*
X148615600Y-95313800D01*
X147818900Y-123646400D02*
X147818900Y-130396000D01*
X152913200Y-118552100D02*
X147818900Y-123646400D01*
X153214000Y-118552100D02*
X152913200Y-118552100D01*
%TO.N,/A13*%
X146318600Y-124469500D02*
X146318600Y-130396000D01*
X152236000Y-118552100D02*
X146318600Y-124469500D01*
X152236000Y-117774500D02*
X152236000Y-118552100D01*
X152236000Y-117774500D02*
X152236000Y-116997000D01*
X152236000Y-116997000D02*
X152236000Y-115441900D01*
X146885800Y-90584900D02*
X146955800Y-90514900D01*
X146885800Y-94660500D02*
X146885800Y-90584900D01*
X150711000Y-98485700D02*
X146885800Y-94660500D01*
X150711000Y-101384500D02*
X150711000Y-98485700D01*
X152333600Y-103007100D02*
X150711000Y-101384500D01*
X152333600Y-115344300D02*
X152333600Y-103007100D01*
X152236000Y-115441900D02*
X152333600Y-115344300D01*
%TO.N,/A12*%
X151221000Y-116997000D02*
X151221000Y-115441900D01*
X144818400Y-124954700D02*
X144818400Y-130396000D01*
X151221000Y-118552100D02*
X144818400Y-124954700D01*
X151221000Y-116997000D02*
X151221000Y-118552100D01*
X151883500Y-105144800D02*
X151290600Y-104551900D01*
X151883500Y-114779400D02*
X151883500Y-105144800D01*
X151221000Y-115441900D02*
X151883500Y-114779400D01*
X148124100Y-78904100D02*
X148124100Y-78790800D01*
X157816100Y-88596100D02*
X148124100Y-78904100D01*
%TO.N,/CS*%
X125315000Y-130396000D02*
X125315000Y-127070900D01*
X125315000Y-127070900D02*
X125315000Y-126795700D01*
X160137000Y-75969000D02*
X160137000Y-86508600D01*
%TO.N,/Rd_Game*%
X166384100Y-93478400D02*
X166384100Y-113552000D01*
X161649000Y-88743300D02*
X166384100Y-93478400D01*
X161649000Y-77518000D02*
X161649000Y-88743300D01*
X164829000Y-113552000D02*
X166384100Y-113552000D01*
%TO.N,/Wr_Game*%
X164829000Y-114572000D02*
X166384100Y-114572000D01*
X163155000Y-84010700D02*
X163155000Y-75962000D01*
X166834200Y-87689900D02*
X163155000Y-84010700D01*
X166834200Y-114121900D02*
X166834200Y-87689900D01*
X166384100Y-114572000D02*
X166834200Y-114121900D01*
%TO.N,/Clk*%
X120814200Y-130396000D02*
X120814200Y-127070900D01*
X166431400Y-79325400D02*
X166431400Y-86247900D01*
X164623000Y-77517000D02*
X166431400Y-79325400D01*
X120814200Y-127070900D02*
X120814200Y-126790200D01*
%TO.N,/SRAM_OE*%
X123956100Y-109022000D02*
X126253800Y-106724300D01*
X121158000Y-109022000D02*
X123956100Y-109022000D01*
X158254000Y-115154300D02*
X156425700Y-113326000D01*
X158254000Y-116997000D02*
X158254000Y-115154300D01*
%TO.N,/SRAM_CS1*%
X121154000Y-106401000D02*
X123104100Y-106401000D01*
X135046900Y-101914200D02*
X136505600Y-100455500D01*
X127972600Y-101914200D02*
X135046900Y-101914200D01*
X123485800Y-106401000D02*
X127972600Y-101914200D01*
X123104100Y-106401000D02*
X123485800Y-106401000D01*
X156461900Y-109878700D02*
X156902600Y-110319400D01*
X155602100Y-109878700D02*
X156461900Y-109878700D01*
X155177300Y-110303500D02*
X155602100Y-109878700D01*
X155177300Y-110904100D02*
X155177300Y-110303500D01*
X155803600Y-111530400D02*
X155177300Y-110904100D01*
X156346900Y-111530400D02*
X155803600Y-111530400D01*
X157601000Y-112784500D02*
X156346900Y-111530400D01*
X157601000Y-113128300D02*
X157601000Y-112784500D01*
X159274000Y-114801300D02*
X157601000Y-113128300D01*
X159274000Y-116997000D02*
X159274000Y-114801300D01*
D26*
%TO.N,/VCC*%
X119098500Y-84854000D02*
X119098500Y-86079100D01*
X118886200Y-86079100D02*
X119098500Y-86079100D01*
X117967000Y-86998300D02*
X118886200Y-86079100D01*
X117967000Y-88907900D02*
X117967000Y-86998300D01*
X118960000Y-89900900D02*
X117967000Y-88907900D01*
X119102000Y-89900900D02*
X118960000Y-89900900D01*
X119102000Y-91126000D02*
X119102000Y-89900900D01*
X119221000Y-97354000D02*
X119221000Y-96128900D01*
X164829000Y-109472000D02*
X163123900Y-109472000D01*
X147669000Y-109472000D02*
X149374100Y-109472000D01*
X119099000Y-96006900D02*
X119221000Y-96128900D01*
X119099000Y-94180000D02*
X119099000Y-96006900D01*
X119102000Y-92951900D02*
X119102000Y-91126000D01*
X119099000Y-92954900D02*
X119102000Y-92951900D01*
X119099000Y-94180000D02*
X119099000Y-92954900D01*
X119221000Y-97354000D02*
X119221000Y-97966500D01*
X119053900Y-126910800D02*
X119064000Y-126920900D01*
X119053900Y-119266000D02*
X119053900Y-126910800D01*
X119064000Y-130521000D02*
X119064000Y-126920900D01*
X121154000Y-119266000D02*
X119057800Y-119266000D01*
X119057800Y-119266000D02*
X119053900Y-119266000D01*
X121161000Y-116685000D02*
X119060900Y-116685000D01*
X119057800Y-116688100D02*
X119057800Y-119266000D01*
X119060900Y-116685000D02*
X119057800Y-116688100D01*
X119221000Y-97974000D02*
X119836200Y-98589200D01*
X119221000Y-97966500D02*
X119221000Y-97974000D01*
X127770900Y-98202200D02*
X130219100Y-100650400D01*
X124927100Y-98202200D02*
X127770900Y-98202200D01*
X124540100Y-98589200D02*
X124927100Y-98202200D01*
X119836200Y-98589200D02*
X124540100Y-98589200D01*
X118601900Y-116226000D02*
X119060900Y-116685000D01*
X118601900Y-99823500D02*
X118601900Y-116226000D01*
X119836200Y-98589200D02*
X118601900Y-99823500D01*
X149414000Y-87821000D02*
X150999100Y-87821000D01*
X151087600Y-87909500D02*
X151148800Y-87909500D01*
X150999100Y-87821000D02*
X151087600Y-87909500D01*
X149507000Y-109339100D02*
X149374100Y-109472000D01*
X149507000Y-109332400D02*
X149507000Y-109339100D01*
X159165400Y-108721000D02*
X159050000Y-108605600D01*
X159938100Y-108721000D02*
X159165400Y-108721000D01*
X160689100Y-109472000D02*
X159938100Y-108721000D01*
X163123900Y-109472000D02*
X160689100Y-109472000D01*
D25*
%TO.N,/WE_Internal*%
X149414000Y-89098000D02*
X150849100Y-89098000D01*
X121154000Y-115457000D02*
X119203900Y-115457000D01*
X119203900Y-108591400D02*
X119203900Y-115457000D01*
X119426700Y-108368600D02*
X119203900Y-108591400D01*
X123518000Y-108368600D02*
X119426700Y-108368600D01*
X125953600Y-105933000D02*
X123518000Y-108368600D01*
X126691000Y-105933000D02*
X125953600Y-105933000D01*
X128346800Y-104277200D02*
X126691000Y-105933000D01*
X128346800Y-102665700D02*
X128346800Y-104277200D01*
X153272900Y-96002300D02*
X153917400Y-96646800D01*
X152797300Y-96002300D02*
X153272900Y-96002300D01*
X152108900Y-95313900D02*
X152797300Y-96002300D01*
X152108900Y-90357800D02*
X152108900Y-95313900D01*
X150849100Y-89098000D02*
X152108900Y-90357800D01*
X157243000Y-116997000D02*
X157243000Y-115441900D01*
X156880500Y-115441900D02*
X157243000Y-115441900D01*
X154528600Y-113090000D02*
X156880500Y-115441900D01*
X154528600Y-109679000D02*
X154528600Y-113090000D01*
X155394400Y-108813200D02*
X154528600Y-109679000D01*
X155394400Y-105641600D02*
X155394400Y-108813200D01*
X154734200Y-104981400D02*
X155394400Y-105641600D01*
X154734200Y-97463600D02*
X154734200Y-104981400D01*
X153917400Y-96646800D02*
X154734200Y-97463600D01*
%TO.N,/A14_Internal*%
X153721500Y-106444400D02*
X154094000Y-106816900D01*
X153721500Y-97476200D02*
X153721500Y-106444400D01*
X152697700Y-96452400D02*
X153721500Y-97476200D01*
X152610800Y-96452400D02*
X152697700Y-96452400D01*
X151658800Y-95500400D02*
X152610800Y-96452400D01*
X151658800Y-90736100D02*
X151658800Y-95500400D01*
X150658500Y-89735800D02*
X151658800Y-90736100D01*
X148132600Y-89735800D02*
X150658500Y-89735800D01*
X147680900Y-90187500D02*
X148132600Y-89735800D01*
X147680900Y-92096100D02*
X147680900Y-90187500D01*
X147511000Y-92266000D02*
X147680900Y-92096100D01*
X136488800Y-117992300D02*
X136488800Y-118220900D01*
X135183500Y-116687000D02*
X136488800Y-117992300D01*
X133026000Y-116687000D02*
X135183500Y-116687000D01*
X162798200Y-103896300D02*
X163273900Y-104372000D01*
X162382200Y-103896300D02*
X162798200Y-103896300D01*
X164829000Y-104372000D02*
X163273900Y-104372000D01*
%TO.N,/A13_Internal*%
X146230700Y-90826600D02*
X146239000Y-90834900D01*
X146230700Y-90214600D02*
X146230700Y-90826600D01*
X147975800Y-88469500D02*
X146230700Y-90214600D01*
X147975800Y-83540500D02*
X147975800Y-88469500D01*
X148191900Y-83324400D02*
X147975800Y-83540500D01*
X150709100Y-83324400D02*
X148191900Y-83324400D01*
X163265400Y-95880700D02*
X150709100Y-83324400D01*
X163265400Y-101263700D02*
X163265400Y-95880700D01*
X162815300Y-101713800D02*
X163265400Y-101263700D01*
X162815300Y-102893400D02*
X162815300Y-101713800D01*
X163273900Y-103352000D02*
X162815300Y-102893400D01*
X146239000Y-92270000D02*
X146239000Y-90834900D01*
X146239000Y-92270000D02*
X146239000Y-93705100D01*
X125998100Y-109736400D02*
X128160400Y-107574100D01*
X125998100Y-112816700D02*
X125998100Y-109736400D01*
X124671800Y-114143000D02*
X125998100Y-112816700D01*
X121154000Y-114143000D02*
X124671800Y-114143000D01*
X164829000Y-103352000D02*
X163273900Y-103352000D01*
X146132300Y-93811800D02*
X146132300Y-95378400D01*
X146239000Y-93705100D02*
X146132300Y-93811800D01*
%TO.N,/A8*%
X138817300Y-130396000D02*
X138817300Y-127070900D01*
X138817300Y-116459900D02*
X138817300Y-127070900D01*
X139461000Y-115816200D02*
X138817300Y-116459900D01*
X139461000Y-115816200D02*
X139178400Y-115533600D01*
X145730600Y-112532000D02*
X147669000Y-112532000D01*
X143591800Y-114670800D02*
X145730600Y-112532000D01*
X140606400Y-114670800D02*
X143591800Y-114670800D01*
X139461000Y-115816200D02*
X140606400Y-114670800D01*
X144932000Y-99815600D02*
X144932000Y-92268000D01*
X146877000Y-77863000D02*
X146529000Y-77515000D01*
X146877000Y-82915900D02*
X146877000Y-77863000D01*
X147042400Y-83081300D02*
X146877000Y-82915900D01*
X147042400Y-88129500D02*
X147042400Y-83081300D01*
X144932000Y-90239900D02*
X147042400Y-88129500D01*
X144932000Y-92268000D02*
X144932000Y-90239900D01*
X121158000Y-112835000D02*
X124910500Y-112835000D01*
X149224100Y-112303000D02*
X151158400Y-110368700D01*
X149224100Y-112532000D02*
X149224100Y-112303000D01*
X147669000Y-112532000D02*
X149224100Y-112532000D01*
%TO.N,/A9*%
X143700000Y-92269000D02*
X143700000Y-90833900D01*
X147669000Y-113552000D02*
X149224100Y-113552000D01*
X147669000Y-113552000D02*
X146113900Y-113552000D01*
X121158000Y-111567000D02*
X123108100Y-111567000D01*
X140317600Y-125673200D02*
X140317600Y-130396000D01*
X145513000Y-120477800D02*
X140317600Y-125673200D01*
X145513000Y-115119700D02*
X145513000Y-120477800D01*
X145112500Y-114719200D02*
X145513000Y-115119700D01*
X145112500Y-114047400D02*
X145112500Y-114719200D01*
X145607900Y-113552000D02*
X145112500Y-114047400D01*
X146113900Y-113552000D02*
X145607900Y-113552000D01*
X149610300Y-113445500D02*
X149610300Y-113445400D01*
X149330600Y-113445500D02*
X149610300Y-113445500D01*
X149224100Y-113552000D02*
X149330600Y-113445500D01*
X144153500Y-94157600D02*
X143700000Y-93704100D01*
X144153500Y-98374900D02*
X144153500Y-94157600D01*
X143700000Y-92269000D02*
X143700000Y-93704100D01*
X145099000Y-77798500D02*
X145099000Y-75967000D01*
X145592200Y-78291700D02*
X145099000Y-77798500D01*
X145592200Y-88941700D02*
X145592200Y-78291700D01*
X143700000Y-90833900D02*
X145592200Y-88941700D01*
X136356200Y-104499500D02*
X136829500Y-104026200D01*
X130484900Y-104499500D02*
X136356200Y-104499500D01*
X129466300Y-105518100D02*
X130484900Y-104499500D01*
X129157000Y-105518100D02*
X129466300Y-105518100D01*
X123108100Y-111567000D02*
X129157000Y-105518100D01*
%TO.N,/A11*%
X150201000Y-116997000D02*
X150201000Y-118552100D01*
X143318100Y-125435000D02*
X150201000Y-118552100D01*
X143318100Y-130396000D02*
X143318100Y-125435000D01*
X150201000Y-116997000D02*
X150201000Y-115441900D01*
X150201000Y-115441900D02*
X150201000Y-114583400D01*
X142428000Y-92986500D02*
X142428000Y-93704100D01*
X142428000Y-92986500D02*
X142428000Y-92269000D01*
X129166000Y-104872400D02*
X129166000Y-104793000D01*
X123744400Y-110294000D02*
X129166000Y-104872400D01*
X121154000Y-110294000D02*
X123744400Y-110294000D01*
X142428000Y-97792500D02*
X142561900Y-97926400D01*
X142428000Y-93704100D02*
X142428000Y-97792500D01*
X142082000Y-77898400D02*
X142082000Y-75927300D01*
X140533800Y-79446600D02*
X142082000Y-77898400D01*
X140533800Y-82818500D02*
X140533800Y-79446600D01*
X142788200Y-85072900D02*
X140533800Y-82818500D01*
X142840100Y-85072900D02*
X142788200Y-85072900D01*
X143264800Y-85497600D02*
X142840100Y-85072900D01*
X143264800Y-87770800D02*
X143264800Y-85497600D01*
X142428000Y-88607600D02*
X143264800Y-87770800D01*
X142428000Y-92269000D02*
X142428000Y-88607600D01*
%TO.N,/EEPROM_OE*%
X160293000Y-116997000D02*
X160293000Y-115441900D01*
X141126000Y-93737100D02*
X141126000Y-99145500D01*
X141159000Y-93704100D02*
X141126000Y-93737100D01*
X141159000Y-92269000D02*
X141159000Y-93704100D01*
X156150200Y-110603800D02*
X155902400Y-110603800D01*
X158051100Y-112504700D02*
X156150200Y-110603800D01*
X158051100Y-112941800D02*
X158051100Y-112504700D01*
X160293000Y-115183700D02*
X158051100Y-112941800D01*
X160293000Y-115441900D02*
X160293000Y-115183700D01*
%TO.N,/A10*%
X147669000Y-114572000D02*
X146113900Y-114572000D01*
X146113900Y-121013500D02*
X146113900Y-114572000D01*
X141817900Y-125309500D02*
X146113900Y-121013500D01*
X141817900Y-127070900D02*
X141817900Y-125309500D01*
X141817900Y-130396000D02*
X141817900Y-127070900D01*
X139854000Y-92986500D02*
X139854000Y-93704100D01*
X145889600Y-114347700D02*
X145837600Y-114347700D01*
X146113900Y-114572000D02*
X145889600Y-114347700D01*
X139854000Y-103071100D02*
X139854000Y-93704100D01*
X137528800Y-105396300D02*
X139854000Y-103071100D01*
X123535000Y-107715000D02*
X121154000Y-107715000D01*
X127262300Y-103987700D02*
X123535000Y-107715000D01*
X127603400Y-103987700D02*
X127262300Y-103987700D01*
X139854000Y-92986500D02*
X139854000Y-92269000D01*
X140570000Y-86523800D02*
X140118600Y-86523800D01*
X141285600Y-87239400D02*
X140570000Y-86523800D01*
X141285600Y-87840200D02*
X141285600Y-87239400D01*
X140479200Y-88646600D02*
X141285600Y-87840200D01*
X140333700Y-88646600D02*
X140479200Y-88646600D01*
X139854000Y-89126300D02*
X140333700Y-88646600D01*
X139854000Y-92269000D02*
X139854000Y-89126300D01*
%TO.N,/EEPROM_CE*%
X159048500Y-118552100D02*
X161309000Y-118552100D01*
X158764000Y-118267600D02*
X159048500Y-118552100D01*
X158764000Y-114927900D02*
X158764000Y-118267600D01*
X157150900Y-113314800D02*
X158764000Y-114927900D01*
X157150900Y-112987000D02*
X157150900Y-113314800D01*
X156741200Y-112577300D02*
X157150900Y-112987000D01*
X155493200Y-112577300D02*
X156741200Y-112577300D01*
X155294100Y-112776400D02*
X155493200Y-112577300D01*
X161309000Y-116997000D02*
X161309000Y-118552100D01*
X138582000Y-101543300D02*
X137557400Y-102567900D01*
X138582000Y-92268000D02*
X138582000Y-101543300D01*
%TO.N,/D7*%
X137310000Y-92268000D02*
X137310000Y-93703100D01*
X123437000Y-105135000D02*
X123453200Y-105151200D01*
X121154000Y-105135000D02*
X123437000Y-105135000D01*
X137313300Y-93706400D02*
X137313300Y-96276100D01*
X137310000Y-93703100D02*
X137313300Y-93706400D01*
X152236000Y-97717200D02*
X152236000Y-99747000D01*
X160975400Y-127070900D02*
X161321200Y-127070900D01*
X160673700Y-126769200D02*
X160975400Y-127070900D01*
X161321200Y-130396000D02*
X161321200Y-127070900D01*
X136141700Y-91099700D02*
X137310000Y-92268000D01*
X133563700Y-91099700D02*
X136141700Y-91099700D01*
X124022000Y-81558000D02*
X133563700Y-91099700D01*
X124022000Y-75965000D02*
X124022000Y-81558000D01*
%TO.N,/D6*%
X121154000Y-103865000D02*
X123104100Y-103865000D01*
X135404000Y-90362000D02*
X133968900Y-90362000D01*
X133930800Y-90362000D02*
X133968900Y-90362000D01*
X133664200Y-90095400D02*
X133930800Y-90362000D01*
X123104100Y-103657300D02*
X123104100Y-103865000D01*
X123603000Y-103158400D02*
X123104100Y-103657300D01*
X124014300Y-103158400D02*
X123603000Y-103158400D01*
X125836300Y-101336400D02*
X124014300Y-103158400D01*
X125836300Y-99085900D02*
X125836300Y-101336400D01*
X133196000Y-90095400D02*
X133664200Y-90095400D01*
X125492000Y-82391400D02*
X133196000Y-90095400D01*
X125492000Y-77513000D02*
X125492000Y-82391400D01*
X153233800Y-101321900D02*
X153214000Y-101302100D01*
X153233800Y-113990700D02*
X153233800Y-101321900D01*
X154737500Y-115494400D02*
X153233800Y-113990700D01*
X154737500Y-118796400D02*
X154737500Y-115494400D01*
X159821000Y-123879900D02*
X154737500Y-118796400D01*
X159821000Y-130396000D02*
X159821000Y-123879900D01*
X153214000Y-99747000D02*
X153214000Y-101302100D01*
X153214000Y-97650200D02*
X153214000Y-99747000D01*
X152466400Y-96902600D02*
X153214000Y-97650200D01*
X151229700Y-96902600D02*
X152466400Y-96902600D01*
X149595200Y-95268100D02*
X151229700Y-96902600D01*
%TO.N,/D5*%
X135404000Y-89093000D02*
X133968900Y-89093000D01*
X121154000Y-102593000D02*
X119203900Y-102593000D01*
X158320700Y-130396000D02*
X158320700Y-125484600D01*
X154229000Y-99747000D02*
X154229000Y-101302100D01*
X154229000Y-105501600D02*
X154229000Y-101302100D01*
X154669300Y-105941900D02*
X154229000Y-105501600D01*
X119203900Y-104366200D02*
X119203900Y-102593000D01*
X119337700Y-104500000D02*
X119203900Y-104366200D01*
X123079000Y-104500000D02*
X119337700Y-104500000D01*
X123152900Y-104426100D02*
X123079000Y-104500000D01*
X123360700Y-104426100D02*
X123152900Y-104426100D01*
X123903300Y-103883500D02*
X123360700Y-104426100D01*
X132830200Y-89093000D02*
X133968900Y-89093000D01*
X126996000Y-83258800D02*
X132830200Y-89093000D01*
X126996000Y-75964000D02*
X126996000Y-83258800D01*
%TO.N,/D4*%
X135404000Y-87782000D02*
X133968900Y-87782000D01*
X121154000Y-101284000D02*
X123104100Y-101284000D01*
X155246000Y-99747000D02*
X155246000Y-101302100D01*
X123565200Y-101745100D02*
X124402100Y-101745100D01*
X123104100Y-101284000D02*
X123565200Y-101745100D01*
X156820400Y-121997900D02*
X154223700Y-119401200D01*
X156820400Y-130396000D02*
X156820400Y-121997900D01*
X132155800Y-87782000D02*
X133968900Y-87782000D01*
X128507000Y-84133200D02*
X132155800Y-87782000D01*
X128507000Y-77516000D02*
X128507000Y-84133200D01*
X158776200Y-111444500D02*
X158776200Y-112641600D01*
X158077900Y-110746200D02*
X158776200Y-111444500D01*
X158077900Y-109719900D02*
X158077900Y-110746200D01*
X156579500Y-108221500D02*
X158077900Y-109719900D01*
X156579500Y-106190000D02*
X156579500Y-108221500D01*
X155246000Y-104856500D02*
X156579500Y-106190000D01*
X155246000Y-101302100D02*
X155246000Y-104856500D01*
%TO.N,/D3*%
X121154000Y-100052000D02*
X123104100Y-100052000D01*
X123797000Y-100744900D02*
X124852200Y-100744900D01*
X123104100Y-100052000D02*
X123797000Y-100744900D01*
X131525400Y-86515000D02*
X135404000Y-86515000D01*
X129689500Y-84679100D02*
X131525400Y-86515000D01*
X129689500Y-76254500D02*
X129689500Y-84679100D01*
X130018000Y-75926000D02*
X129689500Y-76254500D01*
X157243000Y-104193900D02*
X157243000Y-99747000D01*
X158054700Y-105005600D02*
X157243000Y-104193900D01*
X158054700Y-106274200D02*
X158054700Y-105005600D01*
X155320200Y-122084300D02*
X155320200Y-130396000D01*
X153181600Y-119945700D02*
X155320200Y-122084300D01*
%TO.N,/D2*%
X131484000Y-81487100D02*
X133970900Y-83974000D01*
X131484000Y-77514000D02*
X131484000Y-81487100D01*
X135406000Y-83974000D02*
X133970900Y-83974000D01*
X158254000Y-99747000D02*
X158254000Y-101302100D01*
X133020000Y-101289000D02*
X134970100Y-101289000D01*
X158607800Y-101655900D02*
X158607800Y-102835200D01*
X158254000Y-101302100D02*
X158607800Y-101655900D01*
X158254000Y-99747000D02*
X158254000Y-98191900D01*
X155338500Y-95276400D02*
X154821500Y-95276400D01*
X158254000Y-98191900D02*
X155338500Y-95276400D01*
X153819900Y-130396000D02*
X153819900Y-125171400D01*
X135206600Y-93064900D02*
X134712100Y-92570400D01*
X135206600Y-101052500D02*
X135206600Y-93064900D01*
X134970100Y-101289000D02*
X135206600Y-101052500D01*
%TO.N,/D1*%
X159274000Y-99747000D02*
X159274000Y-101302100D01*
X159140500Y-98191900D02*
X159274000Y-98191900D01*
X154852800Y-93904200D02*
X159140500Y-98191900D01*
X159274000Y-99747000D02*
X159274000Y-98191900D01*
X152319700Y-130396000D02*
X152319700Y-124152200D01*
X133033200Y-81729300D02*
X133968900Y-82665000D01*
X133033200Y-75927300D02*
X133033200Y-81729300D01*
X135404000Y-82665000D02*
X133968900Y-82665000D01*
X160756300Y-106028700D02*
X161193400Y-106028700D01*
X159601000Y-104873400D02*
X160756300Y-106028700D01*
X159601000Y-101629100D02*
X159601000Y-104873400D01*
X159274000Y-101302100D02*
X159601000Y-101629100D01*
X135432100Y-102598000D02*
X133024000Y-102598000D01*
X137288800Y-100741300D02*
X135432100Y-102598000D01*
X137288800Y-98570200D02*
X137288800Y-100741300D01*
X136127000Y-97408400D02*
X137288800Y-98570200D01*
X136127000Y-92447600D02*
X136127000Y-97408400D01*
%TO.N,/D0*%
X136394900Y-79324900D02*
X134584000Y-77514000D01*
X137309000Y-79324900D02*
X136394900Y-79324900D01*
X137309000Y-80760000D02*
X137309000Y-79324900D01*
X160293000Y-98038500D02*
X160293000Y-99747000D01*
X154840600Y-92586100D02*
X160293000Y-98038500D01*
X160293000Y-104507600D02*
X160326100Y-104540700D01*
X160293000Y-99747000D02*
X160293000Y-104507600D01*
X150819400Y-130396000D02*
X150819400Y-123949800D01*
X133024000Y-103862000D02*
X134974100Y-103862000D01*
X137309000Y-80760000D02*
X137309000Y-82195100D01*
X137935200Y-82821300D02*
X137309000Y-82195100D01*
X137935200Y-94763900D02*
X137935200Y-82821300D01*
X138046000Y-94874700D02*
X137935200Y-94763900D01*
X138046000Y-100790100D02*
X138046000Y-94874700D01*
X134974100Y-103862000D02*
X138046000Y-100790100D01*
%TO.N,/A0*%
X133024000Y-105137000D02*
X134974100Y-105137000D01*
X126815300Y-130396000D02*
X126815300Y-127070900D01*
X133024000Y-105137000D02*
X131073900Y-105137000D01*
X147669000Y-102332000D02*
X146113900Y-102332000D01*
X129358700Y-106852200D02*
X131073900Y-105137000D01*
X129358700Y-108005800D02*
X129358700Y-106852200D01*
X128279100Y-109085400D02*
X129358700Y-108005800D01*
X128279100Y-125607100D02*
X128279100Y-109085400D01*
X126815300Y-127070900D02*
X128279100Y-125607100D01*
X134974100Y-105137000D02*
X136744100Y-105137000D01*
X138581000Y-80760000D02*
X138581000Y-82195100D01*
X144084000Y-102332000D02*
X146113900Y-102332000D01*
X140294600Y-106121400D02*
X144084000Y-102332000D01*
X137228500Y-106121400D02*
X140294600Y-106121400D01*
X136744100Y-105637000D02*
X137228500Y-106121400D01*
X136744100Y-105137000D02*
X136744100Y-105637000D01*
X139218100Y-87539800D02*
X140560500Y-87539800D01*
X139218100Y-102663000D02*
X139218100Y-87539800D01*
X136744100Y-105137000D02*
X139218100Y-102663000D01*
X139218100Y-82832200D02*
X138581000Y-82195100D01*
X139218100Y-87539800D02*
X139218100Y-82832200D01*
%TO.N,/A1*%
X133999100Y-106401000D02*
X134974100Y-106401000D01*
X133999100Y-106401000D02*
X133024000Y-106401000D01*
X128315500Y-130396000D02*
X128315500Y-127070900D01*
X147669000Y-103352000D02*
X149224100Y-103352000D01*
X133024000Y-106401000D02*
X131073900Y-106401000D01*
X131073900Y-106927200D02*
X131073900Y-106401000D01*
X128729300Y-109271800D02*
X131073900Y-106927200D01*
X128729300Y-126657100D02*
X128729300Y-109271800D01*
X128315500Y-127070900D02*
X128729300Y-126657100D01*
X147669000Y-103352000D02*
X146113900Y-103352000D01*
X139849000Y-80763000D02*
X139849000Y-82198100D01*
X143874100Y-103352000D02*
X146113900Y-103352000D01*
X140654600Y-106571500D02*
X143874100Y-103352000D01*
X135144600Y-106571500D02*
X140654600Y-106571500D01*
X134974100Y-106401000D02*
X135144600Y-106571500D01*
X139849000Y-83541100D02*
X139849000Y-82198100D01*
X142105900Y-85798000D02*
X139849000Y-83541100D01*
X141735700Y-86168200D02*
X142105900Y-85798000D01*
X141735700Y-88026700D02*
X141735700Y-86168200D01*
X140479200Y-89283200D02*
X141735700Y-88026700D01*
X140479200Y-98235300D02*
X140479200Y-89283200D01*
X140382800Y-98331700D02*
X140479200Y-98235300D01*
X140382800Y-99451200D02*
X140382800Y-98331700D01*
X142733300Y-101801700D02*
X140382800Y-99451200D01*
X148925700Y-101801700D02*
X142733300Y-101801700D01*
X149224100Y-102100100D02*
X148925700Y-101801700D01*
X149224100Y-103352000D02*
X149224100Y-102100100D01*
X142105900Y-85798000D02*
X142539700Y-85798000D01*
%TO.N,/A2*%
X129815800Y-130396000D02*
X129815800Y-127070900D01*
X132049000Y-107717000D02*
X131073900Y-107717000D01*
X132049000Y-107717000D02*
X133024000Y-107717000D01*
X133024000Y-107717000D02*
X134974100Y-107717000D01*
X129185900Y-126441000D02*
X129815800Y-127070900D01*
X129185900Y-109605000D02*
X129185900Y-126441000D01*
X131073900Y-107717000D02*
X129185900Y-109605000D01*
X146891500Y-104372000D02*
X146113900Y-104372000D01*
X144933700Y-104372000D02*
X146113900Y-104372000D01*
X141588700Y-107717000D02*
X144933700Y-104372000D01*
X134974100Y-107717000D02*
X141588700Y-107717000D01*
X141159000Y-80758000D02*
X141159000Y-82193100D01*
X146891500Y-104372000D02*
X147669000Y-104372000D01*
X147669000Y-104372000D02*
X149224100Y-104372000D01*
X143714900Y-85093200D02*
X143586300Y-84964600D01*
X143714900Y-87957300D02*
X143714900Y-85093200D01*
X143067500Y-88604700D02*
X143714900Y-87957300D01*
X143067500Y-96179000D02*
X143067500Y-88604700D01*
X143428400Y-96539900D02*
X143067500Y-96179000D01*
X143428400Y-99359400D02*
X143428400Y-96539900D01*
X144609700Y-100540700D02*
X143428400Y-99359400D01*
X148365200Y-100540700D02*
X144609700Y-100540700D01*
X149674700Y-101850200D02*
X148365200Y-100540700D01*
X149674700Y-103921400D02*
X149674700Y-101850200D01*
X149224100Y-104372000D02*
X149674700Y-103921400D01*
X143244500Y-84622800D02*
X143586300Y-84964600D01*
X142974600Y-84622800D02*
X143244500Y-84622800D01*
X141159000Y-82807200D02*
X142974600Y-84622800D01*
X141159000Y-82193100D02*
X141159000Y-82807200D01*
X143586300Y-84964600D02*
X143671900Y-84879000D01*
%TO.N,/A3*%
X131316000Y-130396000D02*
X131316000Y-127070900D01*
X132049000Y-109024000D02*
X131073900Y-109024000D01*
X132049000Y-109024000D02*
X133024000Y-109024000D01*
X133024000Y-109024000D02*
X134974100Y-109024000D01*
X147669000Y-105392000D02*
X149224100Y-105392000D01*
X140918300Y-109024000D02*
X134974100Y-109024000D01*
X144550300Y-105392000D02*
X140918300Y-109024000D01*
X147669000Y-105392000D02*
X144550300Y-105392000D01*
X129660800Y-125415700D02*
X131316000Y-127070900D01*
X129660800Y-110437100D02*
X129660800Y-125415700D01*
X131073900Y-109024000D02*
X129660800Y-110437100D01*
X154111000Y-80555800D02*
X154111000Y-75969000D01*
X159155700Y-85600500D02*
X154111000Y-80555800D01*
X159155700Y-87224000D02*
X159155700Y-85600500D01*
X158875900Y-87503800D02*
X159155700Y-87224000D01*
X149224100Y-105716300D02*
X149466400Y-105958600D01*
X149224100Y-105392000D02*
X149224100Y-105716300D01*
X142435000Y-80758000D02*
X142435000Y-82193100D01*
X143124600Y-82882700D02*
X143124600Y-83747400D01*
X142435000Y-82193100D02*
X143124600Y-82882700D01*
%TO.N,/A4*%
X146891500Y-106412000D02*
X146113900Y-106412000D01*
X140673600Y-110294000D02*
X133024000Y-110294000D01*
X144555600Y-106412000D02*
X140673600Y-110294000D01*
X146113900Y-106412000D02*
X144555600Y-106412000D01*
X132816300Y-126206200D02*
X132816300Y-130396000D01*
X130147800Y-123537700D02*
X132816300Y-126206200D01*
X130147800Y-111220100D02*
X130147800Y-123537700D01*
X131073900Y-110294000D02*
X130147800Y-111220100D01*
X133024000Y-110294000D02*
X131073900Y-110294000D01*
X152599000Y-80122700D02*
X152599000Y-77517000D01*
X158430600Y-85954300D02*
X152599000Y-80122700D01*
X146891500Y-106412000D02*
X147669000Y-106412000D01*
X147970700Y-106713700D02*
X150134700Y-106713700D01*
X147669000Y-106412000D02*
X147970700Y-106713700D01*
X143735000Y-82193100D02*
X143699000Y-82193100D01*
X144320900Y-82779000D02*
X143735000Y-82193100D01*
X143699000Y-80758000D02*
X143699000Y-82193100D01*
%TO.N,/A5*%
X147669000Y-107432000D02*
X145829300Y-107432000D01*
X145829300Y-107432000D02*
X145829300Y-107148400D01*
X144931000Y-80760000D02*
X144931000Y-82195100D01*
X141698300Y-111563000D02*
X133020000Y-111563000D01*
X145829300Y-107432000D02*
X141698300Y-111563000D01*
X134316600Y-126319800D02*
X134316600Y-130396000D01*
X130618600Y-122621800D02*
X134316600Y-126319800D01*
X130618600Y-112014300D02*
X130618600Y-122621800D01*
X131069900Y-111563000D02*
X130618600Y-112014300D01*
X133020000Y-111563000D02*
X131069900Y-111563000D01*
X142460900Y-87938100D02*
X142460900Y-87074800D01*
X141784200Y-88614800D02*
X142460900Y-87938100D01*
X141784200Y-98174100D02*
X141784200Y-88614800D01*
X142092500Y-98482400D02*
X141784200Y-98174100D01*
X142092500Y-99770800D02*
X142092500Y-98482400D01*
X145046000Y-82310100D02*
X144931000Y-82195100D01*
X145046000Y-85933500D02*
X145046000Y-82310100D01*
X144456400Y-86523100D02*
X145046000Y-85933500D01*
%TO.N,/A6*%
X147424200Y-110492000D02*
X146113900Y-110492000D01*
X147424200Y-110492000D02*
X147669000Y-110492000D01*
X147669000Y-110492000D02*
X149224100Y-110492000D01*
X143774900Y-112831000D02*
X134977100Y-112831000D01*
X146113900Y-110492000D02*
X143774900Y-112831000D01*
X133500700Y-112831000D02*
X134977100Y-112831000D01*
X133500700Y-112831000D02*
X133027000Y-112831000D01*
X133027000Y-112831000D02*
X131076900Y-112831000D01*
X149583000Y-79267800D02*
X149583000Y-77517000D01*
X160960500Y-90645300D02*
X149583000Y-79267800D01*
X160960500Y-91702700D02*
X160960500Y-90645300D01*
X146242000Y-80758000D02*
X146242000Y-82193100D01*
X146317300Y-82268400D02*
X146242000Y-82193100D01*
X146317300Y-87808300D02*
X146317300Y-82268400D01*
X131068800Y-112839100D02*
X131076900Y-112831000D01*
X131068800Y-120691200D02*
X131068800Y-112839100D01*
X135816800Y-125439200D02*
X131068800Y-120691200D01*
X135816800Y-130396000D02*
X135816800Y-125439200D01*
X150528700Y-109336400D02*
X150528700Y-107868300D01*
X149373100Y-110492000D02*
X150528700Y-109336400D01*
X149224100Y-110492000D02*
X149373100Y-110492000D01*
%TO.N,/A7*%
X133019000Y-114144000D02*
X134969100Y-114144000D01*
X146891500Y-111512000D02*
X146113900Y-111512000D01*
X137317100Y-130396000D02*
X137317100Y-127070900D01*
X146891500Y-111512000D02*
X147669000Y-111512000D01*
X139182500Y-114069800D02*
X137664000Y-115588300D01*
X143556100Y-114069800D02*
X139182500Y-114069800D01*
X146113900Y-111512000D02*
X143556100Y-114069800D01*
X137664000Y-126724000D02*
X137664000Y-115588300D01*
X137317100Y-127070900D02*
X137664000Y-126724000D01*
X136219700Y-114144000D02*
X134969100Y-114144000D01*
X137664000Y-115588300D02*
X136219700Y-114144000D01*
X147512000Y-88296600D02*
X147512000Y-80763000D01*
X145613900Y-90194700D02*
X147512000Y-88296600D01*
X145613900Y-94193700D02*
X145613900Y-90194700D01*
X145407200Y-94400400D02*
X145613900Y-94193700D01*
X145407200Y-96946000D02*
X145407200Y-94400400D01*
X150565500Y-102104300D02*
X145407200Y-96946000D01*
X150565500Y-104966100D02*
X150565500Y-102104300D01*
X151253800Y-105654400D02*
X150565500Y-104966100D01*
X151253800Y-109247900D02*
X151253800Y-105654400D01*
X149224100Y-111277600D02*
X151253800Y-109247900D01*
X149224100Y-111512000D02*
X149224100Y-111277600D01*
X147669000Y-111512000D02*
X149224100Y-111512000D01*
X147399000Y-79214900D02*
X147512000Y-79327900D01*
X147399000Y-78452700D02*
X147399000Y-79214900D01*
X148076000Y-77775700D02*
X147399000Y-78452700D01*
X148076000Y-75968000D02*
X148076000Y-77775700D01*
X147512000Y-80763000D02*
X147512000Y-79327900D01*
%TO.N,/A12_Internal*%
X149414000Y-82659000D02*
X150849100Y-82659000D01*
X133022000Y-115458000D02*
X134972100Y-115458000D01*
X164019700Y-101550400D02*
X164019700Y-101550300D01*
X163846200Y-101550400D02*
X164019700Y-101550400D01*
X163273900Y-102122700D02*
X163846200Y-101550400D01*
X163273900Y-102332000D02*
X163273900Y-102122700D01*
X164829000Y-102332000D02*
X163273900Y-102332000D01*
X164019700Y-95829600D02*
X150849100Y-82659000D01*
X164019700Y-101550300D02*
X164019700Y-95829600D01*
X137213900Y-117699800D02*
X134972100Y-115458000D01*
X137213900Y-124945700D02*
X137213900Y-117699800D01*
X136574100Y-125585500D02*
X137213900Y-124945700D01*
%TO.N,/A15_Internal*%
X162405400Y-105392000D02*
X164829000Y-105392000D01*
X162070100Y-105056700D02*
X162405400Y-105392000D01*
X124580600Y-117991000D02*
X124931000Y-118341400D01*
X121158000Y-117991000D02*
X124580600Y-117991000D01*
X161657100Y-104643700D02*
X162070100Y-105056700D01*
X161657100Y-102187700D02*
X161657100Y-104643700D01*
X162815200Y-101029600D02*
X161657100Y-102187700D01*
X162815200Y-96529400D02*
X162815200Y-101029600D01*
X150262800Y-83977000D02*
X162815200Y-96529400D01*
X149414000Y-83977000D02*
X150262800Y-83977000D01*
%TO.N,/A16_Internal*%
X164829000Y-106412000D02*
X163273900Y-106412000D01*
X149411000Y-85204000D02*
X150846100Y-85204000D01*
X135104300Y-117992000D02*
X135266700Y-117829600D01*
X133021000Y-117992000D02*
X135104300Y-117992000D01*
X159282600Y-106789600D02*
X159282600Y-106789500D01*
X162896300Y-106789600D02*
X159282600Y-106789600D01*
X163273900Y-106412000D02*
X162896300Y-106789600D01*
X152559000Y-86916900D02*
X150846100Y-85204000D01*
X152559000Y-95127400D02*
X152559000Y-86916900D01*
X152983800Y-95552200D02*
X152559000Y-95127400D01*
X153919000Y-95552200D02*
X152983800Y-95552200D01*
X154521200Y-96154400D02*
X153919000Y-95552200D01*
X155485900Y-96154400D02*
X154521200Y-96154400D01*
X157748500Y-98417000D02*
X155485900Y-96154400D01*
X157748500Y-103157400D02*
X157748500Y-98417000D01*
X159150900Y-104559800D02*
X157748500Y-103157400D01*
X159150900Y-106657900D02*
X159150900Y-104559800D01*
X159282600Y-106789500D02*
X159150900Y-106657900D01*
X159282600Y-106789500D02*
X159216800Y-106855300D01*
D26*
%TO.N,/GND*%
X133028000Y-100054000D02*
X130927900Y-100054000D01*
X122438000Y-97356000D02*
X122438000Y-96130900D01*
X164829000Y-108452000D02*
X163123900Y-108452000D01*
X122438000Y-97356000D02*
X123663100Y-97356000D01*
X166072000Y-130521000D02*
X166072000Y-126920900D01*
X156263000Y-99747000D02*
X156263000Y-101170700D01*
X147669000Y-108452000D02*
X149374100Y-108452000D01*
X156263000Y-116997000D02*
X156263000Y-118702100D01*
X128229900Y-97356000D02*
X123663100Y-97356000D01*
X130927900Y-100054000D02*
X128229900Y-97356000D01*
X119223000Y-87950000D02*
X120326300Y-87950000D01*
X120326300Y-87950000D02*
X120448100Y-87950000D01*
X119331300Y-82903100D02*
X119101500Y-82903100D01*
X120326300Y-83898100D02*
X119331300Y-82903100D01*
X120326300Y-87950000D02*
X120326300Y-83898100D01*
X119101500Y-81678000D02*
X119101500Y-82903100D01*
X119101500Y-81678000D02*
X119101500Y-80452900D01*
X156263000Y-104517700D02*
X156019600Y-104517700D01*
X156263000Y-101170700D02*
X156263000Y-104517700D01*
X130183200Y-74600800D02*
X131685000Y-73099000D01*
X120425200Y-74600800D02*
X130183200Y-74600800D01*
X119459000Y-75567000D02*
X120425200Y-74600800D01*
X119459000Y-77474000D02*
X119459000Y-75567000D01*
X166028200Y-118159200D02*
X164842500Y-116973500D01*
X166028200Y-118969600D02*
X166028200Y-118159200D01*
X165253700Y-119744100D02*
X166028200Y-118969600D01*
X166072000Y-120562400D02*
X165253700Y-119744100D01*
X166072000Y-126920900D02*
X166072000Y-120562400D01*
X157305000Y-119744100D02*
X156263000Y-118702100D01*
X165253700Y-119744100D02*
X157305000Y-119744100D01*
X122055200Y-96130900D02*
X122438000Y-96130900D01*
X120448100Y-94523800D02*
X122055200Y-96130900D01*
X120448100Y-87950000D02*
X120448100Y-94523800D01*
X119101500Y-77831500D02*
X119101500Y-80452900D01*
X119459000Y-77474000D02*
X119101500Y-77831500D01*
X131237800Y-85202000D02*
X135404000Y-85202000D01*
X130414600Y-84378800D02*
X131237800Y-85202000D01*
X157179600Y-106636600D02*
X158480600Y-107937500D01*
X157179600Y-105434300D02*
X157179600Y-106636600D01*
X156263000Y-104517700D02*
X157179600Y-105434300D01*
X158687600Y-107730500D02*
X158480600Y-107937500D01*
X159412500Y-107730500D02*
X158687600Y-107730500D01*
X159652900Y-107970900D02*
X159412500Y-107730500D01*
X160248800Y-107970900D02*
X159652900Y-107970900D01*
X160410800Y-108132900D02*
X160248800Y-107970900D01*
X160597400Y-108132900D02*
X160410800Y-108132900D01*
X160630200Y-108165700D02*
X160597400Y-108132900D01*
X161072000Y-108165700D02*
X160630200Y-108165700D01*
X161242100Y-108335800D02*
X161072000Y-108165700D01*
X163007700Y-108335800D02*
X161242100Y-108335800D01*
X163123900Y-108452000D02*
X163007700Y-108335800D01*
X161894700Y-114025700D02*
X164842500Y-116973500D01*
X161370100Y-114025700D02*
X161894700Y-114025700D01*
X160270500Y-112926100D02*
X161370100Y-114025700D01*
X160270500Y-112090100D02*
X160270500Y-112926100D01*
X158678000Y-110497600D02*
X160270500Y-112090100D01*
X158678000Y-109471300D02*
X158678000Y-110497600D01*
X158108800Y-108902100D02*
X158678000Y-109471300D01*
X158108800Y-108309300D02*
X158108800Y-108902100D01*
X158480600Y-107937500D02*
X158108800Y-108309300D01*
X149374100Y-108128800D02*
X149438400Y-108064500D01*
X149374100Y-108452000D02*
X149374100Y-108128800D01*
X152711600Y-74368200D02*
X148511800Y-70168400D01*
X166431500Y-74368200D02*
X152711600Y-74368200D01*
X167521200Y-75457900D02*
X166431500Y-74368200D01*
X167521200Y-114294800D02*
X167521200Y-75457900D01*
X164842500Y-116973500D02*
X167521200Y-114294800D01*
D25*
%TO.N,/Switch*%
X162286000Y-99747000D02*
X162286000Y-98191900D01*
X122316000Y-94182000D02*
X123391100Y-94182000D01*
X153284100Y-93059500D02*
X153284100Y-94827100D01*
X154503300Y-91840300D02*
X153284100Y-93059500D01*
X155934400Y-91840300D02*
X154503300Y-91840300D01*
X162286000Y-98191900D02*
X155934400Y-91840300D01*
X125096100Y-96290700D02*
X129604700Y-96290700D01*
X123391100Y-94585700D02*
X125096100Y-96290700D01*
X123391100Y-94182000D02*
X123391100Y-94585700D01*
X121048300Y-91839200D02*
X122316000Y-93106900D01*
X121048300Y-81270200D02*
X121048300Y-91839200D01*
X120012700Y-80234600D02*
X121048300Y-81270200D01*
X122316000Y-94182000D02*
X122316000Y-93106900D01*
%TD*%
M02*
