%TF.GenerationSoftware,KiCad,Pcbnew,(6.0.2)*%
%TF.CreationDate,2022-07-14T18:27:25-05:00*%
%TF.ProjectId,REF1222 Optimized,52454631-3232-4322-904f-7074696d697a,rev?*%
%TF.SameCoordinates,Original*%
%TF.FileFunction,Legend,Top*%
%TF.FilePolarity,Positive*%
%FSLAX46Y46*%
G04 Gerber Fmt 4.6, Leading zero omitted, Abs format (unit mm)*
G04 Created by KiCad (PCBNEW (6.0.2)) date 2022-07-14 18:27:25*
%MOMM*%
%LPD*%
G01*
G04 APERTURE LIST*
%ADD10C,0.150000*%
%ADD11C,0.125000*%
G04 APERTURE END LIST*
D10*
X153608333Y-111837666D02*
X154084523Y-111837666D01*
X153513095Y-112123380D02*
X153846428Y-111123380D01*
X154179761Y-112123380D01*
X155084523Y-112123380D02*
X154751190Y-111647190D01*
X154513095Y-112123380D02*
X154513095Y-111123380D01*
X154894047Y-111123380D01*
X154989285Y-111171000D01*
X155036904Y-111218619D01*
X155084523Y-111313857D01*
X155084523Y-111456714D01*
X155036904Y-111551952D01*
X154989285Y-111599571D01*
X154894047Y-111647190D01*
X154513095Y-111647190D01*
X156275000Y-112123380D02*
X156275000Y-111123380D01*
X156608333Y-111837666D01*
X156941666Y-111123380D01*
X156941666Y-112123380D01*
X157417857Y-112123380D02*
X157417857Y-111123380D01*
X157989285Y-112123380D02*
X157560714Y-111551952D01*
X157989285Y-111123380D02*
X157417857Y-111694809D01*
X158417857Y-112123380D02*
X158417857Y-111123380D01*
X158894047Y-112123380D02*
X158894047Y-111123380D01*
X151235190Y-112918380D02*
X151425666Y-112918380D01*
X151520904Y-112966000D01*
X151616142Y-113061238D01*
X151663761Y-113251714D01*
X151663761Y-113585047D01*
X151616142Y-113775523D01*
X151520904Y-113870761D01*
X151425666Y-113918380D01*
X151235190Y-113918380D01*
X151139952Y-113870761D01*
X151044714Y-113775523D01*
X150997095Y-113585047D01*
X150997095Y-113251714D01*
X151044714Y-113061238D01*
X151139952Y-112966000D01*
X151235190Y-112918380D01*
X152663761Y-113918380D02*
X152330428Y-113442190D01*
X152092333Y-113918380D02*
X152092333Y-112918380D01*
X152473285Y-112918380D01*
X152568523Y-112966000D01*
X152616142Y-113013619D01*
X152663761Y-113108857D01*
X152663761Y-113251714D01*
X152616142Y-113346952D01*
X152568523Y-113394571D01*
X152473285Y-113442190D01*
X152092333Y-113442190D01*
X153425666Y-113394571D02*
X153568523Y-113442190D01*
X153616142Y-113489809D01*
X153663761Y-113585047D01*
X153663761Y-113727904D01*
X153616142Y-113823142D01*
X153568523Y-113870761D01*
X153473285Y-113918380D01*
X153092333Y-113918380D01*
X153092333Y-112918380D01*
X153425666Y-112918380D01*
X153520904Y-112966000D01*
X153568523Y-113013619D01*
X153616142Y-113108857D01*
X153616142Y-113204095D01*
X153568523Y-113299333D01*
X153520904Y-113346952D01*
X153425666Y-113394571D01*
X153092333Y-113394571D01*
X154092333Y-113918380D02*
X154092333Y-112918380D01*
X154425666Y-112918380D02*
X154997095Y-112918380D01*
X154711380Y-113918380D02*
X154711380Y-112918380D01*
X156520904Y-112918380D02*
X156330428Y-112918380D01*
X156235190Y-112966000D01*
X156187571Y-113013619D01*
X156092333Y-113156476D01*
X156044714Y-113346952D01*
X156044714Y-113727904D01*
X156092333Y-113823142D01*
X156139952Y-113870761D01*
X156235190Y-113918380D01*
X156425666Y-113918380D01*
X156520904Y-113870761D01*
X156568523Y-113823142D01*
X156616142Y-113727904D01*
X156616142Y-113489809D01*
X156568523Y-113394571D01*
X156520904Y-113346952D01*
X156425666Y-113299333D01*
X156235190Y-113299333D01*
X156139952Y-113346952D01*
X156092333Y-113394571D01*
X156044714Y-113489809D01*
X157568523Y-113918380D02*
X156997095Y-113918380D01*
X157282809Y-113918380D02*
X157282809Y-112918380D01*
X157187571Y-113061238D01*
X157092333Y-113156476D01*
X156997095Y-113204095D01*
X157901857Y-112918380D02*
X158520904Y-112918380D01*
X158187571Y-113299333D01*
X158330428Y-113299333D01*
X158425666Y-113346952D01*
X158473285Y-113394571D01*
X158520904Y-113489809D01*
X158520904Y-113727904D01*
X158473285Y-113823142D01*
X158425666Y-113870761D01*
X158330428Y-113918380D01*
X158044714Y-113918380D01*
X157949476Y-113870761D01*
X157901857Y-113823142D01*
X159139952Y-112918380D02*
X159235190Y-112918380D01*
X159330428Y-112966000D01*
X159378047Y-113013619D01*
X159425666Y-113108857D01*
X159473285Y-113299333D01*
X159473285Y-113537428D01*
X159425666Y-113727904D01*
X159378047Y-113823142D01*
X159330428Y-113870761D01*
X159235190Y-113918380D01*
X159139952Y-113918380D01*
X159044714Y-113870761D01*
X158997095Y-113823142D01*
X158949476Y-113727904D01*
X158901857Y-113537428D01*
X158901857Y-113299333D01*
X158949476Y-113108857D01*
X158997095Y-113013619D01*
X159044714Y-112966000D01*
X159139952Y-112918380D01*
X160092333Y-112918380D02*
X160187571Y-112918380D01*
X160282809Y-112966000D01*
X160330428Y-113013619D01*
X160378047Y-113108857D01*
X160425666Y-113299333D01*
X160425666Y-113537428D01*
X160378047Y-113727904D01*
X160330428Y-113823142D01*
X160282809Y-113870761D01*
X160187571Y-113918380D01*
X160092333Y-113918380D01*
X159997095Y-113870761D01*
X159949476Y-113823142D01*
X159901857Y-113727904D01*
X159854238Y-113537428D01*
X159854238Y-113299333D01*
X159901857Y-113108857D01*
X159949476Y-113013619D01*
X159997095Y-112966000D01*
X160092333Y-112918380D01*
X160806619Y-113632666D02*
X161282809Y-113632666D01*
X160711380Y-113918380D02*
X161044714Y-112918380D01*
X161378047Y-113918380D01*
X149333857Y-102323428D02*
X150095761Y-102323428D01*
X151095761Y-102704380D02*
X150524333Y-102704380D01*
X150810047Y-102704380D02*
X150810047Y-101704380D01*
X150714809Y-101847238D01*
X150619571Y-101942476D01*
X150524333Y-101990095D01*
X129746666Y-119692380D02*
X129175238Y-119692380D01*
X129460952Y-119692380D02*
X129460952Y-118692380D01*
X129365714Y-118835238D01*
X129270476Y-118930476D01*
X129175238Y-118978095D01*
X130175238Y-119311428D02*
X130937142Y-119311428D01*
X151024857Y-86495428D02*
X151786761Y-86495428D01*
X152786761Y-86876380D02*
X152215333Y-86876380D01*
X152501047Y-86876380D02*
X152501047Y-85876380D01*
X152405809Y-86019238D01*
X152310571Y-86114476D01*
X152215333Y-86162095D01*
D11*
%TO.C,100k Ohm*%
X119116380Y-83817190D02*
X118830666Y-83817190D01*
X118973523Y-83817190D02*
X118973523Y-83317190D01*
X118925904Y-83388619D01*
X118878285Y-83436238D01*
X118830666Y-83460047D01*
X119425904Y-83317190D02*
X119473523Y-83317190D01*
X119521142Y-83341000D01*
X119544952Y-83364809D01*
X119568761Y-83412428D01*
X119592571Y-83507666D01*
X119592571Y-83626714D01*
X119568761Y-83721952D01*
X119544952Y-83769571D01*
X119521142Y-83793380D01*
X119473523Y-83817190D01*
X119425904Y-83817190D01*
X119378285Y-83793380D01*
X119354476Y-83769571D01*
X119330666Y-83721952D01*
X119306857Y-83626714D01*
X119306857Y-83507666D01*
X119330666Y-83412428D01*
X119354476Y-83364809D01*
X119378285Y-83341000D01*
X119425904Y-83317190D01*
X119902095Y-83317190D02*
X119949714Y-83317190D01*
X119997333Y-83341000D01*
X120021142Y-83364809D01*
X120044952Y-83412428D01*
X120068761Y-83507666D01*
X120068761Y-83626714D01*
X120044952Y-83721952D01*
X120021142Y-83769571D01*
X119997333Y-83793380D01*
X119949714Y-83817190D01*
X119902095Y-83817190D01*
X119854476Y-83793380D01*
X119830666Y-83769571D01*
X119806857Y-83721952D01*
X119783047Y-83626714D01*
X119783047Y-83507666D01*
X119806857Y-83412428D01*
X119830666Y-83364809D01*
X119854476Y-83341000D01*
X119902095Y-83317190D01*
X120283047Y-83817190D02*
X120283047Y-83317190D01*
X120330666Y-83626714D02*
X120473523Y-83817190D01*
X120473523Y-83483857D02*
X120283047Y-83674333D01*
X121164000Y-83317190D02*
X121259238Y-83317190D01*
X121306857Y-83341000D01*
X121354476Y-83388619D01*
X121378285Y-83483857D01*
X121378285Y-83650523D01*
X121354476Y-83745761D01*
X121306857Y-83793380D01*
X121259238Y-83817190D01*
X121164000Y-83817190D01*
X121116380Y-83793380D01*
X121068761Y-83745761D01*
X121044952Y-83650523D01*
X121044952Y-83483857D01*
X121068761Y-83388619D01*
X121116380Y-83341000D01*
X121164000Y-83317190D01*
X121592571Y-83817190D02*
X121592571Y-83317190D01*
X121806857Y-83817190D02*
X121806857Y-83555285D01*
X121783047Y-83507666D01*
X121735428Y-83483857D01*
X121664000Y-83483857D01*
X121616380Y-83507666D01*
X121592571Y-83531476D01*
X122044952Y-83817190D02*
X122044952Y-83483857D01*
X122044952Y-83531476D02*
X122068761Y-83507666D01*
X122116380Y-83483857D01*
X122187809Y-83483857D01*
X122235428Y-83507666D01*
X122259238Y-83555285D01*
X122259238Y-83817190D01*
X122259238Y-83555285D02*
X122283047Y-83507666D01*
X122330666Y-83483857D01*
X122402095Y-83483857D01*
X122449714Y-83507666D01*
X122473523Y-83555285D01*
X122473523Y-83817190D01*
%TO.C,100 nF*%
X119908714Y-86920190D02*
X119623000Y-86920190D01*
X119765857Y-86920190D02*
X119765857Y-86420190D01*
X119718238Y-86491619D01*
X119670619Y-86539238D01*
X119623000Y-86563047D01*
X120218238Y-86420190D02*
X120265857Y-86420190D01*
X120313476Y-86444000D01*
X120337285Y-86467809D01*
X120361095Y-86515428D01*
X120384904Y-86610666D01*
X120384904Y-86729714D01*
X120361095Y-86824952D01*
X120337285Y-86872571D01*
X120313476Y-86896380D01*
X120265857Y-86920190D01*
X120218238Y-86920190D01*
X120170619Y-86896380D01*
X120146809Y-86872571D01*
X120123000Y-86824952D01*
X120099190Y-86729714D01*
X120099190Y-86610666D01*
X120123000Y-86515428D01*
X120146809Y-86467809D01*
X120170619Y-86444000D01*
X120218238Y-86420190D01*
X120694428Y-86420190D02*
X120742047Y-86420190D01*
X120789666Y-86444000D01*
X120813476Y-86467809D01*
X120837285Y-86515428D01*
X120861095Y-86610666D01*
X120861095Y-86729714D01*
X120837285Y-86824952D01*
X120813476Y-86872571D01*
X120789666Y-86896380D01*
X120742047Y-86920190D01*
X120694428Y-86920190D01*
X120646809Y-86896380D01*
X120623000Y-86872571D01*
X120599190Y-86824952D01*
X120575380Y-86729714D01*
X120575380Y-86610666D01*
X120599190Y-86515428D01*
X120623000Y-86467809D01*
X120646809Y-86444000D01*
X120694428Y-86420190D01*
X121456333Y-86586857D02*
X121456333Y-86920190D01*
X121456333Y-86634476D02*
X121480142Y-86610666D01*
X121527761Y-86586857D01*
X121599190Y-86586857D01*
X121646809Y-86610666D01*
X121670619Y-86658285D01*
X121670619Y-86920190D01*
X122075380Y-86658285D02*
X121908714Y-86658285D01*
X121908714Y-86920190D02*
X121908714Y-86420190D01*
X122146809Y-86420190D01*
%TO.C,10k Ohm*%
X119313476Y-90105190D02*
X119027761Y-90105190D01*
X119170619Y-90105190D02*
X119170619Y-89605190D01*
X119123000Y-89676619D01*
X119075380Y-89724238D01*
X119027761Y-89748047D01*
X119623000Y-89605190D02*
X119670619Y-89605190D01*
X119718238Y-89629000D01*
X119742047Y-89652809D01*
X119765857Y-89700428D01*
X119789666Y-89795666D01*
X119789666Y-89914714D01*
X119765857Y-90009952D01*
X119742047Y-90057571D01*
X119718238Y-90081380D01*
X119670619Y-90105190D01*
X119623000Y-90105190D01*
X119575380Y-90081380D01*
X119551571Y-90057571D01*
X119527761Y-90009952D01*
X119503952Y-89914714D01*
X119503952Y-89795666D01*
X119527761Y-89700428D01*
X119551571Y-89652809D01*
X119575380Y-89629000D01*
X119623000Y-89605190D01*
X120003952Y-90105190D02*
X120003952Y-89605190D01*
X120051571Y-89914714D02*
X120194428Y-90105190D01*
X120194428Y-89771857D02*
X120003952Y-89962333D01*
X120884904Y-89605190D02*
X120980142Y-89605190D01*
X121027761Y-89629000D01*
X121075380Y-89676619D01*
X121099190Y-89771857D01*
X121099190Y-89938523D01*
X121075380Y-90033761D01*
X121027761Y-90081380D01*
X120980142Y-90105190D01*
X120884904Y-90105190D01*
X120837285Y-90081380D01*
X120789666Y-90033761D01*
X120765857Y-89938523D01*
X120765857Y-89771857D01*
X120789666Y-89676619D01*
X120837285Y-89629000D01*
X120884904Y-89605190D01*
X121313476Y-90105190D02*
X121313476Y-89605190D01*
X121527761Y-90105190D02*
X121527761Y-89843285D01*
X121503952Y-89795666D01*
X121456333Y-89771857D01*
X121384904Y-89771857D01*
X121337285Y-89795666D01*
X121313476Y-89819476D01*
X121765857Y-90105190D02*
X121765857Y-89771857D01*
X121765857Y-89819476D02*
X121789666Y-89795666D01*
X121837285Y-89771857D01*
X121908714Y-89771857D01*
X121956333Y-89795666D01*
X121980142Y-89843285D01*
X121980142Y-90105190D01*
X121980142Y-89843285D02*
X122003952Y-89795666D01*
X122051571Y-89771857D01*
X122123000Y-89771857D01*
X122170619Y-89795666D01*
X122194428Y-89843285D01*
X122194428Y-90105190D01*
%TO.C,250 nF*%
X119496000Y-80167809D02*
X119519809Y-80144000D01*
X119567428Y-80120190D01*
X119686476Y-80120190D01*
X119734095Y-80144000D01*
X119757904Y-80167809D01*
X119781714Y-80215428D01*
X119781714Y-80263047D01*
X119757904Y-80334476D01*
X119472190Y-80620190D01*
X119781714Y-80620190D01*
X120234095Y-80120190D02*
X119996000Y-80120190D01*
X119972190Y-80358285D01*
X119996000Y-80334476D01*
X120043619Y-80310666D01*
X120162666Y-80310666D01*
X120210285Y-80334476D01*
X120234095Y-80358285D01*
X120257904Y-80405904D01*
X120257904Y-80524952D01*
X120234095Y-80572571D01*
X120210285Y-80596380D01*
X120162666Y-80620190D01*
X120043619Y-80620190D01*
X119996000Y-80596380D01*
X119972190Y-80572571D01*
X120567428Y-80120190D02*
X120615047Y-80120190D01*
X120662666Y-80144000D01*
X120686476Y-80167809D01*
X120710285Y-80215428D01*
X120734095Y-80310666D01*
X120734095Y-80429714D01*
X120710285Y-80524952D01*
X120686476Y-80572571D01*
X120662666Y-80596380D01*
X120615047Y-80620190D01*
X120567428Y-80620190D01*
X120519809Y-80596380D01*
X120496000Y-80572571D01*
X120472190Y-80524952D01*
X120448380Y-80429714D01*
X120448380Y-80310666D01*
X120472190Y-80215428D01*
X120496000Y-80167809D01*
X120519809Y-80144000D01*
X120567428Y-80120190D01*
X121329333Y-80286857D02*
X121329333Y-80620190D01*
X121329333Y-80334476D02*
X121353142Y-80310666D01*
X121400761Y-80286857D01*
X121472190Y-80286857D01*
X121519809Y-80310666D01*
X121543619Y-80358285D01*
X121543619Y-80620190D01*
X121948380Y-80358285D02*
X121781714Y-80358285D01*
X121781714Y-80620190D02*
X121781714Y-80120190D01*
X122019809Y-80120190D01*
D10*
%TO.C,NM27C010V*%
X137781333Y-88515380D02*
X137781333Y-87515380D01*
X138352761Y-88515380D01*
X138352761Y-87515380D01*
X138828952Y-88515380D02*
X138828952Y-87515380D01*
X139162285Y-88229666D01*
X139495619Y-87515380D01*
X139495619Y-88515380D01*
X139924190Y-87610619D02*
X139971809Y-87563000D01*
X140067047Y-87515380D01*
X140305142Y-87515380D01*
X140400380Y-87563000D01*
X140448000Y-87610619D01*
X140495619Y-87705857D01*
X140495619Y-87801095D01*
X140448000Y-87943952D01*
X139876571Y-88515380D01*
X140495619Y-88515380D01*
X140828952Y-87515380D02*
X141495619Y-87515380D01*
X141067047Y-88515380D01*
X142448000Y-88420142D02*
X142400380Y-88467761D01*
X142257523Y-88515380D01*
X142162285Y-88515380D01*
X142019428Y-88467761D01*
X141924190Y-88372523D01*
X141876571Y-88277285D01*
X141828952Y-88086809D01*
X141828952Y-87943952D01*
X141876571Y-87753476D01*
X141924190Y-87658238D01*
X142019428Y-87563000D01*
X142162285Y-87515380D01*
X142257523Y-87515380D01*
X142400380Y-87563000D01*
X142448000Y-87610619D01*
X143067047Y-87515380D02*
X143162285Y-87515380D01*
X143257523Y-87563000D01*
X143305142Y-87610619D01*
X143352761Y-87705857D01*
X143400380Y-87896333D01*
X143400380Y-88134428D01*
X143352761Y-88324904D01*
X143305142Y-88420142D01*
X143257523Y-88467761D01*
X143162285Y-88515380D01*
X143067047Y-88515380D01*
X142971809Y-88467761D01*
X142924190Y-88420142D01*
X142876571Y-88324904D01*
X142828952Y-88134428D01*
X142828952Y-87896333D01*
X142876571Y-87705857D01*
X142924190Y-87610619D01*
X142971809Y-87563000D01*
X143067047Y-87515380D01*
X144352761Y-88515380D02*
X143781333Y-88515380D01*
X144067047Y-88515380D02*
X144067047Y-87515380D01*
X143971809Y-87658238D01*
X143876571Y-87753476D01*
X143781333Y-87801095D01*
X144971809Y-87515380D02*
X145067047Y-87515380D01*
X145162285Y-87563000D01*
X145209904Y-87610619D01*
X145257523Y-87705857D01*
X145305142Y-87896333D01*
X145305142Y-88134428D01*
X145257523Y-88324904D01*
X145209904Y-88420142D01*
X145162285Y-88467761D01*
X145067047Y-88515380D01*
X144971809Y-88515380D01*
X144876571Y-88467761D01*
X144828952Y-88420142D01*
X144781333Y-88324904D01*
X144733714Y-88134428D01*
X144733714Y-87896333D01*
X144781333Y-87705857D01*
X144828952Y-87610619D01*
X144876571Y-87563000D01*
X144971809Y-87515380D01*
X145590857Y-87515380D02*
X145924190Y-88515380D01*
X146257523Y-87515380D01*
D11*
%TO.C,100 nF*%
X119842714Y-96314190D02*
X119557000Y-96314190D01*
X119699857Y-96314190D02*
X119699857Y-95814190D01*
X119652238Y-95885619D01*
X119604619Y-95933238D01*
X119557000Y-95957047D01*
X120152238Y-95814190D02*
X120199857Y-95814190D01*
X120247476Y-95838000D01*
X120271285Y-95861809D01*
X120295095Y-95909428D01*
X120318904Y-96004666D01*
X120318904Y-96123714D01*
X120295095Y-96218952D01*
X120271285Y-96266571D01*
X120247476Y-96290380D01*
X120199857Y-96314190D01*
X120152238Y-96314190D01*
X120104619Y-96290380D01*
X120080809Y-96266571D01*
X120057000Y-96218952D01*
X120033190Y-96123714D01*
X120033190Y-96004666D01*
X120057000Y-95909428D01*
X120080809Y-95861809D01*
X120104619Y-95838000D01*
X120152238Y-95814190D01*
X120628428Y-95814190D02*
X120676047Y-95814190D01*
X120723666Y-95838000D01*
X120747476Y-95861809D01*
X120771285Y-95909428D01*
X120795095Y-96004666D01*
X120795095Y-96123714D01*
X120771285Y-96218952D01*
X120747476Y-96266571D01*
X120723666Y-96290380D01*
X120676047Y-96314190D01*
X120628428Y-96314190D01*
X120580809Y-96290380D01*
X120557000Y-96266571D01*
X120533190Y-96218952D01*
X120509380Y-96123714D01*
X120509380Y-96004666D01*
X120533190Y-95909428D01*
X120557000Y-95861809D01*
X120580809Y-95838000D01*
X120628428Y-95814190D01*
X121390333Y-95980857D02*
X121390333Y-96314190D01*
X121390333Y-96028476D02*
X121414142Y-96004666D01*
X121461761Y-95980857D01*
X121533190Y-95980857D01*
X121580809Y-96004666D01*
X121604619Y-96052285D01*
X121604619Y-96314190D01*
X122009380Y-96052285D02*
X121842714Y-96052285D01*
X121842714Y-96314190D02*
X121842714Y-95814190D01*
X122080809Y-95814190D01*
%TO.C,10K Ohm*%
X118761857Y-93133190D02*
X118476142Y-93133190D01*
X118619000Y-93133190D02*
X118619000Y-92633190D01*
X118571380Y-92704619D01*
X118523761Y-92752238D01*
X118476142Y-92776047D01*
X119071380Y-92633190D02*
X119119000Y-92633190D01*
X119166619Y-92657000D01*
X119190428Y-92680809D01*
X119214238Y-92728428D01*
X119238047Y-92823666D01*
X119238047Y-92942714D01*
X119214238Y-93037952D01*
X119190428Y-93085571D01*
X119166619Y-93109380D01*
X119119000Y-93133190D01*
X119071380Y-93133190D01*
X119023761Y-93109380D01*
X118999952Y-93085571D01*
X118976142Y-93037952D01*
X118952333Y-92942714D01*
X118952333Y-92823666D01*
X118976142Y-92728428D01*
X118999952Y-92680809D01*
X119023761Y-92657000D01*
X119071380Y-92633190D01*
X119452333Y-93133190D02*
X119452333Y-92633190D01*
X119738047Y-93133190D02*
X119523761Y-92847476D01*
X119738047Y-92633190D02*
X119452333Y-92918904D01*
X120428523Y-92633190D02*
X120523761Y-92633190D01*
X120571380Y-92657000D01*
X120619000Y-92704619D01*
X120642809Y-92799857D01*
X120642809Y-92966523D01*
X120619000Y-93061761D01*
X120571380Y-93109380D01*
X120523761Y-93133190D01*
X120428523Y-93133190D01*
X120380904Y-93109380D01*
X120333285Y-93061761D01*
X120309476Y-92966523D01*
X120309476Y-92799857D01*
X120333285Y-92704619D01*
X120380904Y-92657000D01*
X120428523Y-92633190D01*
X120857095Y-93133190D02*
X120857095Y-92633190D01*
X121071380Y-93133190D02*
X121071380Y-92871285D01*
X121047571Y-92823666D01*
X120999952Y-92799857D01*
X120928523Y-92799857D01*
X120880904Y-92823666D01*
X120857095Y-92847476D01*
X121309476Y-93133190D02*
X121309476Y-92799857D01*
X121309476Y-92847476D02*
X121333285Y-92823666D01*
X121380904Y-92799857D01*
X121452333Y-92799857D01*
X121499952Y-92823666D01*
X121523761Y-92871285D01*
X121523761Y-93133190D01*
X121523761Y-92871285D02*
X121547571Y-92823666D01*
X121595190Y-92799857D01*
X121666619Y-92799857D01*
X121714238Y-92823666D01*
X121738047Y-92871285D01*
X121738047Y-93133190D01*
D10*
%TO.C,DATEL GBOY*%
X152357095Y-110328380D02*
X152357095Y-109328380D01*
X152595190Y-109328380D01*
X152738047Y-109376000D01*
X152833285Y-109471238D01*
X152880904Y-109566476D01*
X152928523Y-109756952D01*
X152928523Y-109899809D01*
X152880904Y-110090285D01*
X152833285Y-110185523D01*
X152738047Y-110280761D01*
X152595190Y-110328380D01*
X152357095Y-110328380D01*
X153309476Y-110042666D02*
X153785666Y-110042666D01*
X153214238Y-110328380D02*
X153547571Y-109328380D01*
X153880904Y-110328380D01*
X154071380Y-109328380D02*
X154642809Y-109328380D01*
X154357095Y-110328380D02*
X154357095Y-109328380D01*
X154976142Y-109804571D02*
X155309476Y-109804571D01*
X155452333Y-110328380D02*
X154976142Y-110328380D01*
X154976142Y-109328380D01*
X155452333Y-109328380D01*
X156357095Y-110328380D02*
X155880904Y-110328380D01*
X155880904Y-109328380D01*
X157976142Y-109376000D02*
X157880904Y-109328380D01*
X157738047Y-109328380D01*
X157595190Y-109376000D01*
X157499952Y-109471238D01*
X157452333Y-109566476D01*
X157404714Y-109756952D01*
X157404714Y-109899809D01*
X157452333Y-110090285D01*
X157499952Y-110185523D01*
X157595190Y-110280761D01*
X157738047Y-110328380D01*
X157833285Y-110328380D01*
X157976142Y-110280761D01*
X158023761Y-110233142D01*
X158023761Y-109899809D01*
X157833285Y-109899809D01*
X158785666Y-109804571D02*
X158928523Y-109852190D01*
X158976142Y-109899809D01*
X159023761Y-109995047D01*
X159023761Y-110137904D01*
X158976142Y-110233142D01*
X158928523Y-110280761D01*
X158833285Y-110328380D01*
X158452333Y-110328380D01*
X158452333Y-109328380D01*
X158785666Y-109328380D01*
X158880904Y-109376000D01*
X158928523Y-109423619D01*
X158976142Y-109518857D01*
X158976142Y-109614095D01*
X158928523Y-109709333D01*
X158880904Y-109756952D01*
X158785666Y-109804571D01*
X158452333Y-109804571D01*
X159642809Y-109328380D02*
X159833285Y-109328380D01*
X159928523Y-109376000D01*
X160023761Y-109471238D01*
X160071380Y-109661714D01*
X160071380Y-109995047D01*
X160023761Y-110185523D01*
X159928523Y-110280761D01*
X159833285Y-110328380D01*
X159642809Y-110328380D01*
X159547571Y-110280761D01*
X159452333Y-110185523D01*
X159404714Y-109995047D01*
X159404714Y-109661714D01*
X159452333Y-109471238D01*
X159547571Y-109376000D01*
X159642809Y-109328380D01*
X160690428Y-109852190D02*
X160690428Y-110328380D01*
X160357095Y-109328380D02*
X160690428Y-109852190D01*
X161023761Y-109328380D01*
%TO.C,HY628100ALLG-70*%
X129512380Y-116425952D02*
X128512380Y-116425952D01*
X128988571Y-116425952D02*
X128988571Y-115854523D01*
X129512380Y-115854523D02*
X128512380Y-115854523D01*
X129036190Y-115187857D02*
X129512380Y-115187857D01*
X128512380Y-115521190D02*
X129036190Y-115187857D01*
X128512380Y-114854523D01*
X128512380Y-114092619D02*
X128512380Y-114283095D01*
X128560000Y-114378333D01*
X128607619Y-114425952D01*
X128750476Y-114521190D01*
X128940952Y-114568809D01*
X129321904Y-114568809D01*
X129417142Y-114521190D01*
X129464761Y-114473571D01*
X129512380Y-114378333D01*
X129512380Y-114187857D01*
X129464761Y-114092619D01*
X129417142Y-114045000D01*
X129321904Y-113997380D01*
X129083809Y-113997380D01*
X128988571Y-114045000D01*
X128940952Y-114092619D01*
X128893333Y-114187857D01*
X128893333Y-114378333D01*
X128940952Y-114473571D01*
X128988571Y-114521190D01*
X129083809Y-114568809D01*
X128607619Y-113616428D02*
X128560000Y-113568809D01*
X128512380Y-113473571D01*
X128512380Y-113235476D01*
X128560000Y-113140238D01*
X128607619Y-113092619D01*
X128702857Y-113045000D01*
X128798095Y-113045000D01*
X128940952Y-113092619D01*
X129512380Y-113664047D01*
X129512380Y-113045000D01*
X128940952Y-112473571D02*
X128893333Y-112568809D01*
X128845714Y-112616428D01*
X128750476Y-112664047D01*
X128702857Y-112664047D01*
X128607619Y-112616428D01*
X128560000Y-112568809D01*
X128512380Y-112473571D01*
X128512380Y-112283095D01*
X128560000Y-112187857D01*
X128607619Y-112140238D01*
X128702857Y-112092619D01*
X128750476Y-112092619D01*
X128845714Y-112140238D01*
X128893333Y-112187857D01*
X128940952Y-112283095D01*
X128940952Y-112473571D01*
X128988571Y-112568809D01*
X129036190Y-112616428D01*
X129131428Y-112664047D01*
X129321904Y-112664047D01*
X129417142Y-112616428D01*
X129464761Y-112568809D01*
X129512380Y-112473571D01*
X129512380Y-112283095D01*
X129464761Y-112187857D01*
X129417142Y-112140238D01*
X129321904Y-112092619D01*
X129131428Y-112092619D01*
X129036190Y-112140238D01*
X128988571Y-112187857D01*
X128940952Y-112283095D01*
X129512380Y-111140238D02*
X129512380Y-111711666D01*
X129512380Y-111425952D02*
X128512380Y-111425952D01*
X128655238Y-111521190D01*
X128750476Y-111616428D01*
X128798095Y-111711666D01*
X128512380Y-110521190D02*
X128512380Y-110425952D01*
X128560000Y-110330714D01*
X128607619Y-110283095D01*
X128702857Y-110235476D01*
X128893333Y-110187857D01*
X129131428Y-110187857D01*
X129321904Y-110235476D01*
X129417142Y-110283095D01*
X129464761Y-110330714D01*
X129512380Y-110425952D01*
X129512380Y-110521190D01*
X129464761Y-110616428D01*
X129417142Y-110664047D01*
X129321904Y-110711666D01*
X129131428Y-110759285D01*
X128893333Y-110759285D01*
X128702857Y-110711666D01*
X128607619Y-110664047D01*
X128560000Y-110616428D01*
X128512380Y-110521190D01*
X128512380Y-109568809D02*
X128512380Y-109473571D01*
X128560000Y-109378333D01*
X128607619Y-109330714D01*
X128702857Y-109283095D01*
X128893333Y-109235476D01*
X129131428Y-109235476D01*
X129321904Y-109283095D01*
X129417142Y-109330714D01*
X129464761Y-109378333D01*
X129512380Y-109473571D01*
X129512380Y-109568809D01*
X129464761Y-109664047D01*
X129417142Y-109711666D01*
X129321904Y-109759285D01*
X129131428Y-109806904D01*
X128893333Y-109806904D01*
X128702857Y-109759285D01*
X128607619Y-109711666D01*
X128560000Y-109664047D01*
X128512380Y-109568809D01*
X129226666Y-108854523D02*
X129226666Y-108378333D01*
X129512380Y-108949761D02*
X128512380Y-108616428D01*
X129512380Y-108283095D01*
X129512380Y-107473571D02*
X129512380Y-107949761D01*
X128512380Y-107949761D01*
X129512380Y-106664047D02*
X129512380Y-107140238D01*
X128512380Y-107140238D01*
X128560000Y-105806904D02*
X128512380Y-105902142D01*
X128512380Y-106045000D01*
X128560000Y-106187857D01*
X128655238Y-106283095D01*
X128750476Y-106330714D01*
X128940952Y-106378333D01*
X129083809Y-106378333D01*
X129274285Y-106330714D01*
X129369523Y-106283095D01*
X129464761Y-106187857D01*
X129512380Y-106045000D01*
X129512380Y-105949761D01*
X129464761Y-105806904D01*
X129417142Y-105759285D01*
X129083809Y-105759285D01*
X129083809Y-105949761D01*
X129131428Y-105330714D02*
X129131428Y-104568809D01*
X128512380Y-104187857D02*
X128512380Y-103521190D01*
X129512380Y-103949761D01*
X128512380Y-102949761D02*
X128512380Y-102854523D01*
X128560000Y-102759285D01*
X128607619Y-102711666D01*
X128702857Y-102664047D01*
X128893333Y-102616428D01*
X129131428Y-102616428D01*
X129321904Y-102664047D01*
X129417142Y-102711666D01*
X129464761Y-102759285D01*
X129512380Y-102854523D01*
X129512380Y-102949761D01*
X129464761Y-103045000D01*
X129417142Y-103092619D01*
X129321904Y-103140238D01*
X129131428Y-103187857D01*
X128893333Y-103187857D01*
X128702857Y-103140238D01*
X128607619Y-103092619D01*
X128560000Y-103045000D01*
X128512380Y-102949761D01*
%TD*%
M02*
