M48
; DRILL file {KiCad (6.0.2)} date Thu Jul 14 18:27:27 2022
; FORMAT={-:-/ absolute / metric / decimal}
; #@! TF.CreationDate,2022-07-14T18:27:27-05:00
; #@! TF.GenerationSoftware,Kicad,Pcbnew,(6.0.2)
; #@! TF.FileFunction,Plated,1,2,PTH
FMAT,2
METRIC
; #@! TA.AperFunction,Plated,PTH,ViaDrill
T1C0.400
; #@! TA.AperFunction,Plated,PTH,ComponentDrill
T2C1.150
; #@! TA.AperFunction,Plated,PTH,ComponentDrill
T3C1.350
; #@! TA.AperFunction,Plated,PTH,ComponentDrill
T4C1.400
; #@! TA.AperFunction,Plated,PTH,ComponentDrill
T5C5.200
%
G90
G05
T1
X116.824Y-118.575
X117.794Y-76.227
X120.119Y-73.007
X120.688Y-99.126
X121.692Y-99.145
X122.316Y-92.821
X123.981Y-101.909
X124.443Y-124.526
X125.053Y-113.517
X125.398Y-120.657
X125.501Y-116.115
X125.613Y-117.148
X126.081Y-106.962
X126.398Y-120.725
X126.536Y-109.022
X126.652Y-117.475
X126.679Y-97.554
X126.692Y-122.176
X127.142Y-109.831
X127.143Y-118.975
X127.144Y-120.056
X131.858Y-95.741
X131.948Y-122.052
X133.654Y-86.749
X133.672Y-89.093
X133.68Y-87.972
X133.693Y-90.362
X133.83Y-122.052
X134.234Y-95.451
X134.744Y-92.37
X135.259Y-115.064
X135.274Y-103.748
X135.279Y-116.182
X135.284Y-108.104
X135.46Y-102.642
X135.784Y-98.241
X136.189Y-116.745
X136.627Y-120.604
X136.954Y-108.327
X137.619Y-89.919
X138.344Y-102.39
X138.401Y-90.553
X138.408Y-117.867
X140.177Y-82.944
X140.309Y-83.972
X140.382Y-94.957
X141.159Y-100.407
X141.663Y-82.618
X141.856Y-84.374
X142.325Y-79.027
X142.993Y-106.419
X143.452Y-94.967
X143.711Y-82.648
X143.754Y-113.455
X143.787Y-107.04
X144.112Y-112.444
X144.296Y-97.484
X144.769Y-82.486
X144.834Y-106.697
X145.488Y-113.834
X145.624Y-109.473
X145.626Y-97.788
X145.791Y-89.847
X145.847Y-82.474
X146.108Y-86.141
X146.13Y-79.019
X150.643Y-122.069
X150.719Y-92.578
X151.22Y-89.19
X151.273Y-115.334
X151.341Y-123.423
X151.48Y-93.343
X151.534Y-108.648
X152.342Y-123.571
X152.51Y-97.85
X153.436Y-96.941
X153.643Y-95.29
X153.861Y-106.602
X153.869Y-101.966
X154.18Y-88.697
X154.334Y-124.596
X154.786Y-107.535
X154.823Y-96.263
X155.094Y-103.43
X155.312Y-105.876
X155.452Y-101.807
X156.009Y-97.917
X156.094Y-103.45
X156.225Y-102.45
X156.32Y-84.84
X156.338Y-123.693
X156.391Y-115.319
X156.58Y-87.598
X157.41Y-122.639
X158.706Y-103.069
X158.907Y-101.415
X158.995Y-97.052
X160.466Y-111.438
X161.815Y-103.729
X162.188Y-102.582
X162.281Y-108.692
X162.409Y-115.332
X162.748Y-101.64
X163.118Y-112.075
X163.159Y-125.724
X163.299Y-96.724
X164.199Y-101.218
X164.609Y-125.692
X166.693Y-113.111
X166.781Y-111.985
X166.904Y-106.127
X168.797Y-109.475
T2
X119.459Y-77.474
X120.97Y-75.966
X122.518Y-77.517
X124.022Y-75.965
X125.492Y-77.513
X126.996Y-75.964
X128.507Y-77.516
X130.018Y-75.926
X131.484Y-77.514
X133.033Y-75.927
X134.584Y-77.514
X136.051Y-75.929
X137.558Y-77.515
X139.067Y-75.926
X140.574Y-77.515
X142.082Y-75.927
X143.591Y-77.514
X145.099Y-75.967
X146.529Y-77.515
X148.076Y-75.968
X149.583Y-77.517
X151.092Y-75.967
X152.599Y-77.517
X154.111Y-75.969
X155.654Y-77.517
X157.124Y-75.968
X158.633Y-77.518
X160.137Y-75.969
X161.649Y-77.518
X163.155Y-75.962
X164.623Y-77.517
X166.131Y-75.967
T3
X122.791Y-73.105
X126.564Y-73.107
X129.142Y-73.104
X131.685Y-73.099
X135.535Y-73.106
T4
X147.238Y-72.352
X148.512Y-70.168
X152.953Y-70.172
X154.263Y-72.357
T5
X142.361Y-117.796
T0
M30
