%TF.GenerationSoftware,KiCad,Pcbnew,(6.0.2)*%
%TF.CreationDate,2022-09-16T22:24:32-05:00*%
%TF.ProjectId,REF1222 Optimized,52454631-3232-4322-904f-7074696d697a,rev?*%
%TF.SameCoordinates,Original*%
%TF.FileFunction,Copper,L2,Bot*%
%TF.FilePolarity,Positive*%
%FSLAX46Y46*%
G04 Gerber Fmt 4.6, Leading zero omitted, Abs format (unit mm)*
G04 Created by KiCad (PCBNEW (6.0.2)) date 2022-09-16 22:24:32*
%MOMM*%
%LPD*%
G01*
G04 APERTURE LIST*
%TA.AperFunction,ComponentPad*%
%ADD10C,1.700000*%
%TD*%
%TA.AperFunction,ComponentPad*%
%ADD11C,5.600000*%
%TD*%
%TA.AperFunction,ComponentPad*%
%ADD12C,2.000000*%
%TD*%
%TA.AperFunction,ComponentPad*%
%ADD13C,1.830000*%
%TD*%
%TA.AperFunction,ViaPad*%
%ADD14C,0.800000*%
%TD*%
%TA.AperFunction,Conductor*%
%ADD15C,0.250000*%
%TD*%
%TA.AperFunction,Conductor*%
%ADD16C,0.550000*%
%TD*%
G04 APERTURE END LIST*
D10*
%TO.P,J2,1,+5V*%
%TO.N,/VCC*%
X166131000Y-75967000D03*
%TO.P,J2,2,Clock*%
%TO.N,/Clk*%
X164623000Y-77517000D03*
%TO.P,J2,3,Write*%
%TO.N,/Wr_Game*%
X163155000Y-75962000D03*
%TO.P,J2,4,Read*%
%TO.N,/Rd_Game*%
X161649000Y-77518000D03*
%TO.P,J2,5,CS*%
%TO.N,/CS*%
X160137000Y-75969000D03*
%TO.P,J2,6,A0*%
%TO.N,/A0*%
X158633000Y-77518000D03*
%TO.P,J2,7,A1*%
%TO.N,/A1*%
X157124000Y-75968000D03*
%TO.P,J2,8,A2*%
%TO.N,/A2*%
X155654000Y-77517000D03*
%TO.P,J2,9,A3*%
%TO.N,/A3*%
X154111000Y-75969000D03*
%TO.P,J2,10,A4*%
%TO.N,/A4*%
X152599000Y-77517000D03*
%TO.P,J2,11,A5*%
%TO.N,/A5*%
X151092000Y-75967000D03*
%TO.P,J2,12,A6*%
%TO.N,/A6*%
X149583000Y-77517000D03*
%TO.P,J2,13,A7*%
%TO.N,/A7*%
X148076000Y-75968000D03*
%TO.P,J2,14,A8*%
%TO.N,/A8*%
X146529000Y-77515000D03*
%TO.P,J2,15,A9*%
%TO.N,/A9*%
X145099000Y-75967000D03*
%TO.P,J2,16,A10*%
%TO.N,/A10*%
X143591000Y-77514000D03*
%TO.P,J2,17,A11*%
%TO.N,/A11*%
X142082000Y-75927300D03*
%TO.P,J2,18,A12*%
%TO.N,/A12*%
X140573800Y-77514800D03*
%TO.P,J2,19,A13*%
%TO.N,/A13*%
X139067000Y-75926000D03*
%TO.P,J2,20,A14*%
%TO.N,/A14*%
X137557600Y-77514800D03*
%TO.P,J2,21,A15*%
%TO.N,/A15_Game*%
X136051000Y-75929000D03*
%TO.P,J2,22,Data_0*%
%TO.N,/D0*%
X134584000Y-77514000D03*
%TO.P,J2,23,Data_1*%
%TO.N,/D1*%
X133033200Y-75927300D03*
%TO.P,J2,24,Data_2*%
%TO.N,/D2*%
X131484000Y-77514000D03*
%TO.P,J2,25,Data_3*%
%TO.N,/D3*%
X130018000Y-75926000D03*
%TO.P,J2,26,Data_4*%
%TO.N,/D4*%
X128507000Y-77516000D03*
%TO.P,J2,27,Data_5*%
%TO.N,/D5*%
X126996000Y-75964000D03*
%TO.P,J2,28,Data_6*%
%TO.N,/D6*%
X125492000Y-77513000D03*
%TO.P,J2,29,Data_7*%
%TO.N,/D7*%
X124022000Y-75965000D03*
%TO.P,J2,30,Reset*%
%TO.N,/Reset*%
X122518000Y-77517000D03*
%TO.P,J2,31,Audio*%
%TO.N,/Audio*%
X120970000Y-75966000D03*
%TO.P,J2,32,GND*%
%TO.N,/GND*%
X119459000Y-77474000D03*
%TD*%
D11*
%TO.P,Hole,1*%
%TO.N,N/C*%
X142361000Y-117796000D03*
%TD*%
D12*
%TO.P,SW1,1,1*%
%TO.N,unconnected-(SW1-Pad1)*%
X147237800Y-72352400D03*
%TO.P,SW1,2,2*%
%TO.N,/GND*%
X148511800Y-70168400D03*
%TO.P,SW1,3,3*%
%TO.N,/Button*%
X152952800Y-70172400D03*
%TO.P,SW1,4,4*%
%TO.N,unconnected-(SW1-Pad4)*%
X154262800Y-72357400D03*
%TD*%
D13*
%TO.P,J3,5*%
%TO.N,N/C*%
X135535000Y-73106000D03*
%TO.P,J3,4*%
X122791000Y-73105000D03*
%TO.P,J3,3,C*%
%TO.N,/GND*%
X131685000Y-73099000D03*
%TO.P,J3,2,B*%
%TO.N,/Switch*%
X129142000Y-73104000D03*
%TO.P,J3,1,A*%
%TO.N,unconnected-(J3-Pad1)*%
X126564000Y-73107000D03*
%TD*%
D14*
%TO.N,/Const_High*%
X134481500Y-98729500D03*
X159553100Y-110135200D03*
%TO.N,/Rd_Sys*%
X127540200Y-118762500D03*
X161593200Y-111973000D03*
%TO.N,/Wr_Sys*%
X126963800Y-119689000D03*
X161593200Y-112998400D03*
%TO.N,/Button*%
X164891200Y-120619200D03*
X155440100Y-115121600D03*
X125372800Y-95542000D03*
%TO.N,/Audio*%
X163005900Y-125935800D03*
%TO.N,/Reset*%
X162265300Y-126612500D03*
%TO.N,/A15_Game*%
X165122700Y-118552100D03*
%TO.N,/A14*%
X148615600Y-91730100D03*
%TO.N,/A13*%
X146955800Y-90514900D03*
%TO.N,/A12*%
X148124100Y-78790800D03*
X157816100Y-88596100D03*
X151290600Y-104551900D03*
%TO.N,/CS*%
X125315000Y-126795700D03*
X160137000Y-86508600D03*
%TO.N,/Clk*%
X120814200Y-126790200D03*
X166431400Y-86247900D03*
%TO.N,/SRAM_OE*%
X126253800Y-106724300D03*
X156425700Y-113326000D03*
%TO.N,/SRAM_CS1*%
X136505600Y-100455500D03*
X156902600Y-110319400D03*
%TO.N,/VCC*%
X149507000Y-109332400D03*
X159050000Y-108605600D03*
X130219100Y-100650400D03*
X151148800Y-87909500D03*
%TO.N,/WE_Internal*%
X128346800Y-102665700D03*
X153917400Y-96646800D03*
%TO.N,/A14_Internal*%
X154094000Y-106816900D03*
X136488800Y-118220900D03*
X162382200Y-103896300D03*
%TO.N,/A13_Internal*%
X128160400Y-107574100D03*
X146132300Y-95378400D03*
%TO.N,/A8*%
X124910500Y-112835000D03*
X139178400Y-115533600D03*
X151158400Y-110368700D03*
X144932000Y-99815600D03*
%TO.N,/A9*%
X149610300Y-113445400D03*
X136829500Y-104026200D03*
X144153500Y-98374900D03*
%TO.N,/A11*%
X150201000Y-114583400D03*
X142561900Y-97926400D03*
X129166000Y-104793000D03*
%TO.N,/EEPROM_OE*%
X141126000Y-99145500D03*
X155902400Y-110603800D03*
%TO.N,/A10*%
X137528800Y-105396300D03*
X127603400Y-103987700D03*
X145837600Y-114347700D03*
X140118600Y-86523800D03*
%TO.N,/EEPROM_CE*%
X137557400Y-102567900D03*
X155294100Y-112776400D03*
%TO.N,/D7*%
X152236000Y-97717200D03*
X137313300Y-96276100D03*
X123453200Y-105151200D03*
X160673700Y-126769200D03*
%TO.N,/D6*%
X125836300Y-99085900D03*
X133664200Y-90095400D03*
X149595200Y-95268100D03*
%TO.N,/D5*%
X158320700Y-125484600D03*
X154669300Y-105941900D03*
X123903300Y-103883500D03*
%TO.N,/D4*%
X158776200Y-112641600D03*
X154223700Y-119401200D03*
X124402100Y-101745100D03*
%TO.N,/D3*%
X124852200Y-100744900D03*
X158054700Y-106274200D03*
X153181600Y-119945700D03*
%TO.N,/D2*%
X158607800Y-102835200D03*
X153819900Y-125171400D03*
X134712100Y-92570400D03*
X154821500Y-95276400D03*
%TO.N,/D1*%
X161193400Y-106028700D03*
X152319700Y-124152200D03*
X154852800Y-93904200D03*
X136127000Y-92447600D03*
%TO.N,/D0*%
X154840600Y-92586100D03*
X160326100Y-104540700D03*
X150819400Y-123949800D03*
%TO.N,/A0*%
X140560500Y-87539800D03*
%TO.N,/A1*%
X142539700Y-85798000D03*
%TO.N,/A2*%
X143671900Y-84879000D03*
%TO.N,/A3*%
X149466400Y-105958600D03*
X158875900Y-87503800D03*
X143124600Y-83747400D03*
%TO.N,/A4*%
X150134700Y-106713700D03*
X158430600Y-85954300D03*
X144320900Y-82779000D03*
%TO.N,/A5*%
X145829300Y-107148400D03*
X142092500Y-99770800D03*
X142460900Y-87074800D03*
X144456400Y-86523100D03*
%TO.N,/A6*%
X150528700Y-107868300D03*
X160960500Y-91702700D03*
X146317300Y-87808300D03*
%TO.N,/A12_Internal*%
X136574100Y-125585500D03*
X164019700Y-101550300D03*
%TO.N,/A15_Internal*%
X124931000Y-118341400D03*
X162070100Y-105056700D03*
%TO.N,/A16_Internal*%
X135266700Y-117829600D03*
X159216800Y-106855300D03*
%TO.N,/GND*%
X156019600Y-104517700D03*
X149438400Y-108064500D03*
X130414600Y-84378800D03*
%TO.N,/Switch*%
X129604700Y-96290700D03*
X153284100Y-94827100D03*
X120012700Y-80234600D03*
%TD*%
D15*
%TO.N,/Const_High*%
X158458100Y-110135200D02*
X159553100Y-110135200D01*
X156599200Y-111994100D02*
X158458100Y-110135200D01*
X148244200Y-111994100D02*
X156599200Y-111994100D01*
X137702600Y-101452500D02*
X148244200Y-111994100D01*
X136476900Y-101452500D02*
X137702600Y-101452500D01*
X134481500Y-99457100D02*
X136476900Y-101452500D01*
X134481500Y-98729500D02*
X134481500Y-99457100D01*
%TO.N,/Rd_Sys*%
X160420500Y-113145700D02*
X161593200Y-111973000D01*
X160420500Y-115764500D02*
X160420500Y-113145700D01*
X154163900Y-122021100D02*
X160420500Y-115764500D01*
X152380700Y-122021100D02*
X154163900Y-122021100D01*
X152036000Y-122365800D02*
X152380700Y-122021100D01*
X131143500Y-122365800D02*
X152036000Y-122365800D01*
X127540200Y-118762500D02*
X131143500Y-122365800D01*
%TO.N,/Wr_Sys*%
X161593200Y-115228400D02*
X161593200Y-112998400D01*
X154350400Y-122471200D02*
X161593200Y-115228400D01*
X152567200Y-122471200D02*
X154350400Y-122471200D01*
X152222500Y-122815900D02*
X152567200Y-122471200D01*
X130090700Y-122815900D02*
X152222500Y-122815900D01*
X126963800Y-119689000D02*
X130090700Y-122815900D01*
%TO.N,/Button*%
X167827900Y-117682500D02*
X164891200Y-120619200D01*
X167827900Y-75305100D02*
X167827900Y-117682500D01*
X166741000Y-74218200D02*
X167827900Y-75305100D01*
X154175800Y-74218200D02*
X166741000Y-74218200D01*
X152897900Y-72940300D02*
X154175800Y-74218200D01*
X152897900Y-70227300D02*
X152897900Y-72940300D01*
X152952800Y-70172400D02*
X152897900Y-70227300D01*
X125077200Y-95837600D02*
X125372800Y-95542000D01*
X125077200Y-99907500D02*
X125077200Y-95837600D01*
X125592400Y-100422700D02*
X125077200Y-99907500D01*
X125592400Y-102900700D02*
X125592400Y-100422700D01*
X125528700Y-102964400D02*
X125592400Y-102900700D01*
X125528700Y-107037700D02*
X125528700Y-102964400D01*
X127922300Y-109431300D02*
X125528700Y-107037700D01*
X139126300Y-109431300D02*
X127922300Y-109431300D01*
X145453700Y-115758700D02*
X139126300Y-109431300D01*
X154803000Y-115758700D02*
X145453700Y-115758700D01*
X155440100Y-115121600D02*
X154803000Y-115758700D01*
%TO.N,/Audio*%
X163005900Y-126976300D02*
X163005900Y-125935800D01*
X162107500Y-127874700D02*
X163005900Y-126976300D01*
X161230300Y-127874700D02*
X162107500Y-127874700D01*
X161160600Y-127944400D02*
X161230300Y-127874700D01*
X160186900Y-127944400D02*
X161160600Y-127944400D01*
X160117200Y-127874700D02*
X160186900Y-127944400D01*
X131396800Y-127874700D02*
X160117200Y-127874700D01*
X120737800Y-117215700D02*
X131396800Y-127874700D01*
X120737800Y-79934200D02*
X120737800Y-117215700D01*
X120313100Y-79509500D02*
X120737800Y-79934200D01*
X119768400Y-79509500D02*
X120313100Y-79509500D01*
X118269200Y-78010300D02*
X119768400Y-79509500D01*
X118269200Y-76951000D02*
X118269200Y-78010300D01*
X119254200Y-75966000D02*
X118269200Y-76951000D01*
X120970000Y-75966000D02*
X119254200Y-75966000D01*
%TO.N,/Reset*%
X161855900Y-126612500D02*
X162265300Y-126612500D01*
X160974100Y-127494300D02*
X161855900Y-126612500D01*
X160373400Y-127494300D02*
X160974100Y-127494300D01*
X160303700Y-127424600D02*
X160373400Y-127494300D01*
X131619500Y-127424600D02*
X160303700Y-127424600D01*
X122669300Y-118474400D02*
X131619500Y-127424600D01*
X122669300Y-93769600D02*
X122669300Y-118474400D01*
X131172400Y-85266500D02*
X122669300Y-93769600D01*
X131172400Y-84048400D02*
X131172400Y-85266500D01*
X130619700Y-83495700D02*
X131172400Y-84048400D01*
X128496700Y-83495700D02*
X130619700Y-83495700D01*
X122518000Y-77517000D02*
X128496700Y-83495700D01*
%TO.N,/A15_Game*%
X167347500Y-116327300D02*
X165122700Y-118552100D01*
X167347500Y-75468300D02*
X167347500Y-116327300D01*
X166611600Y-74732400D02*
X167347500Y-75468300D01*
X137247600Y-74732400D02*
X166611600Y-74732400D01*
X136051000Y-75929000D02*
X137247600Y-74732400D01*
%TO.N,/A14*%
X143088800Y-91730100D02*
X148615600Y-91730100D01*
X138835100Y-87476400D02*
X143088800Y-91730100D01*
X138835100Y-78792300D02*
X138835100Y-87476400D01*
X137557600Y-77514800D02*
X138835100Y-78792300D01*
%TO.N,/A13*%
X142510200Y-90514900D02*
X146955800Y-90514900D01*
X139322800Y-87327500D02*
X142510200Y-90514900D01*
X139322800Y-76181800D02*
X139322800Y-87327500D01*
X139067000Y-75926000D02*
X139322800Y-76181800D01*
%TO.N,/A12*%
X157816100Y-98026400D02*
X151290600Y-104551900D01*
X157816100Y-88596100D02*
X157816100Y-98026400D01*
X147750800Y-79164100D02*
X148124100Y-78790800D01*
X142223100Y-79164100D02*
X147750800Y-79164100D01*
X140573800Y-77514800D02*
X142223100Y-79164100D01*
%TO.N,/CS*%
X165252100Y-91623700D02*
X160137000Y-86508600D01*
X165252100Y-116760700D02*
X165252100Y-91623700D01*
X163716000Y-118296800D02*
X165252100Y-116760700D01*
X163716000Y-121106000D02*
X163716000Y-118296800D01*
X163731000Y-121121000D02*
X163716000Y-121106000D01*
X163731000Y-126939700D02*
X163731000Y-121121000D01*
X162345900Y-128324800D02*
X163731000Y-126939700D01*
X161416800Y-128324800D02*
X162345900Y-128324800D01*
X161347100Y-128394500D02*
X161416800Y-128324800D01*
X160000400Y-128394500D02*
X161347100Y-128394500D01*
X159930700Y-128324800D02*
X160000400Y-128394500D01*
X126844100Y-128324800D02*
X159930700Y-128324800D01*
X125315000Y-126795700D02*
X126844100Y-128324800D01*
%TO.N,/Clk*%
X166431400Y-116218000D02*
X166431400Y-86247900D01*
X164166100Y-118483300D02*
X166431400Y-116218000D01*
X164166100Y-120919500D02*
X164166100Y-118483300D01*
X164181100Y-120934500D02*
X164166100Y-120919500D01*
X164181100Y-127174900D02*
X164181100Y-120934500D01*
X162581100Y-128774900D02*
X164181100Y-127174900D01*
X161603300Y-128774900D02*
X162581100Y-128774900D01*
X161533600Y-128844600D02*
X161603300Y-128774900D01*
X159813900Y-128844600D02*
X161533600Y-128844600D01*
X159744200Y-128774900D02*
X159813900Y-128844600D01*
X122798900Y-128774900D02*
X159744200Y-128774900D01*
X120814200Y-126790200D02*
X122798900Y-128774900D01*
%TO.N,/SRAM_OE*%
X155355300Y-114396400D02*
X156425700Y-113326000D01*
X154831400Y-114396400D02*
X155355300Y-114396400D01*
X153919200Y-115308600D02*
X154831400Y-114396400D01*
X145640200Y-115308600D02*
X153919200Y-115308600D01*
X139198300Y-108866700D02*
X145640200Y-115308600D01*
X128396200Y-108866700D02*
X139198300Y-108866700D01*
X126253800Y-106724300D02*
X128396200Y-108866700D01*
%TO.N,/SRAM_CS1*%
X156902600Y-110658800D02*
X156902600Y-110319400D01*
X156017400Y-111544000D02*
X156902600Y-110658800D01*
X148430800Y-111544000D02*
X156017400Y-111544000D01*
X137342300Y-100455500D02*
X148430800Y-111544000D01*
X136505600Y-100455500D02*
X137342300Y-100455500D01*
D16*
%TO.N,/VCC*%
X155727900Y-88188600D02*
X155448800Y-87909500D01*
X155727900Y-96073900D02*
X155727900Y-88188600D01*
X149866500Y-101935300D02*
X155727900Y-96073900D01*
X148951500Y-101935300D02*
X149866500Y-101935300D01*
X166131000Y-77926300D02*
X166131000Y-75967000D01*
X158978100Y-85079200D02*
X166131000Y-77926300D01*
X158068200Y-85079200D02*
X158978100Y-85079200D01*
X155448800Y-87698600D02*
X158068200Y-85079200D01*
X155448800Y-87909500D02*
X155448800Y-87698600D01*
X155448800Y-87909500D02*
X151148800Y-87909500D01*
X149668200Y-109493600D02*
X149507000Y-109332400D01*
X151721700Y-109493600D02*
X149668200Y-109493600D01*
X152609700Y-108605600D02*
X151721700Y-109493600D01*
X159050000Y-108605600D02*
X152609700Y-108605600D01*
X148563300Y-102323500D02*
X148951500Y-101935300D01*
X148563300Y-108483800D02*
X148563300Y-102323500D01*
X149411900Y-109332400D02*
X148563300Y-108483800D01*
X149507000Y-109332400D02*
X149411900Y-109332400D01*
X144067400Y-97051200D02*
X148951500Y-101935300D01*
X141503800Y-97051200D02*
X144067400Y-97051200D01*
X141403800Y-97151200D02*
X141503800Y-97051200D01*
X135414000Y-97151200D02*
X141403800Y-97151200D01*
X135217000Y-96954200D02*
X135414000Y-97151200D01*
X133746100Y-96954200D02*
X135217000Y-96954200D01*
X130219100Y-100481200D02*
X133746100Y-96954200D01*
X130219100Y-100650400D02*
X130219100Y-100481200D01*
D15*
%TO.N,/WE_Internal*%
X145830100Y-96646800D02*
X153917400Y-96646800D01*
X144734200Y-95550900D02*
X145830100Y-96646800D01*
X134238500Y-95550900D02*
X144734200Y-95550900D01*
X128346800Y-101442600D02*
X134238500Y-95550900D01*
X128346800Y-102665700D02*
X128346800Y-101442600D01*
%TO.N,/A14_Internal*%
X156486700Y-106816900D02*
X154094000Y-106816900D01*
X157754500Y-105549100D02*
X156486700Y-106816900D01*
X159601000Y-105549100D02*
X157754500Y-105549100D01*
X162255900Y-103770000D02*
X162382200Y-103896300D01*
X160050400Y-103770000D02*
X162255900Y-103770000D01*
X159601000Y-104219400D02*
X160050400Y-103770000D01*
X159601000Y-105549100D02*
X159601000Y-104219400D01*
X159601000Y-106098600D02*
X159601000Y-105549100D01*
X161178400Y-107676000D02*
X159601000Y-106098600D01*
X161178400Y-110808600D02*
X161178400Y-107676000D01*
X159951500Y-112035500D02*
X161178400Y-110808600D01*
X159951500Y-115596900D02*
X159951500Y-112035500D01*
X153977400Y-121571000D02*
X159951500Y-115596900D01*
X152194200Y-121571000D02*
X153977400Y-121571000D01*
X151849500Y-121915700D02*
X152194200Y-121571000D01*
X140183600Y-121915700D02*
X151849500Y-121915700D01*
X136488800Y-118220900D02*
X140183600Y-121915700D01*
%TO.N,/A13_Internal*%
X145854700Y-95100800D02*
X146132300Y-95378400D01*
X134029000Y-95100800D02*
X145854700Y-95100800D01*
X126864400Y-102265400D02*
X134029000Y-95100800D01*
X126864400Y-106278100D02*
X126864400Y-102265400D01*
X128160400Y-107574100D02*
X126864400Y-106278100D01*
%TO.N,/A8*%
X136479800Y-112835000D02*
X124910500Y-112835000D01*
X139178400Y-115533600D02*
X136479800Y-112835000D01*
X147734500Y-102618100D02*
X144932000Y-99815600D01*
X147734500Y-108666700D02*
X147734500Y-102618100D01*
X149436500Y-110368700D02*
X147734500Y-108666700D01*
X151158400Y-110368700D02*
X149436500Y-110368700D01*
%TO.N,/A9*%
X137821000Y-104026200D02*
X136829500Y-104026200D01*
X147240200Y-113445400D02*
X137821000Y-104026200D01*
X149610300Y-113445400D02*
X147240200Y-113445400D01*
X143876900Y-98651500D02*
X144153500Y-98374900D01*
X142261600Y-98651500D02*
X143876900Y-98651500D01*
X141985000Y-98374900D02*
X142261600Y-98651500D01*
X135152400Y-98374900D02*
X141985000Y-98374900D01*
X134781900Y-98004400D02*
X135152400Y-98374900D01*
X134181200Y-98004400D02*
X134781900Y-98004400D01*
X133741900Y-98443700D02*
X134181200Y-98004400D01*
X133741900Y-100938600D02*
X133741900Y-98443700D01*
X136829500Y-104026200D02*
X133741900Y-100938600D01*
%TO.N,/A11*%
X131232900Y-102726100D02*
X131873100Y-102726100D01*
X129166000Y-104793000D02*
X131232900Y-102726100D01*
X133898300Y-104751300D02*
X131873100Y-102726100D01*
X137129900Y-104751300D02*
X133898300Y-104751300D01*
X137285600Y-104595600D02*
X137129900Y-104751300D01*
X137753600Y-104595600D02*
X137285600Y-104595600D01*
X147741400Y-114583400D02*
X137753600Y-104595600D01*
X150201000Y-114583400D02*
X147741400Y-114583400D01*
X142392400Y-97756900D02*
X142561900Y-97926400D01*
X135171000Y-97756900D02*
X142392400Y-97756900D01*
X134968400Y-97554300D02*
X135171000Y-97756900D01*
X133994700Y-97554300D02*
X134968400Y-97554300D01*
X131873100Y-99675900D02*
X133994700Y-97554300D01*
X131873100Y-102726100D02*
X131873100Y-99675900D01*
%TO.N,/EEPROM_OE*%
X155412300Y-111093900D02*
X155902400Y-110603800D01*
X148686000Y-111093900D02*
X155412300Y-111093900D01*
X141126000Y-103533900D02*
X148686000Y-111093900D01*
X141126000Y-99145500D02*
X141126000Y-103533900D01*
%TO.N,/A10*%
X145837500Y-114347700D02*
X145837600Y-114347700D01*
X145837500Y-113705000D02*
X145837500Y-114347700D01*
X137528800Y-105396300D02*
X145837500Y-113705000D01*
X137407000Y-105518100D02*
X137528800Y-105396300D01*
X128865700Y-105518100D02*
X137407000Y-105518100D01*
X127603400Y-104255800D02*
X128865700Y-105518100D01*
X127603400Y-103987700D02*
X127603400Y-104255800D01*
X140118600Y-84454500D02*
X140118600Y-86523800D01*
X144777100Y-79796000D02*
X140118600Y-84454500D01*
X148152200Y-79796000D02*
X144777100Y-79796000D01*
X148901700Y-79046500D02*
X148152200Y-79796000D01*
X148901700Y-78505100D02*
X148901700Y-79046500D01*
X148424500Y-78027900D02*
X148901700Y-78505100D01*
X147823800Y-78027900D02*
X148424500Y-78027900D01*
X147156000Y-78695700D02*
X147823800Y-78027900D01*
X144772700Y-78695700D02*
X147156000Y-78695700D01*
X143591000Y-77514000D02*
X144772700Y-78695700D01*
%TO.N,/EEPROM_CE*%
X147433800Y-112444300D02*
X137557400Y-102567900D01*
X154962000Y-112444300D02*
X147433800Y-112444300D01*
X155294100Y-112776400D02*
X154962000Y-112444300D01*
%TO.N,/D7*%
X123152100Y-104850100D02*
X123453200Y-105151200D01*
X123152100Y-93923400D02*
X123152100Y-104850100D01*
X131657700Y-85417800D02*
X123152100Y-93923400D01*
X131657700Y-83842900D02*
X131657700Y-85417800D01*
X130794500Y-82979700D02*
X131657700Y-83842900D01*
X129230600Y-82979700D02*
X130794500Y-82979700D01*
X124022000Y-77771100D02*
X129230600Y-82979700D01*
X124022000Y-75965000D02*
X124022000Y-77771100D01*
X160622400Y-126820500D02*
X160673700Y-126769200D01*
X131691500Y-126820500D02*
X160622400Y-126820500D01*
X123453200Y-118582200D02*
X131691500Y-126820500D01*
X123453200Y-105151200D02*
X123453200Y-118582200D01*
X145582100Y-97717200D02*
X152236000Y-97717200D01*
X144141000Y-96276100D02*
X145582100Y-97717200D01*
X137313300Y-96276100D02*
X144141000Y-96276100D01*
%TO.N,/D6*%
X133664200Y-90095400D02*
X133664200Y-93295400D01*
X125836300Y-98998300D02*
X125836300Y-99085900D01*
X131539200Y-93295400D02*
X125836300Y-98998300D01*
X133664200Y-93295400D02*
X131539200Y-93295400D01*
X148485200Y-94158100D02*
X149595200Y-95268100D01*
X134526900Y-94158100D02*
X148485200Y-94158100D01*
X133664200Y-93295400D02*
X134526900Y-94158100D01*
%TO.N,/D5*%
X123652400Y-103632600D02*
X123903300Y-103883500D01*
X123652400Y-94059700D02*
X123652400Y-103632600D01*
X132138600Y-85573500D02*
X123652400Y-94059700D01*
X132138600Y-83589900D02*
X132138600Y-85573500D01*
X126996000Y-78447300D02*
X132138600Y-83589900D01*
X126996000Y-75964000D02*
X126996000Y-78447300D01*
X155620900Y-105941900D02*
X154669300Y-105941900D01*
X156744700Y-104818100D02*
X155620900Y-105941900D01*
X156744700Y-103633900D02*
X156744700Y-104818100D01*
X159563600Y-100815000D02*
X156744700Y-103633900D01*
X164322400Y-100815000D02*
X159563600Y-100815000D01*
X164759300Y-101251900D02*
X164322400Y-100815000D01*
X164759300Y-116581100D02*
X164759300Y-101251900D01*
X158320700Y-123019700D02*
X164759300Y-116581100D01*
X158320700Y-125484600D02*
X158320700Y-123019700D01*
X124178400Y-104158600D02*
X123903300Y-103883500D01*
X124178400Y-118620300D02*
X124178400Y-104158600D01*
X131904700Y-126346600D02*
X124178400Y-118620300D01*
X157458700Y-126346600D02*
X131904700Y-126346600D01*
X158320700Y-125484600D02*
X157458700Y-126346600D01*
%TO.N,/D4*%
X124120800Y-101463800D02*
X124402100Y-101745100D01*
X124120800Y-94227900D02*
X124120800Y-101463800D01*
X132605200Y-85743500D02*
X124120800Y-94227900D01*
X132605200Y-83419900D02*
X132605200Y-85743500D01*
X128507000Y-79321700D02*
X132605200Y-83419900D01*
X128507000Y-77516000D02*
X128507000Y-79321700D01*
X158776200Y-114848700D02*
X154223700Y-119401200D01*
X158776200Y-112641600D02*
X158776200Y-114848700D01*
X154223700Y-119970200D02*
X154223700Y-119401200D01*
X153523100Y-120670800D02*
X154223700Y-119970200D01*
X151821200Y-120670800D02*
X153523100Y-120670800D01*
X151507500Y-120984500D02*
X151821200Y-120670800D01*
X141130100Y-120984500D02*
X151507500Y-120984500D01*
X139922500Y-119776900D02*
X141130100Y-120984500D01*
X139922500Y-115243000D02*
X139922500Y-119776900D01*
X136979300Y-112299800D02*
X139922500Y-115243000D01*
X129517600Y-112299800D02*
X136979300Y-112299800D01*
X124628500Y-107410700D02*
X129517600Y-112299800D01*
X124628500Y-101971500D02*
X124628500Y-107410700D01*
X124402100Y-101745100D02*
X124628500Y-101971500D01*
%TO.N,/D3*%
X124586300Y-100479000D02*
X124852200Y-100744900D01*
X124586300Y-95303100D02*
X124586300Y-100479000D01*
X133120400Y-86769000D02*
X124586300Y-95303100D01*
X133120400Y-81829700D02*
X133120400Y-86769000D01*
X130018000Y-78727300D02*
X133120400Y-81829700D01*
X130018000Y-75926000D02*
X130018000Y-78727300D01*
X153181600Y-118258300D02*
X153181600Y-119945700D01*
X147316700Y-118258300D02*
X153181600Y-118258300D01*
X140908100Y-111849700D02*
X147316700Y-118258300D01*
X129704100Y-111849700D02*
X140908100Y-111849700D01*
X125078600Y-107224200D02*
X129704100Y-111849700D01*
X125078600Y-102231500D02*
X125078600Y-107224200D01*
X125134900Y-102175200D02*
X125078600Y-102231500D01*
X125134900Y-101027600D02*
X125134900Y-102175200D01*
X124852200Y-100744900D02*
X125134900Y-101027600D01*
X158054700Y-106725600D02*
X158054700Y-106274200D01*
X160278200Y-108949100D02*
X158054700Y-106725600D01*
X160278200Y-110435600D02*
X160278200Y-108949100D01*
X159853500Y-110860300D02*
X160278200Y-110435600D01*
X159448200Y-110860300D02*
X159853500Y-110860300D01*
X158006900Y-112301600D02*
X159448200Y-110860300D01*
X158006900Y-113580300D02*
X158006900Y-112301600D01*
X153328900Y-118258300D02*
X158006900Y-113580300D01*
X153181600Y-118258300D02*
X153328900Y-118258300D01*
%TO.N,/D2*%
X134712100Y-80742100D02*
X134712100Y-92570400D01*
X131484000Y-77514000D02*
X134712100Y-80742100D01*
X154307800Y-125171400D02*
X153819900Y-125171400D01*
X163756400Y-115722800D02*
X154307800Y-125171400D01*
X163756400Y-104181100D02*
X163756400Y-115722800D01*
X162410500Y-102835200D02*
X163756400Y-104181100D01*
X158607800Y-102835200D02*
X162410500Y-102835200D01*
X135849600Y-93707900D02*
X134712100Y-92570400D01*
X153253000Y-93707900D02*
X135849600Y-93707900D01*
X154821500Y-95276400D02*
X153253000Y-93707900D01*
%TO.N,/D1*%
X162809500Y-107644800D02*
X161193400Y-106028700D01*
X162809500Y-115301000D02*
X162809500Y-107644800D01*
X154739100Y-123371400D02*
X162809500Y-115301000D01*
X153100500Y-123371400D02*
X154739100Y-123371400D01*
X152319700Y-124152200D02*
X153100500Y-123371400D01*
X137404800Y-89240200D02*
X138369600Y-90205000D01*
X137404800Y-82755100D02*
X137404800Y-89240200D01*
X133033200Y-78383500D02*
X137404800Y-82755100D01*
X133033200Y-75927300D02*
X133033200Y-78383500D01*
X141240000Y-93075400D02*
X138369600Y-90205000D01*
X154024000Y-93075400D02*
X141240000Y-93075400D01*
X154852800Y-93904200D02*
X154024000Y-93075400D01*
X138369600Y-90205000D02*
X136127000Y-92447600D01*
%TO.N,/D0*%
X160326100Y-106187100D02*
X160326100Y-104540700D01*
X162320900Y-108181900D02*
X160326100Y-106187100D01*
X162320900Y-115137300D02*
X162320900Y-108181900D01*
X154536900Y-122921300D02*
X162320900Y-115137300D01*
X152753700Y-122921300D02*
X154536900Y-122921300D01*
X152354100Y-123320900D02*
X152753700Y-122921300D01*
X151448300Y-123320900D02*
X152354100Y-123320900D01*
X150819400Y-123949800D02*
X151448300Y-123320900D01*
X143308200Y-92586100D02*
X154840600Y-92586100D01*
X138385000Y-87662900D02*
X143308200Y-92586100D01*
X138385000Y-81315000D02*
X138385000Y-87662900D01*
X134584000Y-77514000D02*
X138385000Y-81315000D01*
%TO.N,/A0*%
X147567300Y-88583700D02*
X158633000Y-77518000D01*
X141604400Y-88583700D02*
X147567300Y-88583700D01*
X140560500Y-87539800D02*
X141604400Y-88583700D01*
%TO.N,/A1*%
X157124000Y-77776500D02*
X157124000Y-75968000D01*
X149102500Y-85798000D02*
X157124000Y-77776500D01*
X142539700Y-85798000D02*
X149102500Y-85798000D01*
%TO.N,/A2*%
X148292000Y-84879000D02*
X143671900Y-84879000D01*
X155654000Y-77517000D02*
X148292000Y-84879000D01*
%TO.N,/A3*%
X150909500Y-105958600D02*
X149466400Y-105958600D01*
X158875900Y-97992200D02*
X150909500Y-105958600D01*
X158875900Y-87503800D02*
X158875900Y-97992200D01*
X154111000Y-77667000D02*
X154111000Y-75969000D01*
X148030600Y-83747400D02*
X154111000Y-77667000D01*
X143124600Y-83747400D02*
X148030600Y-83747400D01*
%TO.N,/A4*%
X150791000Y-106713700D02*
X150134700Y-106713700D01*
X159601100Y-97903600D02*
X150791000Y-106713700D01*
X159601100Y-87124800D02*
X159601100Y-97903600D01*
X158430600Y-85954300D02*
X159601100Y-87124800D01*
X147337000Y-82779000D02*
X144320900Y-82779000D01*
X152599000Y-77517000D02*
X147337000Y-82779000D01*
%TO.N,/A5*%
X145829300Y-103507600D02*
X145829300Y-107148400D01*
X142092500Y-99770800D02*
X145829300Y-103507600D01*
X142460900Y-86523100D02*
X142460900Y-87074800D01*
X142460900Y-86523100D02*
X144456400Y-86523100D01*
X142231400Y-86523100D02*
X142460900Y-86523100D01*
X141814500Y-86106200D02*
X142231400Y-86523100D01*
X141814500Y-84031800D02*
X141814500Y-86106200D01*
X143792400Y-82053900D02*
X141814500Y-84031800D01*
X147336800Y-82053900D02*
X143792400Y-82053900D01*
X151092000Y-78298700D02*
X147336800Y-82053900D01*
X151092000Y-75967000D02*
X151092000Y-78298700D01*
%TO.N,/A6*%
X160960500Y-97436500D02*
X150528700Y-107868300D01*
X160960500Y-91702700D02*
X160960500Y-97436500D01*
X142110400Y-87808300D02*
X146317300Y-87808300D01*
X141353100Y-87051000D02*
X142110400Y-87808300D01*
X141353100Y-83856500D02*
X141353100Y-87051000D01*
X144047500Y-81162100D02*
X141353100Y-83856500D01*
X147521300Y-81162100D02*
X144047500Y-81162100D01*
X149583000Y-79100400D02*
X147521300Y-81162100D01*
X149583000Y-77517000D02*
X149583000Y-79100400D01*
%TO.N,/A12_Internal*%
X136885100Y-125896500D02*
X136574100Y-125585500D01*
X154290600Y-125896500D02*
X136885100Y-125896500D01*
X164226600Y-115960500D02*
X154290600Y-125896500D01*
X164226600Y-101757200D02*
X164226600Y-115960500D01*
X164019700Y-101550300D02*
X164226600Y-101757200D01*
%TO.N,/A15_Internal*%
X124931000Y-118681600D02*
X124931000Y-118341400D01*
X131108600Y-124859200D02*
X124931000Y-118681600D01*
X151819700Y-124859200D02*
X131108600Y-124859200D01*
X151870900Y-124910400D02*
X151819700Y-124859200D01*
X152600300Y-124910400D02*
X151870900Y-124910400D01*
X153514700Y-123996000D02*
X152600300Y-124910400D01*
X154826600Y-123996000D02*
X153514700Y-123996000D01*
X163275600Y-115547000D02*
X154826600Y-123996000D01*
X163275600Y-106262200D02*
X163275600Y-115547000D01*
X162070100Y-105056700D02*
X163275600Y-106262200D01*
%TO.N,/A16_Internal*%
X160728300Y-108366800D02*
X159216800Y-106855300D01*
X160728300Y-110622100D02*
X160728300Y-108366800D01*
X159501400Y-111849000D02*
X160728300Y-110622100D01*
X159501400Y-115410400D02*
X159501400Y-111849000D01*
X153790900Y-121120900D02*
X159501400Y-115410400D01*
X152007700Y-121120900D02*
X153790900Y-121120900D01*
X151664300Y-121464300D02*
X152007700Y-121120900D01*
X140784400Y-121464300D02*
X151664300Y-121464300D01*
X136815900Y-117495800D02*
X140784400Y-121464300D01*
X135600500Y-117495800D02*
X136815900Y-117495800D01*
X135266700Y-117829600D02*
X135600500Y-117495800D01*
D16*
%TO.N,/GND*%
X134615600Y-70168400D02*
X131685000Y-73099000D01*
X148511800Y-70168400D02*
X134615600Y-70168400D01*
X126363800Y-84378800D02*
X130414600Y-84378800D01*
X119459000Y-77474000D02*
X126363800Y-84378800D01*
X149476700Y-108064500D02*
X149438400Y-108064500D01*
X150155700Y-108743500D02*
X149476700Y-108064500D01*
X150901500Y-108743500D02*
X150155700Y-108743500D01*
X153643600Y-106001400D02*
X150901500Y-108743500D01*
X153643600Y-105698000D02*
X153643600Y-106001400D01*
X154823900Y-104517700D02*
X153643600Y-105698000D01*
X156019600Y-104517700D02*
X154823900Y-104517700D01*
D15*
%TO.N,/Switch*%
X119856900Y-80234600D02*
X120012700Y-80234600D01*
X117818100Y-78195800D02*
X119856900Y-80234600D01*
X117818100Y-76707000D02*
X117818100Y-78195800D01*
X120177500Y-74347600D02*
X117818100Y-76707000D01*
X127898400Y-74347600D02*
X120177500Y-74347600D01*
X129142000Y-73104000D02*
X127898400Y-74347600D01*
X152118000Y-95993200D02*
X153284100Y-94827100D01*
X148373500Y-95993200D02*
X152118000Y-95993200D01*
X147031000Y-94650700D02*
X148373500Y-95993200D01*
X131244700Y-94650700D02*
X147031000Y-94650700D01*
X129604700Y-96290700D02*
X131244700Y-94650700D01*
%TD*%
M02*
