%TF.GenerationSoftware,KiCad,Pcbnew,(6.0.2)*%
%TF.CreationDate,2022-10-22T11:53:18-05:00*%
%TF.ProjectId,REF1222 Optimized,52454631-3232-4322-904f-7074696d697a,rev?*%
%TF.SameCoordinates,Original*%
%TF.FileFunction,Copper,L1,Top*%
%TF.FilePolarity,Positive*%
%FSLAX46Y46*%
G04 Gerber Fmt 4.6, Leading zero omitted, Abs format (unit mm)*
G04 Created by KiCad (PCBNEW (6.0.2)) date 2022-10-22 11:53:18*
%MOMM*%
%LPD*%
G01*
G04 APERTURE LIST*
%ADD10C,0.150000*%
%TA.AperFunction,NonConductor*%
%ADD11C,0.150000*%
%TD*%
%TA.AperFunction,SMDPad,CuDef*%
%ADD12O,2.460000X0.360000*%
%TD*%
%TA.AperFunction,SMDPad,CuDef*%
%ADD13O,0.360000X2.460000*%
%TD*%
%TA.AperFunction,SMDPad,CuDef*%
%ADD14R,1.500000X1.500000*%
%TD*%
%TA.AperFunction,ComponentPad*%
%ADD15C,1.700000*%
%TD*%
%TA.AperFunction,SMDPad,CuDef*%
%ADD16R,1.030000X7.580000*%
%TD*%
%TA.AperFunction,ComponentPad*%
%ADD17C,5.600000*%
%TD*%
%TA.AperFunction,SMDPad,CuDef*%
%ADD18R,2.220000X0.600000*%
%TD*%
%TA.AperFunction,SMDPad,CuDef*%
%ADD19R,0.600000X2.220000*%
%TD*%
%TA.AperFunction,ComponentPad*%
%ADD20C,2.000000*%
%TD*%
%TA.AperFunction,ComponentPad*%
%ADD21C,1.830000*%
%TD*%
%TA.AperFunction,SMDPad,CuDef*%
%ADD22R,3.250000X0.600000*%
%TD*%
%TA.AperFunction,ViaPad*%
%ADD23C,0.800000*%
%TD*%
%TA.AperFunction,Conductor*%
%ADD24C,0.250000*%
%TD*%
%TA.AperFunction,Conductor*%
%ADD25C,0.550000*%
%TD*%
%TA.AperFunction,Conductor*%
%ADD26C,0.500000*%
%TD*%
G04 APERTURE END LIST*
D10*
D11*
X141105190Y-66365619D02*
X140738523Y-65841809D01*
X140476619Y-66365619D02*
X140476619Y-65265619D01*
X140895666Y-65265619D01*
X141000428Y-65318000D01*
X141052809Y-65370380D01*
X141105190Y-65475142D01*
X141105190Y-65632285D01*
X141052809Y-65737047D01*
X141000428Y-65789428D01*
X140895666Y-65841809D01*
X140476619Y-65841809D01*
X141576619Y-65789428D02*
X141943285Y-65789428D01*
X142100428Y-66365619D02*
X141576619Y-66365619D01*
X141576619Y-65265619D01*
X142100428Y-65265619D01*
X142938523Y-65789428D02*
X142571857Y-65789428D01*
X142571857Y-66365619D02*
X142571857Y-65265619D01*
X143095666Y-65265619D01*
X144090904Y-66365619D02*
X143462333Y-66365619D01*
X143776619Y-66365619D02*
X143776619Y-65265619D01*
X143671857Y-65422761D01*
X143567095Y-65527523D01*
X143462333Y-65579904D01*
X144509952Y-65370380D02*
X144562333Y-65318000D01*
X144667095Y-65265619D01*
X144929000Y-65265619D01*
X145033761Y-65318000D01*
X145086142Y-65370380D01*
X145138523Y-65475142D01*
X145138523Y-65579904D01*
X145086142Y-65737047D01*
X144457571Y-66365619D01*
X145138523Y-66365619D01*
X145557571Y-65370380D02*
X145609952Y-65318000D01*
X145714714Y-65265619D01*
X145976619Y-65265619D01*
X146081380Y-65318000D01*
X146133761Y-65370380D01*
X146186142Y-65475142D01*
X146186142Y-65579904D01*
X146133761Y-65737047D01*
X145505190Y-66365619D01*
X146186142Y-66365619D01*
X146605190Y-65370380D02*
X146657571Y-65318000D01*
X146762333Y-65265619D01*
X147024238Y-65265619D01*
X147129000Y-65318000D01*
X147181380Y-65370380D01*
X147233761Y-65475142D01*
X147233761Y-65579904D01*
X147181380Y-65737047D01*
X146552809Y-66365619D01*
X147233761Y-66365619D01*
D12*
%TO.P,U3,1,A0*%
%TO.N,/A0*%
X150184000Y-95791000D03*
%TO.P,U3,2,A1*%
%TO.N,/A1*%
X150184000Y-96791000D03*
%TO.P,U3,3,A2*%
%TO.N,/A2*%
X150184000Y-97791000D03*
%TO.P,U3,4,A3*%
%TO.N,/A3*%
X150184000Y-98791000D03*
%TO.P,U3,5,A4*%
%TO.N,/A4*%
X150184000Y-99791000D03*
%TO.P,U3,6,A5*%
%TO.N,/A5*%
X150184000Y-100791000D03*
%TO.P,U3,7,GND*%
%TO.N,/GND*%
X150184000Y-101791000D03*
%TO.P,U3,8,VCC*%
%TO.N,/VCC*%
X150184000Y-102791000D03*
%TO.P,U3,9,A6*%
%TO.N,/A6*%
X150184000Y-103791000D03*
%TO.P,U3,10,A7*%
%TO.N,/A7*%
X150184000Y-104791000D03*
%TO.P,U3,11,A8*%
%TO.N,/A8*%
X150184000Y-105791000D03*
%TO.P,U3,12,A9*%
%TO.N,/A9*%
X150184000Y-106791000D03*
%TO.P,U3,13,A10*%
%TO.N,/A10*%
X150184000Y-107791000D03*
D13*
%TO.P,U3,14,A11*%
%TO.N,/A11*%
X152834000Y-110441000D03*
%TO.P,U3,15,A12*%
%TO.N,/A12*%
X153834000Y-110441000D03*
%TO.P,U3,16,A13*%
%TO.N,/A13*%
X154834000Y-110441000D03*
%TO.P,U3,17,A14*%
%TO.N,/A14*%
X155834000Y-110441000D03*
%TO.P,U3,18,A15_Cart*%
%TO.N,/A15_Cart*%
X156834000Y-110441000D03*
%TO.P,U3,19,Button*%
%TO.N,/Button*%
X157834000Y-110441000D03*
%TO.P,U3,20,GND*%
%TO.N,/GND*%
X158834000Y-110441000D03*
%TO.P,U3,21,WE_Internal*%
%TO.N,/WE_Internal*%
X159834000Y-110441000D03*
%TO.P,U3,22,SRAM_OE*%
%TO.N,/SRAM_OE*%
X160834000Y-110441000D03*
%TO.P,U3,23,SRAM_CS1*%
%TO.N,/SRAM_CS1*%
X161834000Y-110441000D03*
%TO.P,U3,24,EEPROM_OE*%
%TO.N,/EEPROM_OE*%
X162834000Y-110441000D03*
%TO.P,U3,25,EEPROM_CE*%
%TO.N,/EEPROM_CE*%
X163834000Y-110441000D03*
%TO.P,U3,26,A15_Game*%
%TO.N,/A15_Game*%
X164834000Y-110441000D03*
D12*
%TO.P,U3,27,Wr_Game*%
%TO.N,/Wr_Game*%
X167484000Y-107791000D03*
%TO.P,U3,28,Rd_Game*%
%TO.N,/Rd_Game*%
X167484000Y-106791000D03*
%TO.P,U3,29,Wr_Sys*%
%TO.N,/Wr_Sys*%
X167484000Y-105791000D03*
%TO.P,U3,30,Rd_Sys*%
%TO.N,/Rd_Sys*%
X167484000Y-104791000D03*
%TO.P,U3,31,Const_High*%
%TO.N,/Const_High*%
X167484000Y-103791000D03*
%TO.P,U3,32,VCC*%
%TO.N,/VCC*%
X167484000Y-102791000D03*
%TO.P,U3,33,GND*%
%TO.N,/GND*%
X167484000Y-101791000D03*
%TO.P,U3,34,N/C*%
%TO.N,unconnected-(U3-Pad34)*%
X167484000Y-100791000D03*
%TO.P,U3,35,A16_Internal*%
%TO.N,/A16_Internal*%
X167484000Y-99791000D03*
%TO.P,U3,36,A15_Internal*%
%TO.N,/A15_Internal*%
X167484000Y-98791000D03*
%TO.P,U3,37,A14_Internal*%
%TO.N,/A14_Internal*%
X167484000Y-97791000D03*
%TO.P,U3,38,A13_Internal*%
%TO.N,/A13_Internal*%
X167484000Y-96791000D03*
%TO.P,U3,39,A12_Internal*%
%TO.N,/A12_Internal*%
X167484000Y-95791000D03*
D13*
%TO.P,U3,40,Switch*%
%TO.N,/Switch*%
X164834000Y-93141000D03*
%TO.P,U3,41,N/C*%
%TO.N,unconnected-(U3-Pad41)*%
X163834000Y-93141000D03*
%TO.P,U3,42,D0*%
%TO.N,/D0*%
X162834000Y-93141000D03*
%TO.P,U3,43,D1*%
%TO.N,/D1*%
X161834000Y-93141000D03*
%TO.P,U3,44,D2*%
%TO.N,/D2*%
X160834000Y-93141000D03*
%TO.P,U3,45,D3*%
%TO.N,/D3*%
X159834000Y-93141000D03*
%TO.P,U3,46,GND*%
%TO.N,/GND*%
X158834000Y-93141000D03*
%TO.P,U3,47,D4*%
%TO.N,/D4*%
X157834000Y-93141000D03*
%TO.P,U3,48,D5*%
%TO.N,/D5*%
X156834000Y-93141000D03*
%TO.P,U3,49,D6*%
%TO.N,/D6*%
X155834000Y-93141000D03*
%TO.P,U3,50,D7*%
%TO.N,/D7*%
X154834000Y-93141000D03*
%TO.P,U3,51,N/C*%
%TO.N,unconnected-(U3-Pad51)*%
X153834000Y-93141000D03*
%TO.P,U3,52,N/C*%
%TO.N,unconnected-(U3-Pad52)*%
X152834000Y-93141000D03*
%TD*%
D14*
%TO.P,R1,1*%
%TO.N,/VCC*%
X121529500Y-78239000D03*
%TO.P,R1,2*%
%TO.N,/Const_High*%
X124746500Y-78241000D03*
%TD*%
D15*
%TO.P,J2,1,+5V*%
%TO.N,/VCC*%
X168562000Y-69352000D03*
%TO.P,J2,2,Clock*%
%TO.N,/Clk*%
X167054000Y-70902000D03*
%TO.P,J2,3,Write*%
%TO.N,/Wr_Game*%
X165586000Y-69347000D03*
%TO.P,J2,4,Read*%
%TO.N,/Rd_Game*%
X164080000Y-70903000D03*
%TO.P,J2,5,CS*%
%TO.N,/CS*%
X162568000Y-69354000D03*
%TO.P,J2,6,A0*%
%TO.N,/A0*%
X161064000Y-70903000D03*
%TO.P,J2,7,A1*%
%TO.N,/A1*%
X159555000Y-69353000D03*
%TO.P,J2,8,A2*%
%TO.N,/A2*%
X158085000Y-70902000D03*
%TO.P,J2,9,A3*%
%TO.N,/A3*%
X156542000Y-69354000D03*
%TO.P,J2,10,A4*%
%TO.N,/A4*%
X155030000Y-70902000D03*
%TO.P,J2,11,A5*%
%TO.N,/A5*%
X153523000Y-69352000D03*
%TO.P,J2,12,A6*%
%TO.N,/A6*%
X152014000Y-70902000D03*
%TO.P,J2,13,A7*%
%TO.N,/A7*%
X150507000Y-69353000D03*
%TO.P,J2,14,A8*%
%TO.N,/A8*%
X148960000Y-70900000D03*
%TO.P,J2,15,A9*%
%TO.N,/A9*%
X147530000Y-69352000D03*
%TO.P,J2,16,A10*%
%TO.N,/A10*%
X146022000Y-70899000D03*
%TO.P,J2,17,A11*%
%TO.N,/A11*%
X144513000Y-69312300D03*
%TO.P,J2,18,A12*%
%TO.N,/A12*%
X143004800Y-70899800D03*
%TO.P,J2,19,A13*%
%TO.N,/A13*%
X141498000Y-69311000D03*
%TO.P,J2,20,A14*%
%TO.N,/A14*%
X139988600Y-70899800D03*
%TO.P,J2,21,A15*%
%TO.N,/A15_Game*%
X138482000Y-69314000D03*
%TO.P,J2,22,Data_0*%
%TO.N,/D0*%
X137015000Y-70899000D03*
%TO.P,J2,23,Data_1*%
%TO.N,/D1*%
X135464200Y-69312300D03*
%TO.P,J2,24,Data_2*%
%TO.N,/D2*%
X133915000Y-70899000D03*
%TO.P,J2,25,Data_3*%
%TO.N,/D3*%
X132449000Y-69311000D03*
%TO.P,J2,26,Data_4*%
%TO.N,/D4*%
X130938000Y-70901000D03*
%TO.P,J2,27,Data_5*%
%TO.N,/D5*%
X129427000Y-69349000D03*
%TO.P,J2,28,Data_6*%
%TO.N,/D6*%
X127923000Y-70898000D03*
%TO.P,J2,29,Data_7*%
%TO.N,/D7*%
X126453000Y-69350000D03*
%TO.P,J2,30,Reset*%
%TO.N,/Reset*%
X124949000Y-70902000D03*
%TO.P,J2,31,Audio*%
%TO.N,/Audio*%
X123401000Y-69351000D03*
%TO.P,J2,32,GND*%
%TO.N,/GND*%
X121890000Y-70859000D03*
%TD*%
D14*
%TO.P,C2,1*%
%TO.N,/GND*%
X121654000Y-81335000D03*
%TO.P,C2,2*%
%TO.N,/Button*%
X124871000Y-81337000D03*
%TD*%
%TO.P,R2,1*%
%TO.N,/VCC*%
X121533000Y-84511000D03*
%TO.P,R2,2*%
%TO.N,/Button*%
X124750000Y-84513000D03*
%TD*%
%TO.P,C1,1*%
%TO.N,/GND*%
X121532500Y-75063000D03*
%TO.P,C1,2*%
%TO.N,/Const_High*%
X124749500Y-75065000D03*
%TD*%
D16*
%TO.P,J1,1,+5V*%
%TO.N,/VCC*%
X121694000Y-123521000D03*
%TO.P,J1,2,Clock*%
%TO.N,/Clk*%
X123237000Y-123521000D03*
%TO.P,J1,3,Write*%
%TO.N,/Wr_Sys*%
X124744000Y-123516000D03*
%TO.P,J1,4,Read*%
%TO.N,/Rd_Sys*%
X126254000Y-123512000D03*
%TO.P,J1,5,CS*%
%TO.N,/CS*%
X127761000Y-123512000D03*
%TO.P,J1,6,A0*%
%TO.N,/A0*%
X129232000Y-123512000D03*
%TO.P,J1,7,A1*%
%TO.N,/A1*%
X130739000Y-123512000D03*
%TO.P,J1,8,A2*%
%TO.N,/A2*%
X132245000Y-123512000D03*
%TO.P,J1,9,A3*%
%TO.N,/A3*%
X133752000Y-123494000D03*
%TO.P,J1,10,A4*%
%TO.N,/A4*%
X135258000Y-123504000D03*
%TO.P,J1,11,A5*%
%TO.N,/A5*%
X136765000Y-123504000D03*
%TO.P,J1,12,A6*%
%TO.N,/A6*%
X138272000Y-123516000D03*
%TO.P,J1,13,A7*%
%TO.N,/A7*%
X139790000Y-123516000D03*
%TO.P,J1,14,A8*%
%TO.N,/A8*%
X141294000Y-123521000D03*
%TO.P,J1,15,A9*%
%TO.N,/A9*%
X142801000Y-123521000D03*
%TO.P,J1,16,A10*%
%TO.N,/A10*%
X144344000Y-123521000D03*
%TO.P,J1,17,A11*%
%TO.N,/A11*%
X145815000Y-123521000D03*
%TO.P,J1,18,A12*%
%TO.N,/A12*%
X147286000Y-123521000D03*
%TO.P,J1,19,A13*%
%TO.N,/A13*%
X148811000Y-123521000D03*
%TO.P,J1,20,A14*%
%TO.N,/A14*%
X150301000Y-123511000D03*
%TO.P,J1,21,A15*%
%TO.N,/A15_Cart*%
X151808000Y-123511000D03*
%TO.P,J1,22,Data_0*%
%TO.N,/D0*%
X153315000Y-123511000D03*
%TO.P,J1,23,Data_1*%
%TO.N,/D1*%
X154822000Y-123511000D03*
%TO.P,J1,24,Data_2*%
%TO.N,/D2*%
X156339000Y-123509000D03*
%TO.P,J1,25,Data_3*%
%TO.N,/D3*%
X157846000Y-123509000D03*
%TO.P,J1,26,Data_4*%
%TO.N,/D4*%
X159389000Y-123520000D03*
%TO.P,J1,27,Data_5*%
%TO.N,/D5*%
X160872000Y-123520000D03*
%TO.P,J1,28,Data_6*%
%TO.N,/D6*%
X162362000Y-123503000D03*
%TO.P,J1,29,Data_7*%
%TO.N,/D7*%
X163881000Y-123503000D03*
%TO.P,J1,30,Reset*%
%TO.N,/Reset*%
X165340000Y-123503000D03*
%TO.P,J1,31,Audio*%
%TO.N,/Audio*%
X166859000Y-123515000D03*
%TO.P,J1,32,GND*%
%TO.N,/GND*%
X168366000Y-123515000D03*
%TD*%
D17*
%TO.P,Hole,1*%
%TO.N,N/C*%
X144792000Y-111181000D03*
%TD*%
D18*
%TO.P,U1,1,Vpp*%
%TO.N,unconnected-(U1-Pad1)*%
X151845000Y-79900000D03*
%TO.P,U1,2,A16*%
%TO.N,/A16_Internal*%
X151842000Y-78589000D03*
%TO.P,U1,3,A15*%
%TO.N,/A15_Internal*%
X151845000Y-77362000D03*
%TO.P,U1,4,A12*%
%TO.N,/A12_Internal*%
X151845000Y-76044000D03*
D19*
%TO.P,U1,5,A7*%
%TO.N,/A7*%
X149943000Y-74148000D03*
%TO.P,U1,6,A6*%
%TO.N,/A6*%
X148673000Y-74143000D03*
%TO.P,U1,7,A5*%
%TO.N,/A5*%
X147362000Y-74145000D03*
%TO.P,U1,8,A4*%
%TO.N,/A4*%
X146130000Y-74143000D03*
%TO.P,U1,9,A3*%
%TO.N,/A3*%
X144866000Y-74143000D03*
%TO.P,U1,10,A2*%
%TO.N,/A2*%
X143590000Y-74143000D03*
%TO.P,U1,11,A1*%
%TO.N,/A1*%
X142280000Y-74148000D03*
%TO.P,U1,12,A0*%
%TO.N,/A0*%
X141012000Y-74145000D03*
%TO.P,U1,13,O0*%
%TO.N,/D0*%
X139740000Y-74145000D03*
D18*
%TO.P,U1,14,O1*%
%TO.N,/D1*%
X137835000Y-76050000D03*
%TO.P,U1,15,O2*%
%TO.N,/D2*%
X137837000Y-77359000D03*
%TO.P,U1,16,GND*%
%TO.N,/GND*%
X137835000Y-78587000D03*
%TO.P,U1,17,O3*%
%TO.N,/D3*%
X137835000Y-79900000D03*
%TO.P,U1,18,O4*%
%TO.N,/D4*%
X137835000Y-81167000D03*
%TO.P,U1,19,O5*%
%TO.N,/D5*%
X137835000Y-82478000D03*
%TO.P,U1,20,O6*%
%TO.N,/D6*%
X137835000Y-83747000D03*
D19*
%TO.P,U1,21,O7*%
%TO.N,/D7*%
X139741000Y-85653000D03*
%TO.P,U1,22,CE#*%
%TO.N,/EEPROM_CE*%
X141013000Y-85653000D03*
%TO.P,U1,23,A10*%
%TO.N,/A10*%
X142285000Y-85654000D03*
%TO.P,U1,24,OE#*%
%TO.N,/EEPROM_OE*%
X143590000Y-85654000D03*
%TO.P,U1,25,A11*%
%TO.N,/A11*%
X144859000Y-85654000D03*
%TO.P,U1,26,A9*%
%TO.N,/A9*%
X146131000Y-85654000D03*
%TO.P,U1,27,A8*%
%TO.N,/A8*%
X147363000Y-85653000D03*
%TO.P,U1,28,A13*%
%TO.N,/A13_Internal*%
X148670000Y-85655000D03*
%TO.P,U1,29,A14*%
%TO.N,/A14_Internal*%
X149942000Y-85651000D03*
D18*
%TO.P,U1,30,N/C*%
%TO.N,unconnected-(U1-Pad30)*%
X151845000Y-83746000D03*
%TO.P,U1,31,PGM*%
%TO.N,/WE_Internal*%
X151845000Y-82483000D03*
%TO.P,U1,32,VCC*%
%TO.N,/VCC*%
X151845000Y-81206000D03*
%TD*%
D14*
%TO.P,C3,1*%
%TO.N,/VCC*%
X121652000Y-90739000D03*
%TO.P,C3,2*%
%TO.N,/GND*%
X124869000Y-90741000D03*
%TD*%
D20*
%TO.P,SW1,1,1*%
%TO.N,unconnected-(SW1-Pad1)*%
X149668800Y-65737400D03*
%TO.P,SW1,2,2*%
%TO.N,/GND*%
X150942800Y-63553400D03*
%TO.P,SW1,3,3*%
%TO.N,/Button*%
X155383800Y-63557400D03*
%TO.P,SW1,4,4*%
%TO.N,unconnected-(SW1-Pad4)*%
X156693800Y-65742400D03*
%TD*%
D14*
%TO.P,R3,1*%
%TO.N,/VCC*%
X121530000Y-87565000D03*
%TO.P,R3,2*%
%TO.N,/Switch*%
X124747000Y-87567000D03*
%TD*%
D21*
%TO.P,J3,1,A*%
%TO.N,unconnected-(J3-Pad1)*%
X128995000Y-66492000D03*
%TO.P,J3,2,B*%
%TO.N,/Switch*%
X131573000Y-66489000D03*
%TO.P,J3,3,C*%
%TO.N,/GND*%
X134116000Y-66484000D03*
%TO.P,J3,4*%
%TO.N,N/C*%
X125222000Y-66490000D03*
%TO.P,J3,5*%
X137966000Y-66491000D03*
%TD*%
D22*
%TO.P,U2,1,N/C*%
%TO.N,unconnected-(U2-Pad1)*%
X135456000Y-112652000D03*
%TO.P,U2,2,A16*%
%TO.N,/A16_Internal*%
X135452000Y-111377000D03*
%TO.P,U2,3,A14*%
%TO.N,/A14_Internal*%
X135457000Y-110072000D03*
%TO.P,U2,4,A12*%
%TO.N,/A12_Internal*%
X135453000Y-108843000D03*
%TO.P,U2,5,A7*%
%TO.N,/A7*%
X135450000Y-107529000D03*
%TO.P,U2,6,A6*%
%TO.N,/A6*%
X135458000Y-106216000D03*
%TO.P,U2,7,A5*%
%TO.N,/A5*%
X135451000Y-104948000D03*
%TO.P,U2,8,A4*%
%TO.N,/A4*%
X135455000Y-103679000D03*
%TO.P,U2,9,A3*%
%TO.N,/A3*%
X135455000Y-102409000D03*
%TO.P,U2,10,A2*%
%TO.N,/A2*%
X135455000Y-101102000D03*
%TO.P,U2,11,A1*%
%TO.N,/A1*%
X135455000Y-99786000D03*
%TO.P,U2,12,A0*%
%TO.N,/A0*%
X135455000Y-98522000D03*
%TO.P,U2,13,I/O_1*%
%TO.N,/D0*%
X135455000Y-97247000D03*
%TO.P,U2,14,I/O_2*%
%TO.N,/D1*%
X135455000Y-95983000D03*
%TO.P,U2,15,I/O_3*%
%TO.N,/D2*%
X135451000Y-94674000D03*
%TO.P,U2,16,GND*%
%TO.N,/GND*%
X135459000Y-93439000D03*
%TO.P,U2,17,I/O_4*%
%TO.N,/D3*%
X123585000Y-93437000D03*
%TO.P,U2,18,I/O_5*%
%TO.N,/D4*%
X123585000Y-94669000D03*
%TO.P,U2,19,I/O_6*%
%TO.N,/D5*%
X123585000Y-95978000D03*
%TO.P,U2,20,I/O_7*%
%TO.N,/D6*%
X123585000Y-97250000D03*
%TO.P,U2,21,I/O_8*%
%TO.N,/D7*%
X123585000Y-98520000D03*
%TO.P,U2,22,/CS1*%
%TO.N,/SRAM_CS1*%
X123585000Y-99786000D03*
%TO.P,U2,23,A10*%
%TO.N,/A10*%
X123585000Y-101100000D03*
%TO.P,U2,24,/OE*%
%TO.N,/SRAM_OE*%
X123589000Y-102407000D03*
%TO.P,U2,25,A11*%
%TO.N,/A11*%
X123585000Y-103679000D03*
%TO.P,U2,26,A9*%
%TO.N,/A9*%
X123589000Y-104952000D03*
%TO.P,U2,27,A8*%
%TO.N,/A8*%
X123589000Y-106220000D03*
%TO.P,U2,28,A13*%
%TO.N,/A13_Internal*%
X123585000Y-107528000D03*
%TO.P,U2,29,/WE*%
%TO.N,/WE_Internal*%
X123585000Y-108842000D03*
%TO.P,U2,30,CS2*%
%TO.N,/VCC*%
X123592000Y-110070000D03*
%TO.P,U2,31,A15*%
%TO.N,/A15_Internal*%
X123589000Y-111376000D03*
%TO.P,U2,32,VCC*%
%TO.N,/VCC*%
X123585000Y-112651000D03*
%TD*%
D23*
%TO.N,/Const_High*%
X127606100Y-82597300D03*
X162664300Y-103400000D03*
%TO.N,/Rd_Sys*%
X126180900Y-119095300D03*
X170338300Y-117076500D03*
%TO.N,/Wr_Sys*%
X127197600Y-118935900D03*
X169679700Y-105503900D03*
%TO.N,/Button*%
X128619000Y-91111400D03*
X156534200Y-108587500D03*
X168505400Y-116774800D03*
%TO.N,/Audio*%
X166859000Y-119118100D03*
X123604600Y-85781400D03*
%TO.N,/Reset*%
X163418200Y-112755000D03*
%TO.N,/A15_Game*%
X165700300Y-110556900D03*
%TO.N,/A14*%
X151260500Y-116746100D03*
%TO.N,/A13*%
X148811000Y-117646300D03*
%TO.N,/A12*%
X149502900Y-116923600D03*
%TO.N,/CS*%
X128482200Y-117119100D03*
%TO.N,/Clk*%
X125779800Y-117615100D03*
%TO.N,/SRAM_OE*%
X125884400Y-102461900D03*
X157773600Y-107422300D03*
%TO.N,/SRAM_CS1*%
X127472600Y-106345600D03*
X160837600Y-112357100D03*
%TO.N,/VCC*%
X153981300Y-80743000D03*
X169712600Y-100194400D03*
X127982500Y-92149400D03*
X157644200Y-105658100D03*
X152101400Y-103793900D03*
%TO.N,/WE_Internal*%
X153557800Y-97000400D03*
X138138900Y-95323500D03*
X159519900Y-112274700D03*
%TO.N,/A14_Internal*%
X160564800Y-99046900D03*
X136470200Y-114596000D03*
%TO.N,/A13_Internal*%
X136185700Y-90945200D03*
X148670000Y-90403400D03*
%TO.N,/A8*%
X125956100Y-105388100D03*
X147199600Y-89818000D03*
X140787000Y-113749600D03*
%TO.N,/A9*%
X121240100Y-103383000D03*
X142801000Y-116107700D03*
X146221100Y-89201800D03*
%TO.N,/A11*%
X125813700Y-103957600D03*
X144871900Y-79739700D03*
X144909900Y-89985800D03*
X150546600Y-109147000D03*
%TO.N,/EEPROM_OE*%
X147382500Y-95753200D03*
X161474400Y-108431500D03*
%TO.N,/A10*%
X152028600Y-107905100D03*
X125846700Y-100941300D03*
X142369200Y-90329200D03*
%TO.N,/EEPROM_CE*%
X141746500Y-95276700D03*
X161463800Y-107306200D03*
%TO.N,/D7*%
X137348000Y-85352500D03*
X154834000Y-91236200D03*
X162070000Y-114089200D03*
%TO.N,/D6*%
X155507500Y-100951400D03*
X157326800Y-112556300D03*
X130377100Y-94011700D03*
%TO.N,/D5*%
X139570900Y-82421700D03*
X154148200Y-89025900D03*
X160405800Y-115417800D03*
%TO.N,/D4*%
X159396000Y-116158400D03*
X158120600Y-90246600D03*
%TO.N,/D3*%
X159834000Y-90777300D03*
X158104200Y-116588500D03*
%TO.N,/D2*%
X159118000Y-96412300D03*
X156984500Y-116564500D03*
X157282700Y-87675600D03*
X138389200Y-93414900D03*
%TO.N,/D1*%
X137681500Y-96280500D03*
X161834000Y-91189500D03*
X155213600Y-115098300D03*
X157207800Y-101135900D03*
%TO.N,/D0*%
X157420900Y-102816100D03*
X133206900Y-96704500D03*
X164021000Y-94973700D03*
X153936300Y-115116900D03*
%TO.N,/A0*%
X141640700Y-75973400D03*
X139556300Y-93273200D03*
X147235100Y-94298900D03*
%TO.N,/A1*%
X140329400Y-96301000D03*
X146372100Y-96301000D03*
X142640900Y-75934600D03*
X143735800Y-78684900D03*
%TO.N,/A2*%
X143641100Y-75871600D03*
%TO.N,/A3*%
X147432500Y-72066900D03*
%TO.N,/A4*%
X146521800Y-75912300D03*
X135221300Y-116671400D03*
X155030000Y-74333700D03*
%TO.N,/A5*%
X147301500Y-77220100D03*
X153581700Y-76178900D03*
%TO.N,/A6*%
X138238800Y-116671400D03*
X148564700Y-76318900D03*
X151661900Y-75101300D03*
%TO.N,/A7*%
X139819900Y-119039000D03*
%TO.N,/A12_Internal*%
X140722700Y-105100000D03*
X148044900Y-91452200D03*
%TO.N,/A15_Internal*%
X140635600Y-93326300D03*
X160799200Y-100671400D03*
%TO.N,/A16_Internal*%
X144454600Y-103968600D03*
X157548500Y-103819300D03*
%TO.N,/GND*%
X137534100Y-92718500D03*
X147641800Y-100928800D03*
X134513700Y-78632700D03*
X138436000Y-85480800D03*
%TO.N,/Switch*%
X124831000Y-85890900D03*
X161044600Y-97369000D03*
%TD*%
D24*
%TO.N,/Const_High*%
X124746500Y-76143100D02*
X124746500Y-77703400D01*
X124749500Y-76140100D02*
X124746500Y-76143100D01*
X124749500Y-75065000D02*
X124749500Y-76140100D01*
X124746500Y-78241000D02*
X124746500Y-77972200D01*
X124746500Y-77972200D02*
X124746500Y-77703400D01*
X127606100Y-80831800D02*
X127606100Y-82597300D01*
X124746500Y-77972200D02*
X127606100Y-80831800D01*
X167484000Y-103791000D02*
X165928900Y-103791000D01*
X165537900Y-103400000D02*
X162664300Y-103400000D01*
X165928900Y-103791000D02*
X165537900Y-103400000D01*
%TO.N,/Rd_Sys*%
X126257000Y-120545000D02*
X126237000Y-120564500D01*
X167484000Y-104791000D02*
X165928900Y-104791000D01*
X170338300Y-112422800D02*
X170338300Y-117076500D01*
X165928900Y-108013400D02*
X170338300Y-112422800D01*
X165928900Y-104791000D02*
X165928900Y-108013400D01*
X126180900Y-120508400D02*
X126180900Y-119095300D01*
X126237000Y-120564500D02*
X126180900Y-120508400D01*
X126237000Y-120564500D02*
X126217000Y-120584000D01*
X126217000Y-123475000D02*
X126217000Y-120584000D01*
X126254000Y-123512000D02*
X126217000Y-123475000D01*
%TO.N,/Wr_Sys*%
X167484000Y-105791000D02*
X169039100Y-105791000D01*
X126609600Y-118347900D02*
X127197600Y-118935900D01*
X125797000Y-118347900D02*
X126609600Y-118347900D01*
X124744000Y-119400900D02*
X125797000Y-118347900D01*
X124744000Y-123516000D02*
X124744000Y-119400900D01*
X169326200Y-105503900D02*
X169679700Y-105503900D01*
X169039100Y-105791000D02*
X169326200Y-105503900D01*
%TO.N,/Button*%
X124669500Y-84309900D02*
X124630000Y-84349600D01*
X124750000Y-84390400D02*
X124750000Y-84513000D01*
X124669500Y-84309900D02*
X124750000Y-84390400D01*
X124709000Y-84270200D02*
X124669500Y-84309900D01*
X124709000Y-82574100D02*
X124709000Y-84270200D01*
X124871000Y-82412100D02*
X124709000Y-82574100D01*
X124871000Y-81337000D02*
X124871000Y-82412100D01*
X157834000Y-110188500D02*
X157834000Y-108885900D01*
X157834000Y-110188500D02*
X157834000Y-110441000D01*
X157834000Y-110441000D02*
X157834000Y-111996100D01*
X128619000Y-88382000D02*
X128619000Y-91111400D01*
X124750000Y-84513000D02*
X128619000Y-88382000D01*
X156832600Y-108885900D02*
X157834000Y-108885900D01*
X156534200Y-108587500D02*
X156832600Y-108885900D01*
X158935400Y-113097500D02*
X157834000Y-111996100D01*
X162050400Y-113097500D02*
X158935400Y-113097500D01*
X163118000Y-112029900D02*
X162050400Y-113097500D01*
X163760500Y-112029900D02*
X163118000Y-112029900D01*
X168505400Y-116774800D02*
X163760500Y-112029900D01*
%TO.N,/A15_Cart*%
X151808000Y-123511000D02*
X151808000Y-119395900D01*
X156834000Y-110441000D02*
X156834000Y-111996100D01*
X152033000Y-119170900D02*
X151808000Y-119395900D01*
X152033000Y-115994700D02*
X152033000Y-119170900D01*
X153635900Y-114391800D02*
X152033000Y-115994700D01*
X154438300Y-114391800D02*
X153635900Y-114391800D01*
X156834000Y-111996100D02*
X154438300Y-114391800D01*
%TO.N,/Audio*%
X166859000Y-123515000D02*
X166859000Y-119399900D01*
X123401000Y-85577800D02*
X123604600Y-85781400D01*
X123401000Y-69351000D02*
X123401000Y-85577800D01*
X166859000Y-119399900D02*
X166859000Y-119118100D01*
%TO.N,/Reset*%
X165340000Y-114676800D02*
X163418200Y-112755000D01*
X165340000Y-123503000D02*
X165340000Y-114676800D01*
%TO.N,/A15_Game*%
X165700300Y-111339100D02*
X165700300Y-110556900D01*
X165043300Y-111996100D02*
X165700300Y-111339100D01*
X164834000Y-111996100D02*
X165043300Y-111996100D01*
X164834000Y-110441000D02*
X164834000Y-111996100D01*
%TO.N,/A14*%
X155834000Y-110441000D02*
X155834000Y-111996100D01*
X151260500Y-116891600D02*
X151260500Y-116746100D01*
X150301000Y-117851100D02*
X151260500Y-116891600D01*
X150301000Y-123511000D02*
X150301000Y-117851100D01*
X151260500Y-116130700D02*
X151260500Y-116746100D01*
X153449500Y-113941700D02*
X151260500Y-116130700D01*
X153888400Y-113941700D02*
X153449500Y-113941700D01*
X155834000Y-111996100D02*
X153888400Y-113941700D01*
%TO.N,/A13*%
X154834000Y-110441000D02*
X154834000Y-111996100D01*
X148811000Y-123521000D02*
X148811000Y-117702600D01*
X148811000Y-117702600D02*
X148811000Y-117646300D01*
X149778400Y-117702600D02*
X148811000Y-117702600D01*
X150321300Y-117159700D02*
X149778400Y-117702600D01*
X150321300Y-116433300D02*
X150321300Y-117159700D01*
X154758500Y-111996100D02*
X150321300Y-116433300D01*
X154834000Y-111996100D02*
X154758500Y-111996100D01*
%TO.N,/A12*%
X147286000Y-123521000D02*
X147286000Y-119405900D01*
X153834000Y-110441000D02*
X153834000Y-111996100D01*
X147286000Y-118145900D02*
X147286000Y-119405900D01*
X148510700Y-116921200D02*
X147286000Y-118145900D01*
X149500500Y-116921200D02*
X148510700Y-116921200D01*
X149502900Y-116923600D02*
X149500500Y-116921200D01*
X149502900Y-116327200D02*
X149502900Y-116923600D01*
X153834000Y-111996100D02*
X149502900Y-116327200D01*
%TO.N,/CS*%
X128482200Y-118784600D02*
X128482200Y-117119100D01*
X127761000Y-119505800D02*
X128482200Y-118784600D01*
X127761000Y-123512000D02*
X127761000Y-119505800D01*
%TO.N,/Rd_Game*%
X167484000Y-106791000D02*
X169039100Y-106791000D01*
X170471900Y-77294900D02*
X164080000Y-70903000D01*
X170471900Y-105841600D02*
X170471900Y-77294900D01*
X169522500Y-106791000D02*
X170471900Y-105841600D01*
X169039100Y-106791000D02*
X169522500Y-106791000D01*
%TO.N,/Wr_Game*%
X167484000Y-107791000D02*
X169039100Y-107791000D01*
X165586000Y-71659300D02*
X165586000Y-69347000D01*
X170955300Y-77028600D02*
X165586000Y-71659300D01*
X170955300Y-105994800D02*
X170955300Y-77028600D01*
X169159100Y-107791000D02*
X170955300Y-105994800D01*
X169039100Y-107791000D02*
X169159100Y-107791000D01*
%TO.N,/Clk*%
X123360000Y-120267000D02*
X123380000Y-120286500D01*
X123380000Y-120286500D02*
X123400000Y-120306000D01*
X123400000Y-123358000D02*
X123400000Y-120306000D01*
X123237000Y-123521000D02*
X123400000Y-123358000D01*
X123380000Y-120014900D02*
X125779800Y-117615100D01*
X123380000Y-120286500D02*
X123380000Y-120014900D01*
%TO.N,/SRAM_OE*%
X123589000Y-102407000D02*
X125539100Y-102407000D01*
X160834000Y-110441000D02*
X160834000Y-108885900D01*
X125594000Y-102461900D02*
X125884400Y-102461900D01*
X125539100Y-102407000D02*
X125594000Y-102461900D01*
X159370400Y-107422300D02*
X157773600Y-107422300D01*
X160834000Y-108885900D02*
X159370400Y-107422300D01*
%TO.N,/SRAM_CS1*%
X161198600Y-111996100D02*
X161834000Y-111996100D01*
X160837600Y-112357100D02*
X161198600Y-111996100D01*
X161834000Y-110441000D02*
X161834000Y-111996100D01*
X127472600Y-101519200D02*
X127472600Y-106345600D01*
X125739400Y-99786000D02*
X127472600Y-101519200D01*
X123585000Y-99786000D02*
X125739400Y-99786000D01*
D25*
%TO.N,/VCC*%
X121415000Y-78079000D02*
X121455000Y-78039300D01*
D26*
X151845000Y-81206000D02*
X153405100Y-81206000D01*
X121533000Y-86361900D02*
X121533000Y-84511000D01*
X121530000Y-86364900D02*
X121533000Y-86361900D01*
X121533000Y-84511000D02*
X121533000Y-83310900D01*
X167484000Y-102791000D02*
X169164100Y-102791000D01*
X121652000Y-91489000D02*
X121652000Y-91639000D01*
X121530000Y-87280900D02*
X121530000Y-86364900D01*
X121530000Y-87280900D02*
X121530000Y-87565000D01*
X121530000Y-89416900D02*
X121652000Y-89538900D01*
X121530000Y-87565000D02*
X121530000Y-89416900D01*
X121652000Y-90739000D02*
X121652000Y-89538900D01*
X121652000Y-91489000D02*
X121652000Y-90739000D01*
X121415000Y-78239000D02*
X121529500Y-78239000D01*
X120453800Y-79200200D02*
X121415000Y-78239000D01*
X120453800Y-82366700D02*
X120453800Y-79200200D01*
X121398000Y-83310900D02*
X120453800Y-82366700D01*
X121533000Y-83310900D02*
X121398000Y-83310900D01*
X121415000Y-78239000D02*
X121415000Y-78079000D01*
X121803100Y-91790100D02*
X121803100Y-91941200D01*
X121652000Y-91639000D02*
X121803100Y-91790100D01*
X123585000Y-112651000D02*
X121509900Y-112651000D01*
X123592000Y-110070000D02*
X121516900Y-110070000D01*
X120390000Y-108943100D02*
X121516900Y-110070000D01*
X120390000Y-93354300D02*
X120390000Y-108943100D01*
X121803100Y-91941200D02*
X120390000Y-93354300D01*
X121509900Y-110077000D02*
X121509900Y-112651000D01*
X121516900Y-110070000D02*
X121509900Y-110077000D01*
X121509900Y-119096800D02*
X121694000Y-119280900D01*
X121509900Y-112651000D02*
X121509900Y-119096800D01*
X121694000Y-123521000D02*
X121694000Y-119280900D01*
X167484000Y-102791000D02*
X165803900Y-102791000D01*
X150184000Y-102791000D02*
X151864100Y-102791000D01*
X127774300Y-91941200D02*
X127982500Y-92149400D01*
X121803100Y-91941200D02*
X127774300Y-91941200D01*
X153868100Y-80743000D02*
X153981300Y-80743000D01*
X153405100Y-81206000D02*
X153868100Y-80743000D01*
X151864100Y-103556600D02*
X152101400Y-103793900D01*
X151864100Y-102791000D02*
X151864100Y-103556600D01*
X158811200Y-105658100D02*
X157644200Y-105658100D01*
X161919500Y-102549800D02*
X158811200Y-105658100D01*
X165562700Y-102549800D02*
X161919500Y-102549800D01*
X165803900Y-102791000D02*
X165562700Y-102549800D01*
X169164100Y-100742900D02*
X169712600Y-100194400D01*
X169164100Y-102791000D02*
X169164100Y-100742900D01*
D24*
%TO.N,/WE_Internal*%
X151845000Y-82483000D02*
X153280100Y-82483000D01*
X123585000Y-108842000D02*
X125535100Y-108842000D01*
X153557800Y-96069400D02*
X153557800Y-97000400D01*
X152321200Y-94832800D02*
X153557800Y-96069400D01*
X152321200Y-86625800D02*
X152321200Y-94832800D01*
X153280100Y-85666900D02*
X152321200Y-86625800D01*
X153280100Y-82483000D02*
X153280100Y-85666900D01*
X159834000Y-110441000D02*
X159834000Y-111996100D01*
X159798500Y-111996100D02*
X159834000Y-111996100D01*
X159519900Y-112274700D02*
X159798500Y-111996100D01*
X133519100Y-95323500D02*
X138138900Y-95323500D01*
X128649700Y-100192900D02*
X133519100Y-95323500D01*
X128649700Y-106867400D02*
X128649700Y-100192900D01*
X126675100Y-108842000D02*
X128649700Y-106867400D01*
X125535100Y-108842000D02*
X126675100Y-108842000D01*
%TO.N,/A14_Internal*%
X167484000Y-97791000D02*
X165928900Y-97791000D01*
X135457000Y-110072000D02*
X133506900Y-110072000D01*
X149942000Y-82438500D02*
X149942000Y-85651000D01*
X150522700Y-81857800D02*
X149942000Y-82438500D01*
X155342700Y-81857800D02*
X150522700Y-81857800D01*
X165362900Y-91878000D02*
X155342700Y-81857800D01*
X165362900Y-97791000D02*
X165362900Y-91878000D01*
X165362900Y-97791000D02*
X165928900Y-97791000D01*
X161820700Y-97791000D02*
X160564800Y-99046900D01*
X165362900Y-97791000D02*
X161820700Y-97791000D01*
X133450600Y-110128300D02*
X133506900Y-110072000D01*
X133450600Y-113059800D02*
X133450600Y-110128300D01*
X134986800Y-114596000D02*
X133450600Y-113059800D01*
X136470200Y-114596000D02*
X134986800Y-114596000D01*
%TO.N,/A13_Internal*%
X167484000Y-96791000D02*
X165928900Y-96791000D01*
X148670000Y-85655000D02*
X148670000Y-84219900D01*
X148670000Y-82509100D02*
X148670000Y-84219900D01*
X150598400Y-80580700D02*
X148670000Y-82509100D01*
X153042800Y-80580700D02*
X150598400Y-80580700D01*
X153605600Y-80017900D02*
X153042800Y-80580700D01*
X154281700Y-80017900D02*
X153605600Y-80017900D01*
X154706400Y-80442600D02*
X154281700Y-80017900D01*
X154706400Y-80585000D02*
X154706400Y-80442600D01*
X165928900Y-91807500D02*
X154706400Y-80585000D01*
X165928900Y-96791000D02*
X165928900Y-91807500D01*
X135548100Y-90945200D02*
X136185700Y-90945200D01*
X128197800Y-98295500D02*
X135548100Y-90945200D01*
X128197800Y-106670800D02*
X128197800Y-98295500D01*
X127340600Y-107528000D02*
X128197800Y-106670800D01*
X123585000Y-107528000D02*
X127340600Y-107528000D01*
X148670000Y-85655000D02*
X148670000Y-90403400D01*
%TO.N,/A8*%
X123589000Y-106220000D02*
X125539100Y-106220000D01*
X125956100Y-105803000D02*
X125956100Y-105388100D01*
X125539100Y-106220000D02*
X125956100Y-105803000D01*
X147363000Y-86370500D02*
X147363000Y-87088100D01*
X141294000Y-123521000D02*
X141294000Y-119405900D01*
X140787000Y-118898900D02*
X141294000Y-119405900D01*
X140787000Y-113749600D02*
X140787000Y-118898900D01*
X140787000Y-110756000D02*
X140787000Y-113749600D01*
X145752000Y-105791000D02*
X140787000Y-110756000D01*
X150184000Y-105791000D02*
X145752000Y-105791000D01*
X147363000Y-86370500D02*
X147363000Y-85653000D01*
X149308000Y-71248000D02*
X148960000Y-70900000D01*
X149308000Y-79857600D02*
X149308000Y-71248000D01*
X147552700Y-81612900D02*
X149308000Y-79857600D01*
X147552700Y-84028200D02*
X147552700Y-81612900D01*
X147363000Y-84217900D02*
X147552700Y-84028200D01*
X147363000Y-85653000D02*
X147363000Y-84217900D01*
X147199600Y-87251500D02*
X147199600Y-89818000D01*
X147363000Y-87088100D02*
X147199600Y-87251500D01*
%TO.N,/A9*%
X121240100Y-104553200D02*
X121240100Y-103383000D01*
X121638900Y-104952000D02*
X121240100Y-104553200D01*
X123589000Y-104952000D02*
X121638900Y-104952000D01*
X146131000Y-85654000D02*
X146131000Y-84218900D01*
X150184000Y-106791000D02*
X148628900Y-106791000D01*
X142801000Y-123521000D02*
X142801000Y-116107700D01*
X148628900Y-111813700D02*
X148628900Y-106791000D01*
X144334900Y-116107700D02*
X148628900Y-111813700D01*
X142801000Y-116107700D02*
X144334900Y-116107700D01*
X147530000Y-71139000D02*
X147530000Y-69352000D01*
X148157600Y-71766600D02*
X147530000Y-71139000D01*
X148157600Y-72367300D02*
X148157600Y-71766600D01*
X147995700Y-72529200D02*
X148157600Y-72367300D01*
X147995700Y-75862500D02*
X147995700Y-72529200D01*
X147826900Y-76031300D02*
X147995700Y-75862500D01*
X147826900Y-76631900D02*
X147826900Y-76031300D01*
X148047800Y-76852800D02*
X147826900Y-76631900D01*
X148047800Y-78135900D02*
X148047800Y-76852800D01*
X147102500Y-79081200D02*
X148047800Y-78135900D01*
X147102500Y-83247400D02*
X147102500Y-79081200D01*
X146131000Y-84218900D02*
X147102500Y-83247400D01*
X146131000Y-89111700D02*
X146221100Y-89201800D01*
X146131000Y-85654000D02*
X146131000Y-89111700D01*
%TO.N,/A11*%
X152834000Y-111218500D02*
X152834000Y-111996100D01*
X145815000Y-123521000D02*
X145815000Y-119405900D01*
X152834000Y-111218500D02*
X152834000Y-110441000D01*
X123585000Y-103679000D02*
X125535100Y-103679000D01*
X144859000Y-85654000D02*
X144859000Y-87089100D01*
X150807700Y-108885900D02*
X152834000Y-108885900D01*
X150546600Y-109147000D02*
X150807700Y-108885900D01*
X152834000Y-110441000D02*
X152834000Y-108885900D01*
X125535100Y-103679000D02*
X125813700Y-103957600D01*
X144859000Y-79752600D02*
X144871900Y-79739700D01*
X144859000Y-85654000D02*
X144859000Y-79752600D01*
X145815000Y-118980300D02*
X145815000Y-119405900D01*
X152799200Y-111996100D02*
X145815000Y-118980300D01*
X152834000Y-111996100D02*
X152799200Y-111996100D01*
X144859000Y-89934900D02*
X144909900Y-89985800D01*
X144859000Y-87089100D02*
X144859000Y-89934900D01*
%TO.N,/EEPROM_OE*%
X162834000Y-110441000D02*
X162834000Y-108885900D01*
X143590000Y-85654000D02*
X143590000Y-87089100D01*
X161928800Y-108885900D02*
X161474400Y-108431500D01*
X162834000Y-108885900D02*
X161928800Y-108885900D01*
X143734700Y-92105400D02*
X147382500Y-95753200D01*
X143734700Y-87233800D02*
X143734700Y-92105400D01*
X143590000Y-87089100D02*
X143734700Y-87233800D01*
%TO.N,/A10*%
X150184000Y-107791000D02*
X151739100Y-107791000D01*
X144344000Y-123521000D02*
X144344000Y-119405900D01*
X151914500Y-107791000D02*
X152028600Y-107905100D01*
X151739100Y-107791000D02*
X151914500Y-107791000D01*
X149821500Y-113928400D02*
X144344000Y-119405900D01*
X149821500Y-108153500D02*
X149821500Y-113928400D01*
X150184000Y-107791000D02*
X149821500Y-108153500D01*
X142285000Y-84936400D02*
X142285000Y-84218900D01*
X144240900Y-72680100D02*
X146022000Y-70899000D01*
X144240900Y-75445900D02*
X144240900Y-72680100D01*
X144370100Y-75575100D02*
X144240900Y-75445900D01*
X144370100Y-76912300D02*
X144370100Y-75575100D01*
X142285000Y-78997400D02*
X144370100Y-76912300D01*
X142285000Y-84218900D02*
X142285000Y-78997400D01*
X125688000Y-101100000D02*
X125846700Y-100941300D01*
X123585000Y-101100000D02*
X125688000Y-101100000D01*
X142285000Y-84936400D02*
X142285000Y-85654000D01*
X142285000Y-90245000D02*
X142369200Y-90329200D01*
X142285000Y-85654000D02*
X142285000Y-90245000D01*
%TO.N,/EEPROM_CE*%
X141875600Y-95147600D02*
X141746500Y-95276700D01*
X141875600Y-92264300D02*
X141875600Y-95147600D01*
X141013000Y-91401700D02*
X141875600Y-92264300D01*
X141013000Y-85653000D02*
X141013000Y-91401700D01*
X163834000Y-110441000D02*
X163834000Y-108885900D01*
X162254300Y-107306200D02*
X163834000Y-108885900D01*
X161463800Y-107306200D02*
X162254300Y-107306200D01*
%TO.N,/D7*%
X137991900Y-84708600D02*
X137348000Y-85352500D01*
X138796600Y-84708600D02*
X137991900Y-84708600D01*
X139741000Y-85653000D02*
X138796600Y-84708600D01*
X126895000Y-98520000D02*
X123585000Y-98520000D01*
X137348000Y-88067000D02*
X126895000Y-98520000D01*
X137348000Y-85352500D02*
X137348000Y-88067000D01*
X154834000Y-93141000D02*
X154834000Y-91585900D01*
X154834000Y-91585900D02*
X154834000Y-91236200D01*
X163881000Y-115900200D02*
X162070000Y-114089200D01*
X163881000Y-123503000D02*
X163881000Y-115900200D01*
%TO.N,/D6*%
X124560100Y-97250000D02*
X125535100Y-97250000D01*
X155834000Y-93141000D02*
X155834000Y-94696100D01*
X124560100Y-97250000D02*
X123585000Y-97250000D01*
X123585000Y-97250000D02*
X121634900Y-97250000D01*
X121184800Y-96799900D02*
X121634900Y-97250000D01*
X121184800Y-93447500D02*
X121184800Y-96799900D01*
X121861600Y-92770700D02*
X121184800Y-93447500D01*
X127136200Y-92770700D02*
X121861600Y-92770700D01*
X127300600Y-92935100D02*
X127136200Y-92770700D01*
X128261000Y-92935100D02*
X127300600Y-92935100D01*
X129373700Y-91822400D02*
X128261000Y-92935100D01*
X129373700Y-72348700D02*
X129373700Y-91822400D01*
X127923000Y-70898000D02*
X129373700Y-72348700D01*
X159052700Y-114282200D02*
X157326800Y-112556300D01*
X160334200Y-114282200D02*
X159052700Y-114282200D01*
X162362000Y-116310000D02*
X160334200Y-114282200D01*
X162362000Y-123503000D02*
X162362000Y-116310000D01*
X155507500Y-95022600D02*
X155507500Y-100951400D01*
X155834000Y-94696100D02*
X155507500Y-95022600D01*
X137835000Y-83747000D02*
X136399900Y-83747000D01*
X136399900Y-87988900D02*
X130377100Y-94011700D01*
X136399900Y-83747000D02*
X136399900Y-87988900D01*
X127138800Y-97250000D02*
X125535100Y-97250000D01*
X130377100Y-94011700D02*
X127138800Y-97250000D01*
%TO.N,/D5*%
X139514600Y-82478000D02*
X139570900Y-82421700D01*
X137835000Y-82478000D02*
X139514600Y-82478000D01*
X137835000Y-82478000D02*
X136399900Y-82478000D01*
X160872000Y-123520000D02*
X160872000Y-119404900D01*
X156708200Y-91585900D02*
X154148200Y-89025900D01*
X156834000Y-91585900D02*
X156708200Y-91585900D01*
X160872000Y-115884000D02*
X160405800Y-115417800D01*
X160872000Y-119404900D02*
X160872000Y-115884000D01*
X127191000Y-95978000D02*
X123585000Y-95978000D01*
X134360200Y-88808800D02*
X127191000Y-95978000D01*
X134360200Y-84517700D02*
X134360200Y-88808800D01*
X136399900Y-82478000D02*
X134360200Y-84517700D01*
X156834000Y-93141000D02*
X156834000Y-91585900D01*
%TO.N,/D4*%
X159396000Y-120822000D02*
X159396000Y-120598800D01*
X159389000Y-120605800D02*
X159389000Y-123520000D01*
X159396000Y-120598800D02*
X159389000Y-120605800D01*
X137835000Y-81167000D02*
X136399900Y-81167000D01*
X130938000Y-76719000D02*
X135693300Y-81474300D01*
X130938000Y-70901000D02*
X130938000Y-76719000D01*
X136092600Y-81474300D02*
X136399900Y-81167000D01*
X135693300Y-81474300D02*
X136092600Y-81474300D01*
X159396000Y-120598800D02*
X159396000Y-120227000D01*
X127163700Y-94669000D02*
X123585000Y-94669000D01*
X130144800Y-91687900D02*
X127163700Y-94669000D01*
X130144800Y-87022800D02*
X130144800Y-91687900D01*
X135693300Y-81474300D02*
X130144800Y-87022800D01*
X159396000Y-120227000D02*
X159396000Y-116158400D01*
X157834000Y-90533200D02*
X158120600Y-90246600D01*
X157834000Y-93141000D02*
X157834000Y-90533200D01*
%TO.N,/D3*%
X137835000Y-79900000D02*
X136399900Y-79900000D01*
X137835000Y-79900000D02*
X139270100Y-79900000D01*
X134755600Y-79900000D02*
X136399900Y-79900000D01*
X132449000Y-77593400D02*
X134755600Y-79900000D01*
X132449000Y-69311000D02*
X132449000Y-77593400D01*
X122416600Y-93437000D02*
X123585000Y-93437000D01*
X121634900Y-94218700D02*
X122416600Y-93437000D01*
X121634900Y-95103600D02*
X121634900Y-94218700D01*
X121825500Y-95294200D02*
X121634900Y-95103600D01*
X127222500Y-95294200D02*
X121825500Y-95294200D01*
X130594900Y-91921800D02*
X127222500Y-95294200D01*
X130594900Y-87608700D02*
X130594900Y-91921800D01*
X136350800Y-81852800D02*
X130594900Y-87608700D01*
X139073300Y-81852800D02*
X136350800Y-81852800D01*
X139270100Y-81656000D02*
X139073300Y-81852800D01*
X139270100Y-79900000D02*
X139270100Y-81656000D01*
X159834000Y-93141000D02*
X159834000Y-90777300D01*
X157846000Y-116846700D02*
X158104200Y-116588500D01*
X157846000Y-123509000D02*
X157846000Y-116846700D01*
%TO.N,/D2*%
X133915000Y-74872100D02*
X136401900Y-77359000D01*
X133915000Y-70899000D02*
X133915000Y-74872100D01*
X137837000Y-77359000D02*
X136401900Y-77359000D01*
X135451000Y-94674000D02*
X137401100Y-94674000D01*
X137401100Y-94403000D02*
X138389200Y-93414900D01*
X137401100Y-94674000D02*
X137401100Y-94403000D01*
X157757800Y-87675600D02*
X157282700Y-87675600D01*
X160834000Y-90751800D02*
X157757800Y-87675600D01*
X160834000Y-93141000D02*
X160834000Y-90751800D01*
X156339000Y-117210000D02*
X156984500Y-116564500D01*
X156339000Y-123509000D02*
X156339000Y-117210000D01*
X160834000Y-94696300D02*
X159118000Y-96412300D01*
X160834000Y-93141000D02*
X160834000Y-94696300D01*
%TO.N,/D1*%
X135455000Y-95983000D02*
X137405100Y-95983000D01*
X135464200Y-75114300D02*
X136399900Y-76050000D01*
X135464200Y-69312300D02*
X135464200Y-75114300D01*
X137835000Y-76050000D02*
X136399900Y-76050000D01*
X137681500Y-96259400D02*
X137681500Y-96280500D01*
X137405100Y-95983000D02*
X137681500Y-96259400D01*
X161834000Y-93141000D02*
X161834000Y-91585900D01*
X161834000Y-91585900D02*
X161834000Y-91189500D01*
X154822000Y-115489900D02*
X154822000Y-123511000D01*
X155213600Y-115098300D02*
X154822000Y-115489900D01*
X157207800Y-99543800D02*
X157207800Y-101135900D01*
X161834000Y-94917600D02*
X157207800Y-99543800D01*
X161834000Y-93141000D02*
X161834000Y-94917600D01*
%TO.N,/D0*%
X138825900Y-72709900D02*
X139740000Y-72709900D01*
X137015000Y-70899000D02*
X138825900Y-72709900D01*
X139740000Y-74145000D02*
X139740000Y-72709900D01*
X133504900Y-97002500D02*
X133206900Y-96704500D01*
X133504900Y-97247000D02*
X133504900Y-97002500D01*
X134480000Y-97247000D02*
X133504900Y-97247000D01*
X134480000Y-97247000D02*
X135455000Y-97247000D01*
X162834000Y-93141000D02*
X162834000Y-94696100D01*
X162834000Y-94712900D02*
X162834000Y-94696100D01*
X153936300Y-118774600D02*
X153315000Y-119395900D01*
X153936300Y-115116900D02*
X153936300Y-118774600D01*
X153315000Y-123511000D02*
X153315000Y-119395900D01*
X163094800Y-94973700D02*
X162834000Y-94712900D01*
X164021000Y-94973700D02*
X163094800Y-94973700D01*
X159661700Y-100575300D02*
X157420900Y-102816100D01*
X159661700Y-97726500D02*
X159661700Y-100575300D01*
X162675300Y-94712900D02*
X159661700Y-97726500D01*
X162834000Y-94712900D02*
X162675300Y-94712900D01*
%TO.N,/A0*%
X141012000Y-74145000D02*
X141012000Y-75580100D01*
X150184000Y-95791000D02*
X148628900Y-95791000D01*
X141012000Y-75580100D02*
X141523000Y-76091100D01*
X141523000Y-76091100D02*
X141640700Y-75973400D01*
X136430100Y-98522000D02*
X137405100Y-98522000D01*
X148628900Y-95692700D02*
X148628900Y-95791000D01*
X147235100Y-94298900D02*
X148628900Y-95692700D01*
X140949300Y-92565500D02*
X140387800Y-92565500D01*
X141368700Y-92984900D02*
X140949300Y-92565500D01*
X141368700Y-93618700D02*
X141368700Y-92984900D01*
X139556300Y-95431100D02*
X141368700Y-93618700D01*
X139556300Y-96370800D02*
X139556300Y-95431100D01*
X137405100Y-98522000D02*
X139556300Y-96370800D01*
X140264000Y-92565500D02*
X139556300Y-93273200D01*
X140387800Y-92565500D02*
X140264000Y-92565500D01*
X140387800Y-77226300D02*
X141523000Y-76091100D01*
X140387800Y-92565500D02*
X140387800Y-77226300D01*
X136430100Y-98522000D02*
X135455000Y-98522000D01*
X135455000Y-98522000D02*
X133504900Y-98522000D01*
X129232000Y-123512000D02*
X129232000Y-119396900D01*
X130000000Y-102026900D02*
X133504900Y-98522000D01*
X130000000Y-118628900D02*
X130000000Y-102026900D01*
X129232000Y-119396900D02*
X130000000Y-118628900D01*
%TO.N,/A1*%
X142280000Y-74148000D02*
X142280000Y-75583100D01*
X136430100Y-99786000D02*
X137405100Y-99786000D01*
X136430100Y-99786000D02*
X135455000Y-99786000D01*
X130739000Y-123512000D02*
X130739000Y-119396900D01*
X135455000Y-99786000D02*
X133504900Y-99786000D01*
X150184000Y-96791000D02*
X148628900Y-96791000D01*
X146862100Y-96791000D02*
X146372100Y-96301000D01*
X148628900Y-96791000D02*
X146862100Y-96791000D01*
X142631500Y-75934600D02*
X142640900Y-75934600D01*
X142280000Y-75583100D02*
X142631500Y-75934600D01*
X140329400Y-96861700D02*
X140329400Y-96301000D01*
X137405100Y-99786000D02*
X140329400Y-96861700D01*
X143284600Y-93213500D02*
X146372100Y-96301000D01*
X143284600Y-89731500D02*
X143284600Y-93213500D01*
X142964800Y-89411700D02*
X143284600Y-89731500D01*
X142964800Y-79455900D02*
X142964800Y-89411700D01*
X143735800Y-78684900D02*
X142964800Y-79455900D01*
X130679000Y-119336900D02*
X130739000Y-119396900D01*
X130679000Y-102611900D02*
X130679000Y-119336900D01*
X133504900Y-99786000D02*
X130679000Y-102611900D01*
%TO.N,/A2*%
X143590000Y-74143000D02*
X143590000Y-75578100D01*
X143590000Y-75578100D02*
X143590000Y-75871600D01*
X143590000Y-75871600D02*
X143641100Y-75871600D01*
X136430100Y-101102000D02*
X137405100Y-101102000D01*
X144227100Y-97791000D02*
X150184000Y-97791000D01*
X142471600Y-96035500D02*
X144227100Y-97791000D01*
X137405100Y-101102000D02*
X142471600Y-96035500D01*
X143590000Y-76593500D02*
X143590000Y-75871600D01*
X141638200Y-78545300D02*
X143590000Y-76593500D01*
X141638200Y-90753700D02*
X141638200Y-78545300D01*
X142471600Y-91587100D02*
X141638200Y-90753700D01*
X142471600Y-96035500D02*
X142471600Y-91587100D01*
X136430100Y-101102000D02*
X135455000Y-101102000D01*
X135455000Y-101102000D02*
X133504900Y-101102000D01*
X132245000Y-123512000D02*
X132245000Y-119396900D01*
X131129100Y-118281000D02*
X132245000Y-119396900D01*
X131129100Y-103477800D02*
X131129100Y-118281000D01*
X133504900Y-101102000D02*
X131129100Y-103477800D01*
%TO.N,/A3*%
X150184000Y-98791000D02*
X151739100Y-98791000D01*
X133758000Y-123488000D02*
X133758000Y-121418000D01*
X133752000Y-123494000D02*
X133758000Y-123488000D01*
X146791500Y-72707900D02*
X147432500Y-72066900D01*
X144866000Y-72707900D02*
X146791500Y-72707900D01*
X144866000Y-74143000D02*
X144866000Y-72707900D01*
X151739100Y-95523900D02*
X151739100Y-98791000D01*
X151155200Y-94940000D02*
X151739100Y-95523900D01*
X148945400Y-94940000D02*
X151155200Y-94940000D01*
X144922600Y-90917200D02*
X148945400Y-94940000D01*
X144766100Y-90917200D02*
X144922600Y-90917200D01*
X144184800Y-90335900D02*
X144766100Y-90917200D01*
X144184800Y-89406100D02*
X144184800Y-90335900D01*
X144215200Y-89375700D02*
X144184800Y-89406100D01*
X144215200Y-80862100D02*
X144215200Y-89375700D01*
X144146800Y-80793700D02*
X144215200Y-80862100D01*
X144146800Y-79439400D02*
X144146800Y-80793700D01*
X144866000Y-78720200D02*
X144146800Y-79439400D01*
X144866000Y-74143000D02*
X144866000Y-78720200D01*
X133718000Y-121378000D02*
X133738000Y-121398000D01*
X133738000Y-121398000D02*
X133758000Y-121418000D01*
X131579300Y-104334600D02*
X133504900Y-102409000D01*
X131579300Y-115399700D02*
X131579300Y-104334600D01*
X133738000Y-117558400D02*
X131579300Y-115399700D01*
X133738000Y-121398000D02*
X133738000Y-117558400D01*
X134480000Y-102409000D02*
X133504900Y-102409000D01*
X134480000Y-102409000D02*
X135455000Y-102409000D01*
X141023100Y-98791000D02*
X150184000Y-98791000D01*
X137405100Y-102409000D02*
X141023100Y-98791000D01*
X135455000Y-102409000D02*
X137405100Y-102409000D01*
%TO.N,/A4*%
X146130000Y-74143000D02*
X146130000Y-74860500D01*
X146521800Y-75252300D02*
X146521800Y-75912300D01*
X146130000Y-74860500D02*
X146521800Y-75252300D01*
X155030000Y-70902000D02*
X155030000Y-74333700D01*
X135455000Y-103679000D02*
X133504900Y-103679000D01*
X150184000Y-99791000D02*
X148628900Y-99791000D01*
X135221300Y-119352200D02*
X135221300Y-116671400D01*
X135258000Y-119388900D02*
X135221300Y-119352200D01*
X132044000Y-105139900D02*
X133504900Y-103679000D01*
X132044000Y-113589200D02*
X132044000Y-105139900D01*
X135126200Y-116671400D02*
X132044000Y-113589200D01*
X135221300Y-116671400D02*
X135126200Y-116671400D01*
X135258000Y-123504000D02*
X135258000Y-119388900D01*
X148565000Y-99727100D02*
X148628900Y-99791000D01*
X142632500Y-99727100D02*
X148565000Y-99727100D01*
X138680600Y-103679000D02*
X142632500Y-99727100D01*
X135455000Y-103679000D02*
X138680600Y-103679000D01*
%TO.N,/A5*%
X147362000Y-74145000D02*
X147362000Y-75580100D01*
X153523000Y-76120200D02*
X153581700Y-76178900D01*
X153523000Y-69352000D02*
X153523000Y-76120200D01*
X147362000Y-77159600D02*
X147301500Y-77220100D01*
X147362000Y-75580100D02*
X147362000Y-77159600D01*
X150184000Y-100791000D02*
X151739100Y-100791000D01*
X150184000Y-100791000D02*
X148628900Y-100791000D01*
X132494200Y-105954700D02*
X133500900Y-104948000D01*
X132494200Y-113402700D02*
X132494200Y-105954700D01*
X134812700Y-115721200D02*
X132494200Y-113402700D01*
X135311000Y-115721200D02*
X134812700Y-115721200D01*
X136765000Y-117175200D02*
X135311000Y-115721200D01*
X136765000Y-119388900D02*
X136765000Y-117175200D01*
X136765000Y-123504000D02*
X136765000Y-119388900D01*
X135451000Y-104948000D02*
X133500900Y-104948000D01*
X152189200Y-100340900D02*
X151739100Y-100791000D01*
X152189200Y-95337400D02*
X152189200Y-100340900D01*
X151341700Y-94489900D02*
X152189200Y-95337400D01*
X150052800Y-94489900D02*
X151341700Y-94489900D01*
X146390600Y-90827700D02*
X150052800Y-94489900D01*
X146390600Y-90396700D02*
X146390600Y-90827700D01*
X145491200Y-89497300D02*
X146390600Y-90396700D01*
X145491200Y-82457500D02*
X145491200Y-89497300D01*
X146459000Y-81489700D02*
X145491200Y-82457500D01*
X146459000Y-78062600D02*
X146459000Y-81489700D01*
X147301500Y-77220100D02*
X146459000Y-78062600D01*
X148015200Y-100177300D02*
X148628900Y-100791000D01*
X143147600Y-100177300D02*
X148015200Y-100177300D01*
X138376900Y-104948000D02*
X143147600Y-100177300D01*
X135451000Y-104948000D02*
X138376900Y-104948000D01*
%TO.N,/A6*%
X150184000Y-103791000D02*
X148628900Y-103791000D01*
X135458000Y-106216000D02*
X133507900Y-106216000D01*
X138272000Y-123516000D02*
X138272000Y-119400900D01*
X147582300Y-102744400D02*
X148628900Y-103791000D01*
X141361500Y-102744400D02*
X147582300Y-102744400D01*
X137889900Y-106216000D02*
X141361500Y-102744400D01*
X135458000Y-106216000D02*
X137889900Y-106216000D01*
X148673000Y-76210600D02*
X148673000Y-74143000D01*
X148564700Y-76318900D02*
X148673000Y-76210600D01*
X152014000Y-74749200D02*
X152014000Y-70902000D01*
X151661900Y-75101300D02*
X152014000Y-74749200D01*
X138238800Y-119367700D02*
X138238800Y-116671400D01*
X138272000Y-119400900D02*
X138238800Y-119367700D01*
X132958300Y-106765600D02*
X133507900Y-106216000D01*
X132958300Y-113204000D02*
X132958300Y-106765600D01*
X134800400Y-115046100D02*
X132958300Y-113204000D01*
X135894700Y-115046100D02*
X134800400Y-115046100D01*
X137520000Y-116671400D02*
X135894700Y-115046100D01*
X138238800Y-116671400D02*
X137520000Y-116671400D01*
%TO.N,/A7*%
X139790000Y-123516000D02*
X139790000Y-119400900D01*
X135450000Y-107529000D02*
X137400100Y-107529000D01*
X150184000Y-104791000D02*
X148628900Y-104791000D01*
X150507000Y-72148900D02*
X149943000Y-72712900D01*
X150507000Y-69353000D02*
X150507000Y-72148900D01*
X149943000Y-74148000D02*
X149943000Y-72712900D01*
X145936700Y-104791000D02*
X148628900Y-104791000D01*
X145936700Y-104413100D02*
X145936700Y-104791000D01*
X144728500Y-103204900D02*
X145936700Y-104413100D01*
X141592500Y-103204900D02*
X144728500Y-103204900D01*
X137400100Y-107397300D02*
X141592500Y-103204900D01*
X137400100Y-107529000D02*
X137400100Y-107397300D01*
X139819900Y-110907800D02*
X139819900Y-119039000D01*
X145936700Y-104791000D02*
X139819900Y-110907800D01*
X139790000Y-119068900D02*
X139819900Y-119039000D01*
X139790000Y-119400900D02*
X139790000Y-119068900D01*
%TO.N,/A12_Internal*%
X135453000Y-108843000D02*
X137403100Y-108843000D01*
X137403100Y-108419600D02*
X140722700Y-105100000D01*
X137403100Y-108843000D02*
X137403100Y-108419600D01*
X151845000Y-76044000D02*
X150409900Y-76044000D01*
X149955700Y-76498200D02*
X150409900Y-76044000D01*
X149955700Y-78830500D02*
X149955700Y-76498200D01*
X150463800Y-79338500D02*
X149955700Y-78830500D01*
X150557700Y-79244600D02*
X150463800Y-79338500D01*
X153522500Y-79244600D02*
X150557700Y-79244600D01*
X153845700Y-79567800D02*
X153522500Y-79244600D01*
X154468200Y-79567800D02*
X153845700Y-79567800D01*
X155156500Y-80256100D02*
X154468200Y-79567800D01*
X155156500Y-80318800D02*
X155156500Y-80256100D01*
X166533100Y-91695400D02*
X155156500Y-80318800D01*
X166533100Y-92255200D02*
X166533100Y-91695400D01*
X167484000Y-93206100D02*
X166533100Y-92255200D01*
X167484000Y-95791000D02*
X167484000Y-93206100D01*
X148044900Y-90979200D02*
X148044900Y-91452200D01*
X147941500Y-90875800D02*
X148044900Y-90979200D01*
X147941500Y-90068600D02*
X147941500Y-90875800D01*
X148044900Y-89965200D02*
X147941500Y-90068600D01*
X148044900Y-81757400D02*
X148044900Y-89965200D01*
X150463800Y-79338500D02*
X148044900Y-81757400D01*
%TO.N,/A15_Internal*%
X167484000Y-98791000D02*
X169039100Y-98791000D01*
X123589000Y-111376000D02*
X125539100Y-111376000D01*
X152899000Y-77362000D02*
X151845000Y-77362000D01*
X169039100Y-93502100D02*
X152899000Y-77362000D01*
X169039100Y-98791000D02*
X169039100Y-93502100D01*
X162679600Y-98791000D02*
X160799200Y-100671400D01*
X167484000Y-98791000D02*
X162679600Y-98791000D01*
X139088700Y-94873200D02*
X140635600Y-93326300D01*
X139088700Y-96061600D02*
X139088700Y-94873200D01*
X137265100Y-97885200D02*
X139088700Y-96061600D01*
X133498700Y-97885200D02*
X137265100Y-97885200D01*
X129549900Y-101834000D02*
X133498700Y-97885200D01*
X129549900Y-107365200D02*
X129549900Y-101834000D01*
X125539100Y-111376000D02*
X129549900Y-107365200D01*
%TO.N,/A16_Internal*%
X167484000Y-99791000D02*
X169039100Y-99791000D01*
X135452000Y-111377000D02*
X137402100Y-111377000D01*
X151842000Y-78589000D02*
X150406900Y-78589000D01*
X144454600Y-104324500D02*
X144454600Y-103968600D01*
X137402100Y-111377000D02*
X144454600Y-104324500D01*
X150406900Y-76858300D02*
X150406900Y-78589000D01*
X150562200Y-76703000D02*
X150406900Y-76858300D01*
X153058800Y-76703000D02*
X150562200Y-76703000D01*
X169525700Y-93169900D02*
X153058800Y-76703000D01*
X169525700Y-99304400D02*
X169525700Y-93169900D01*
X169039100Y-99791000D02*
X169525700Y-99304400D01*
X158846400Y-103819300D02*
X157548500Y-103819300D01*
X162874700Y-99791000D02*
X158846400Y-103819300D01*
X167484000Y-99791000D02*
X162874700Y-99791000D01*
D26*
%TO.N,/GND*%
X158834000Y-93141000D02*
X158834000Y-94204000D01*
X135459000Y-93439000D02*
X137534100Y-93439000D01*
X167484000Y-101791000D02*
X165803900Y-101791000D01*
X158834000Y-110441000D02*
X158834000Y-108760900D01*
X150184000Y-101791000D02*
X151864100Y-101791000D01*
X168366000Y-123515000D02*
X168366000Y-119274900D01*
X150184000Y-101791000D02*
X148503900Y-101791000D01*
X137835000Y-78587000D02*
X136274900Y-78587000D01*
X121654000Y-81335000D02*
X121654000Y-80134900D01*
X121788600Y-80134900D02*
X121654000Y-80134900D01*
X122729700Y-79193800D02*
X121788600Y-80134900D01*
X122729700Y-77235700D02*
X122729700Y-79193800D01*
X121757100Y-76263100D02*
X122729700Y-77235700D01*
X121532500Y-76263100D02*
X121757100Y-76263100D01*
X121532500Y-75063000D02*
X121532500Y-76263100D01*
X121789000Y-82535100D02*
X121654000Y-82535100D01*
X122733200Y-83479300D02*
X121789000Y-82535100D01*
X122733200Y-87705100D02*
X122733200Y-83479300D01*
X124569000Y-89540900D02*
X122733200Y-87705100D01*
X124869000Y-89540900D02*
X124569000Y-89540900D01*
X124869000Y-90741000D02*
X124869000Y-89540900D01*
X121654000Y-81335000D02*
X121654000Y-82535100D01*
X134559400Y-78587000D02*
X134513700Y-78632700D01*
X136274900Y-78587000D02*
X134559400Y-78587000D01*
X121532500Y-71216500D02*
X121532500Y-75063000D01*
X121890000Y-70859000D02*
X121532500Y-71216500D01*
X147641800Y-100928900D02*
X147641800Y-100928800D01*
X148503900Y-101791000D02*
X147641800Y-100928900D01*
X137534100Y-93439000D02*
X137534100Y-92718500D01*
X138436000Y-91816600D02*
X138436000Y-85480800D01*
X137534100Y-92718500D02*
X138436000Y-91816600D01*
X132589200Y-68010800D02*
X134116000Y-66484000D01*
X122850800Y-68010800D02*
X132589200Y-68010800D01*
X121890000Y-68971600D02*
X122850800Y-68010800D01*
X121890000Y-70859000D02*
X121890000Y-68971600D01*
X137046600Y-63553400D02*
X150942800Y-63553400D01*
X134116000Y-66484000D02*
X137046600Y-63553400D01*
X161688000Y-101791000D02*
X165803900Y-101791000D01*
X158809500Y-104669500D02*
X161688000Y-101791000D01*
X157196400Y-104669500D02*
X158809500Y-104669500D01*
X158345500Y-108272400D02*
X158834000Y-108760900D01*
X157421500Y-108272400D02*
X158345500Y-108272400D01*
X156923500Y-107774400D02*
X157421500Y-108272400D01*
X156923500Y-106972800D02*
X156923500Y-107774400D01*
X157340100Y-106556200D02*
X156923500Y-106972800D01*
X156794100Y-106010200D02*
X157340100Y-106556200D01*
X156794100Y-105071800D02*
X156794100Y-106010200D01*
X157196400Y-104669500D02*
X156794100Y-105071800D01*
X169418000Y-118222900D02*
X168366000Y-119274900D01*
X169418000Y-113043900D02*
X169418000Y-118222900D01*
X162830200Y-106456100D02*
X169418000Y-113043900D01*
X161070900Y-106456100D02*
X162830200Y-106456100D01*
X160970800Y-106556200D02*
X161070900Y-106456100D01*
X157340100Y-106556200D02*
X160970800Y-106556200D01*
X156357700Y-96680300D02*
X156357700Y-101801500D01*
X158834000Y-94204000D02*
X156357700Y-96680300D01*
X151874600Y-101801500D02*
X156357700Y-101801500D01*
X151864100Y-101791000D02*
X151874600Y-101801500D01*
X156357700Y-103830800D02*
X157196400Y-104669500D01*
X156357700Y-101801500D02*
X156357700Y-103830800D01*
D24*
%TO.N,/Switch*%
X124747000Y-87567000D02*
X124747000Y-86491900D01*
X124831000Y-86407900D02*
X124831000Y-85890900D01*
X124747000Y-86491900D02*
X124831000Y-86407900D01*
X164834000Y-95237800D02*
X164834000Y-93141000D01*
X164244600Y-95827200D02*
X164834000Y-95237800D01*
X162586400Y-95827200D02*
X164244600Y-95827200D01*
X161044600Y-97369000D02*
X162586400Y-95827200D01*
%TD*%
M02*
