M48
; DRILL file {KiCad (6.0.2)} date Sat Oct 22 11:53:21 2022
; FORMAT={-:-/ absolute / metric / decimal}
; #@! TF.CreationDate,2022-10-22T11:53:21-05:00
; #@! TF.GenerationSoftware,Kicad,Pcbnew,(6.0.2)
; #@! TF.FileFunction,Plated,1,2,PTH
FMAT,2
METRIC
; #@! TA.AperFunction,Plated,PTH,ViaDrill
T1C0.400
; #@! TA.AperFunction,Plated,PTH,ComponentDrill
T2C1.150
; #@! TA.AperFunction,Plated,PTH,ComponentDrill
T3C1.350
; #@! TA.AperFunction,Plated,PTH,ComponentDrill
T4C1.400
; #@! TA.AperFunction,Plated,PTH,ComponentDrill
T5C5.200
%
G90
G05
T1
X121.24Y-103.383
X123.605Y-85.781
X124.831Y-85.891
X125.78Y-117.615
X125.814Y-103.958
X125.847Y-100.941
X125.884Y-102.462
X125.956Y-105.388
X126.181Y-119.095
X127.198Y-118.936
X127.473Y-106.346
X127.606Y-82.597
X127.982Y-92.149
X128.482Y-117.119
X128.619Y-91.111
X130.377Y-94.012
X133.207Y-96.704
X134.514Y-78.633
X135.221Y-116.671
X136.186Y-90.945
X136.47Y-114.596
X137.348Y-85.352
X137.534Y-92.718
X137.681Y-96.28
X138.139Y-95.323
X138.239Y-116.671
X138.389Y-93.415
X138.436Y-85.481
X139.556Y-93.273
X139.571Y-82.422
X139.82Y-119.039
X140.329Y-96.301
X140.636Y-93.326
X140.723Y-105.1
X140.787Y-113.75
X141.641Y-75.973
X141.746Y-95.277
X142.369Y-90.329
X142.641Y-75.935
X142.801Y-116.108
X143.641Y-75.872
X143.736Y-78.685
X144.455Y-103.969
X144.872Y-79.74
X144.91Y-89.986
X146.221Y-89.202
X146.372Y-96.301
X146.522Y-75.912
X147.2Y-89.818
X147.235Y-94.299
X147.302Y-77.22
X147.382Y-95.753
X147.433Y-72.067
X147.642Y-100.929
X148.045Y-91.452
X148.565Y-76.319
X148.67Y-90.403
X148.811Y-117.646
X149.503Y-116.924
X150.547Y-109.147
X151.26Y-116.746
X151.662Y-75.101
X152.029Y-107.905
X152.101Y-103.794
X153.558Y-97.0
X153.582Y-76.179
X153.936Y-115.117
X153.981Y-80.743
X154.148Y-89.026
X154.834Y-91.236
X155.03Y-74.334
X155.214Y-115.098
X155.507Y-100.951
X156.534Y-108.587
X156.984Y-116.564
X157.208Y-101.136
X157.283Y-87.676
X157.327Y-112.556
X157.421Y-102.816
X157.548Y-103.819
X157.644Y-105.658
X157.774Y-107.422
X158.104Y-116.588
X158.121Y-90.247
X159.118Y-96.412
X159.396Y-116.158
X159.52Y-112.275
X159.834Y-90.777
X160.406Y-115.418
X160.565Y-99.047
X160.799Y-100.671
X160.838Y-112.357
X161.045Y-97.369
X161.464Y-107.306
X161.474Y-108.431
X161.834Y-91.189
X162.07Y-114.089
X162.664Y-103.4
X163.418Y-112.755
X164.021Y-94.974
X165.7Y-110.557
X166.859Y-119.118
X168.505Y-116.775
X169.68Y-105.504
X169.713Y-100.194
X170.338Y-117.076
T2
X121.89Y-70.859
X123.401Y-69.351
X124.949Y-70.902
X126.453Y-69.35
X127.923Y-70.898
X129.427Y-69.349
X130.938Y-70.901
X132.449Y-69.311
X133.915Y-70.899
X135.464Y-69.312
X137.015Y-70.899
X138.482Y-69.314
X139.989Y-70.9
X141.498Y-69.311
X143.005Y-70.9
X144.513Y-69.312
X146.022Y-70.899
X147.53Y-69.352
X148.96Y-70.9
X150.507Y-69.353
X152.014Y-70.902
X153.523Y-69.352
X155.03Y-70.902
X156.542Y-69.354
X158.085Y-70.902
X159.555Y-69.353
X161.064Y-70.903
X162.568Y-69.354
X164.08Y-70.903
X165.586Y-69.347
X167.054Y-70.902
X168.562Y-69.352
T3
X125.222Y-66.49
X128.995Y-66.492
X131.573Y-66.489
X134.116Y-66.484
X137.966Y-66.491
T4
X149.669Y-65.737
X150.943Y-63.553
X155.384Y-63.557
X156.694Y-65.742
T5
X144.792Y-111.181
T0
M30
