M48
; DRILL file {KiCad (6.0.2)} date Fri Sep 16 22:24:34 2022
; FORMAT={-:-/ absolute / metric / decimal}
; #@! TF.CreationDate,2022-09-16T22:24:34-05:00
; #@! TF.GenerationSoftware,Kicad,Pcbnew,(6.0.2)
; #@! TF.FileFunction,Plated,1,2,PTH
FMAT,2
METRIC
; #@! TA.AperFunction,Plated,PTH,ViaDrill
T1C0.400
; #@! TA.AperFunction,Plated,PTH,ComponentDrill
T2C1.150
; #@! TA.AperFunction,Plated,PTH,ComponentDrill
T3C1.350
; #@! TA.AperFunction,Plated,PTH,ComponentDrill
T4C1.400
; #@! TA.AperFunction,Plated,PTH,ComponentDrill
T5C5.200
%
G90
G05
T1
X120.013Y-80.235
X120.814Y-126.79
X123.453Y-105.151
X123.903Y-103.883
X124.402Y-101.745
X124.852Y-100.745
X124.91Y-112.835
X124.931Y-118.341
X125.315Y-126.796
X125.373Y-95.542
X125.836Y-99.086
X126.254Y-106.724
X126.964Y-119.689
X127.54Y-118.762
X127.603Y-103.988
X128.16Y-107.574
X128.347Y-102.666
X129.166Y-104.793
X129.605Y-96.291
X130.219Y-100.65
X130.415Y-84.379
X133.664Y-90.095
X134.481Y-98.73
X134.712Y-92.57
X135.267Y-117.83
X136.127Y-92.448
X136.489Y-118.221
X136.506Y-100.456
X136.574Y-125.585
X136.829Y-104.026
X137.313Y-96.276
X137.529Y-105.396
X137.557Y-102.568
X139.178Y-115.534
X140.119Y-86.524
X140.56Y-87.54
X141.126Y-99.145
X142.093Y-99.771
X142.461Y-87.075
X142.54Y-85.798
X142.562Y-97.926
X143.125Y-83.747
X143.672Y-84.879
X144.153Y-98.375
X144.321Y-82.779
X144.456Y-86.523
X144.932Y-99.816
X145.829Y-107.148
X145.838Y-114.348
X146.132Y-95.378
X146.317Y-87.808
X146.956Y-90.515
X148.124Y-78.791
X148.616Y-91.73
X149.438Y-108.064
X149.466Y-105.959
X149.507Y-109.332
X149.595Y-95.268
X149.61Y-113.445
X150.135Y-106.714
X150.201Y-114.583
X150.529Y-107.868
X150.819Y-123.95
X151.149Y-87.909
X151.158Y-110.369
X151.291Y-104.552
X152.236Y-97.717
X152.32Y-124.152
X153.182Y-119.946
X153.284Y-94.827
X153.82Y-125.171
X153.917Y-96.647
X154.094Y-106.817
X154.224Y-119.401
X154.669Y-105.942
X154.821Y-95.276
X154.841Y-92.586
X154.853Y-93.904
X155.294Y-112.776
X155.44Y-115.122
X155.902Y-110.604
X156.02Y-104.518
X156.426Y-113.326
X156.903Y-110.319
X157.816Y-88.596
X158.055Y-106.274
X158.321Y-125.485
X158.431Y-85.954
X158.608Y-102.835
X158.776Y-112.642
X158.876Y-87.504
X159.05Y-108.606
X159.217Y-106.855
X159.553Y-110.135
X160.137Y-86.509
X160.326Y-104.541
X160.674Y-126.769
X160.96Y-91.703
X161.193Y-106.029
X161.593Y-111.973
X161.593Y-112.998
X162.07Y-105.057
X162.265Y-126.612
X162.382Y-103.896
X163.006Y-125.936
X164.02Y-101.55
X164.891Y-120.619
X165.123Y-118.552
X166.431Y-86.248
T2
X119.459Y-77.474
X120.97Y-75.966
X122.518Y-77.517
X124.022Y-75.965
X125.492Y-77.513
X126.996Y-75.964
X128.507Y-77.516
X130.018Y-75.926
X131.484Y-77.514
X133.033Y-75.927
X134.584Y-77.514
X136.051Y-75.929
X137.558Y-77.515
X139.067Y-75.926
X140.574Y-77.515
X142.082Y-75.927
X143.591Y-77.514
X145.099Y-75.967
X146.529Y-77.515
X148.076Y-75.968
X149.583Y-77.517
X151.092Y-75.967
X152.599Y-77.517
X154.111Y-75.969
X155.654Y-77.517
X157.124Y-75.968
X158.633Y-77.518
X160.137Y-75.969
X161.649Y-77.518
X163.155Y-75.962
X164.623Y-77.517
X166.131Y-75.967
T3
X122.791Y-73.105
X126.564Y-73.107
X129.142Y-73.104
X131.685Y-73.099
X135.535Y-73.106
T4
X147.238Y-72.352
X148.512Y-70.168
X152.953Y-70.172
X154.263Y-72.357
T5
X142.361Y-117.796
T0
M30
