%TF.GenerationSoftware,KiCad,Pcbnew,(6.0.2)*%
%TF.CreationDate,2022-07-14T18:27:25-05:00*%
%TF.ProjectId,REF1222 Optimized,52454631-3232-4322-904f-7074696d697a,rev?*%
%TF.SameCoordinates,Original*%
%TF.FileFunction,Copper,L1,Top*%
%TF.FilePolarity,Positive*%
%FSLAX46Y46*%
G04 Gerber Fmt 4.6, Leading zero omitted, Abs format (unit mm)*
G04 Created by KiCad (PCBNEW (6.0.2)) date 2022-07-14 18:27:25*
%MOMM*%
%LPD*%
G01*
G04 APERTURE LIST*
%ADD10C,0.150000*%
%TA.AperFunction,NonConductor*%
%ADD11C,0.150000*%
%TD*%
%TA.AperFunction,SMDPad,CuDef*%
%ADD12R,1.500000X1.500000*%
%TD*%
%TA.AperFunction,ComponentPad*%
%ADD13C,1.700000*%
%TD*%
%TA.AperFunction,SMDPad,CuDef*%
%ADD14R,1.030000X7.580000*%
%TD*%
%TA.AperFunction,ComponentPad*%
%ADD15C,5.600000*%
%TD*%
%TA.AperFunction,SMDPad,CuDef*%
%ADD16R,2.220000X0.600000*%
%TD*%
%TA.AperFunction,SMDPad,CuDef*%
%ADD17R,0.600000X2.220000*%
%TD*%
%TA.AperFunction,ComponentPad*%
%ADD18C,2.000000*%
%TD*%
%TA.AperFunction,ComponentPad*%
%ADD19C,1.830000*%
%TD*%
%TA.AperFunction,SMDPad,CuDef*%
%ADD20O,2.460000X0.360000*%
%TD*%
%TA.AperFunction,SMDPad,CuDef*%
%ADD21O,0.360000X2.460000*%
%TD*%
%TA.AperFunction,SMDPad,CuDef*%
%ADD22R,3.250000X0.600000*%
%TD*%
%TA.AperFunction,ViaPad*%
%ADD23C,0.800000*%
%TD*%
%TA.AperFunction,Conductor*%
%ADD24C,0.250000*%
%TD*%
%TA.AperFunction,Conductor*%
%ADD25C,0.550000*%
%TD*%
G04 APERTURE END LIST*
D10*
D11*
X138647740Y-73048069D02*
X138281073Y-72524259D01*
X138019169Y-73048069D02*
X138019169Y-71948069D01*
X138438216Y-71948069D01*
X138542978Y-72000450D01*
X138595359Y-72052830D01*
X138647740Y-72157592D01*
X138647740Y-72314735D01*
X138595359Y-72419497D01*
X138542978Y-72471878D01*
X138438216Y-72524259D01*
X138019169Y-72524259D01*
X139119169Y-72471878D02*
X139485835Y-72471878D01*
X139642978Y-73048069D02*
X139119169Y-73048069D01*
X139119169Y-71948069D01*
X139642978Y-71948069D01*
X140481073Y-72471878D02*
X140114407Y-72471878D01*
X140114407Y-73048069D02*
X140114407Y-71948069D01*
X140638216Y-71948069D01*
X141633454Y-73048069D02*
X141004883Y-73048069D01*
X141319169Y-73048069D02*
X141319169Y-71948069D01*
X141214407Y-72105211D01*
X141109645Y-72209973D01*
X141004883Y-72262354D01*
X142052502Y-72052830D02*
X142104883Y-72000450D01*
X142209645Y-71948069D01*
X142471550Y-71948069D01*
X142576311Y-72000450D01*
X142628692Y-72052830D01*
X142681073Y-72157592D01*
X142681073Y-72262354D01*
X142628692Y-72419497D01*
X142000121Y-73048069D01*
X142681073Y-73048069D01*
X143100121Y-72052830D02*
X143152502Y-72000450D01*
X143257264Y-71948069D01*
X143519169Y-71948069D01*
X143623930Y-72000450D01*
X143676311Y-72052830D01*
X143728692Y-72157592D01*
X143728692Y-72262354D01*
X143676311Y-72419497D01*
X143047740Y-73048069D01*
X143728692Y-73048069D01*
X144147740Y-72052830D02*
X144200121Y-72000450D01*
X144304883Y-71948069D01*
X144566788Y-71948069D01*
X144671550Y-72000450D01*
X144723930Y-72052830D01*
X144776311Y-72157592D01*
X144776311Y-72262354D01*
X144723930Y-72419497D01*
X144095359Y-73048069D01*
X144776311Y-73048069D01*
D12*
%TO.P,100k Ohm,1*%
%TO.N,/VCC*%
X119098500Y-84854000D03*
%TO.P,100k Ohm,2*%
%TO.N,/Const_High*%
X122315500Y-84856000D03*
%TD*%
D13*
%TO.P,J2,1,+5V*%
%TO.N,/VCC*%
X166131000Y-75967000D03*
%TO.P,J2,2,Clock*%
%TO.N,/Clk*%
X164623000Y-77517000D03*
%TO.P,J2,3,Write*%
%TO.N,/Wr_Game*%
X163155000Y-75962000D03*
%TO.P,J2,4,Read*%
%TO.N,/Rd_Game*%
X161649000Y-77518000D03*
%TO.P,J2,5,CS*%
%TO.N,/CS*%
X160137000Y-75969000D03*
%TO.P,J2,6,A0*%
%TO.N,/A0*%
X158633000Y-77518000D03*
%TO.P,J2,7,A1*%
%TO.N,/A1*%
X157124000Y-75968000D03*
%TO.P,J2,8,A2*%
%TO.N,/A2*%
X155654000Y-77517000D03*
%TO.P,J2,9,A3*%
%TO.N,/A3*%
X154111000Y-75969000D03*
%TO.P,J2,10,A4*%
%TO.N,/A4*%
X152599000Y-77517000D03*
%TO.P,J2,11,A5*%
%TO.N,/A5*%
X151092000Y-75967000D03*
%TO.P,J2,12,A6*%
%TO.N,/A6*%
X149583000Y-77517000D03*
%TO.P,J2,13,A7*%
%TO.N,/A7*%
X148076000Y-75968000D03*
%TO.P,J2,14,A8*%
%TO.N,/A8*%
X146529000Y-77515000D03*
%TO.P,J2,15,A9*%
%TO.N,/A9*%
X145099000Y-75967000D03*
%TO.P,J2,16,A10*%
%TO.N,/A10*%
X143591000Y-77514000D03*
%TO.P,J2,17,A11*%
%TO.N,/A11*%
X142082000Y-75927300D03*
%TO.P,J2,18,A12*%
%TO.N,/A12*%
X140573800Y-77514800D03*
%TO.P,J2,19,A13*%
%TO.N,/A13*%
X139067000Y-75926000D03*
%TO.P,J2,20,A14*%
%TO.N,/A14*%
X137557600Y-77514800D03*
%TO.P,J2,21,A15*%
%TO.N,/A15_Game*%
X136051000Y-75929000D03*
%TO.P,J2,22,Data_0*%
%TO.N,/D0*%
X134584000Y-77514000D03*
%TO.P,J2,23,Data_1*%
%TO.N,/D1*%
X133033200Y-75927300D03*
%TO.P,J2,24,Data_2*%
%TO.N,/D2*%
X131484000Y-77514000D03*
%TO.P,J2,25,Data_3*%
%TO.N,/D3*%
X130018000Y-75926000D03*
%TO.P,J2,26,Data_4*%
%TO.N,/D4*%
X128507000Y-77516000D03*
%TO.P,J2,27,Data_5*%
%TO.N,/D5*%
X126996000Y-75964000D03*
%TO.P,J2,28,Data_6*%
%TO.N,/D6*%
X125492000Y-77513000D03*
%TO.P,J2,29,Data_7*%
%TO.N,/D7*%
X124022000Y-75965000D03*
%TO.P,J2,30,Reset*%
%TO.N,/Reset*%
X122518000Y-77517000D03*
%TO.P,J2,31,Audio*%
%TO.N,/Audio*%
X120970000Y-75966000D03*
%TO.P,J2,32,GND*%
%TO.N,/GND*%
X119459000Y-77474000D03*
%TD*%
D12*
%TO.P,100 nF,1*%
%TO.N,/GND*%
X119223000Y-87950000D03*
%TO.P,100 nF,2*%
%TO.N,/Button*%
X122440000Y-87952000D03*
%TD*%
%TO.P,10k Ohm,1*%
%TO.N,/VCC*%
X119102000Y-91126000D03*
%TO.P,10k Ohm,2*%
%TO.N,/Button*%
X122319000Y-91128000D03*
%TD*%
%TO.P,250 nF,1*%
%TO.N,/GND*%
X119101500Y-81678000D03*
%TO.P,250 nF,2*%
%TO.N,/Const_High*%
X122318500Y-81680000D03*
%TD*%
D14*
%TO.P,J1,1,+5V*%
%TO.N,/VCC*%
X119263000Y-130136000D03*
%TO.P,J1,2,Clock*%
%TO.N,/Clk*%
X120806000Y-130136000D03*
%TO.P,J1,3,Write*%
%TO.N,/Wr_Sys*%
X122313000Y-130131000D03*
%TO.P,J1,4,Read*%
%TO.N,/Rd_Sys*%
X123823000Y-130127000D03*
%TO.P,J1,5,CS*%
%TO.N,/CS*%
X125330000Y-130127000D03*
%TO.P,J1,6,A0*%
%TO.N,/A0*%
X126801000Y-130127000D03*
%TO.P,J1,7,A1*%
%TO.N,/A1*%
X128308000Y-130127000D03*
%TO.P,J1,8,A2*%
%TO.N,/A2*%
X129814000Y-130127000D03*
%TO.P,J1,9,A3*%
%TO.N,/A3*%
X131321000Y-130109000D03*
%TO.P,J1,10,A4*%
%TO.N,/A4*%
X132827000Y-130119000D03*
%TO.P,J1,11,A5*%
%TO.N,/A5*%
X134334000Y-130119000D03*
%TO.P,J1,12,A6*%
%TO.N,/A6*%
X135841000Y-130131000D03*
%TO.P,J1,13,A7*%
%TO.N,/A7*%
X137359000Y-130131000D03*
%TO.P,J1,14,A8*%
%TO.N,/A8*%
X138863000Y-130136000D03*
%TO.P,J1,15,A9*%
%TO.N,/A9*%
X140370000Y-130136000D03*
%TO.P,J1,16,A10*%
%TO.N,/A10*%
X141913000Y-130136000D03*
%TO.P,J1,17,A11*%
%TO.N,/A11*%
X143384000Y-130136000D03*
%TO.P,J1,18,A12*%
%TO.N,/A12*%
X144855000Y-130136000D03*
%TO.P,J1,19,A13*%
%TO.N,/A13*%
X146380000Y-130136000D03*
%TO.P,J1,20,A14*%
%TO.N,/A14*%
X147870000Y-130126000D03*
%TO.P,J1,21,A15*%
%TO.N,/A15_Cart*%
X149377000Y-130126000D03*
%TO.P,J1,22,Data_0*%
%TO.N,/D0*%
X150884000Y-130126000D03*
%TO.P,J1,23,Data_1*%
%TO.N,/D1*%
X152391000Y-130126000D03*
%TO.P,J1,24,Data_2*%
%TO.N,/D2*%
X153908000Y-130124000D03*
%TO.P,J1,25,Data_3*%
%TO.N,/D3*%
X155415000Y-130124000D03*
%TO.P,J1,26,Data_4*%
%TO.N,/D4*%
X156958000Y-130135000D03*
%TO.P,J1,27,Data_5*%
%TO.N,/D5*%
X158441000Y-130135000D03*
%TO.P,J1,28,Data_6*%
%TO.N,/D6*%
X159931000Y-130118000D03*
%TO.P,J1,29,Data_7*%
%TO.N,/D7*%
X161450000Y-130118000D03*
%TO.P,J1,30,Reset*%
%TO.N,/Reset*%
X162909000Y-130118000D03*
%TO.P,J1,31,Audio*%
%TO.N,/Audio*%
X164428000Y-130130000D03*
%TO.P,J1,32,GND*%
%TO.N,/GND*%
X165935000Y-130130000D03*
%TD*%
D15*
%TO.P,Hole,1*%
%TO.N,N/C*%
X142361000Y-117796000D03*
%TD*%
D16*
%TO.P,NM27C010V,32,VCC*%
%TO.N,/VCC*%
X149414000Y-87821000D03*
%TO.P,NM27C010V,31,PGM*%
%TO.N,/WE_Internal*%
X149414000Y-89098000D03*
%TO.P,NM27C010V,30,N/C*%
%TO.N,unconnected-(U1-Pad30)*%
X149414000Y-90361000D03*
D17*
%TO.P,NM27C010V,29,A14*%
%TO.N,/A14_Internal*%
X147511000Y-92266000D03*
%TO.P,NM27C010V,28,A13*%
%TO.N,/A13_Internal*%
X146239000Y-92270000D03*
%TO.P,NM27C010V,27,A8*%
%TO.N,/A8*%
X144932000Y-92268000D03*
%TO.P,NM27C010V,26,A9*%
%TO.N,/A9*%
X143700000Y-92269000D03*
%TO.P,NM27C010V,25,A11*%
%TO.N,/A11*%
X142428000Y-92269000D03*
%TO.P,NM27C010V,24,OE#*%
%TO.N,/EEPROM_OE*%
X141159000Y-92269000D03*
%TO.P,NM27C010V,23,A10*%
%TO.N,/A10*%
X139854000Y-92269000D03*
%TO.P,NM27C010V,22,CE#*%
%TO.N,/EEPROM_CE*%
X138582000Y-92268000D03*
%TO.P,NM27C010V,21,O7*%
%TO.N,/D7*%
X137310000Y-92268000D03*
D16*
%TO.P,NM27C010V,20,O6*%
%TO.N,/D6*%
X135404000Y-90362000D03*
%TO.P,NM27C010V,19,O5*%
%TO.N,/D5*%
X135404000Y-89093000D03*
%TO.P,NM27C010V,18,O4*%
%TO.N,/D4*%
X135404000Y-87782000D03*
%TO.P,NM27C010V,17,O3*%
%TO.N,/D3*%
X135404000Y-86515000D03*
%TO.P,NM27C010V,16,GND*%
%TO.N,/GND*%
X135404000Y-85202000D03*
%TO.P,NM27C010V,15,O2*%
%TO.N,/D2*%
X135406000Y-83974000D03*
%TO.P,NM27C010V,14,O1*%
%TO.N,/D1*%
X135404000Y-82665000D03*
D17*
%TO.P,NM27C010V,13,O0*%
%TO.N,/D0*%
X137309000Y-80760000D03*
%TO.P,NM27C010V,12,A0*%
%TO.N,/A0*%
X138581000Y-80760000D03*
%TO.P,NM27C010V,11,A1*%
%TO.N,/A1*%
X139849000Y-80763000D03*
%TO.P,NM27C010V,10,A2*%
%TO.N,/A2*%
X141159000Y-80758000D03*
%TO.P,NM27C010V,9,A3*%
%TO.N,/A3*%
X142435000Y-80758000D03*
%TO.P,NM27C010V,8,A4*%
%TO.N,/A4*%
X143699000Y-80758000D03*
%TO.P,NM27C010V,7,A5*%
%TO.N,/A5*%
X144931000Y-80760000D03*
%TO.P,NM27C010V,6,A6*%
%TO.N,/A6*%
X146242000Y-80758000D03*
%TO.P,NM27C010V,5,A7*%
%TO.N,/A7*%
X147512000Y-80763000D03*
D16*
%TO.P,NM27C010V,4,A12*%
%TO.N,/A12_Internal*%
X149414000Y-82659000D03*
%TO.P,NM27C010V,3,A15*%
%TO.N,/A15_Internal*%
X149414000Y-83977000D03*
%TO.P,NM27C010V,2,A16*%
%TO.N,/A16_Internal*%
X149411000Y-85204000D03*
%TO.P,NM27C010V,1,Vpp*%
%TO.N,unconnected-(U1-Pad1)*%
X149414000Y-86515000D03*
%TD*%
D12*
%TO.P,100 nF,1*%
%TO.N,/VCC*%
X119221000Y-97354000D03*
%TO.P,100 nF,2*%
%TO.N,/GND*%
X122438000Y-97356000D03*
%TD*%
D18*
%TO.P,SW1,1,1*%
%TO.N,unconnected-(SW1-Pad1)*%
X147237800Y-72352400D03*
%TO.P,SW1,2,2*%
%TO.N,/GND*%
X148511800Y-70168400D03*
%TO.P,SW1,3,3*%
%TO.N,/Button*%
X152952800Y-70172400D03*
%TO.P,SW1,4,4*%
%TO.N,unconnected-(SW1-Pad4)*%
X154262800Y-72357400D03*
%TD*%
D12*
%TO.P,10K Ohm,1*%
%TO.N,/VCC*%
X119099000Y-94180000D03*
%TO.P,10K Ohm,2*%
%TO.N,/Switch*%
X122316000Y-94182000D03*
%TD*%
D19*
%TO.P,J3,1,A*%
%TO.N,unconnected-(J3-Pad1)*%
X126564000Y-73107000D03*
%TO.P,J3,2,B*%
%TO.N,/Switch*%
X129142000Y-73104000D03*
%TO.P,J3,3,C*%
%TO.N,/GND*%
X131685000Y-73099000D03*
%TO.P,J3,4*%
%TO.N,N/C*%
X122791000Y-73105000D03*
%TO.P,J3,5*%
X135535000Y-73106000D03*
%TD*%
D20*
%TO.P,DATEL GBOY,1,A0*%
%TO.N,/A0*%
X147658000Y-102332000D03*
%TO.P,DATEL GBOY,2,A1*%
%TO.N,/A1*%
X147662000Y-103324000D03*
%TO.P,DATEL GBOY,3,A2*%
%TO.N,/A2*%
X147669000Y-104394000D03*
%TO.P,DATEL GBOY,4,A3*%
%TO.N,/A3*%
X147662000Y-105386000D03*
%TO.P,DATEL GBOY,5,A4*%
%TO.N,/A4*%
X147662000Y-106416000D03*
%TO.P,DATEL GBOY,6,A5*%
%TO.N,/A5*%
X147662000Y-107449000D03*
%TO.P,DATEL GBOY,7,GND*%
%TO.N,/GND*%
X147662000Y-108442000D03*
%TO.P,DATEL GBOY,8,VCC*%
%TO.N,/VCC*%
X147662000Y-109513000D03*
%TO.P,DATEL GBOY,9,A6*%
%TO.N,/A6*%
X147662000Y-110506000D03*
%TO.P,DATEL GBOY,10,A7*%
%TO.N,/A7*%
X147662000Y-111537000D03*
%TO.P,DATEL GBOY,11,A8*%
%TO.N,/A8*%
X147662000Y-112571000D03*
%TO.P,DATEL GBOY,12,A9*%
%TO.N,/A9*%
X147662000Y-113603000D03*
%TO.P,DATEL GBOY,13,A10*%
%TO.N,/A10*%
X147662000Y-114633000D03*
D21*
%TO.P,DATEL GBOY,14,A11*%
%TO.N,/A11*%
X150242000Y-117173000D03*
%TO.P,DATEL GBOY,15,A12*%
%TO.N,/A12*%
X151273000Y-117173000D03*
%TO.P,DATEL GBOY,16,A13*%
%TO.N,/A13*%
X152306000Y-117175000D03*
%TO.P,DATEL GBOY,17,A14*%
%TO.N,/A14*%
X153299000Y-117175000D03*
%TO.P,DATEL GBOY,18,A15_Cart*%
%TO.N,/A15_Cart*%
X154330000Y-117171000D03*
%TO.P,DATEL GBOY,19,Button*%
%TO.N,/Button*%
X155362000Y-117173000D03*
%TO.P,DATEL GBOY,20,GND*%
%TO.N,/GND*%
X156391000Y-117172000D03*
%TO.P,DATEL GBOY,21,WE_Internal*%
%TO.N,/WE_Internal*%
X157389000Y-117176000D03*
%TO.P,DATEL GBOY,22,SRAM_OE*%
%TO.N,/SRAM_OE*%
X158416000Y-117176000D03*
%TO.P,DATEL GBOY,23,SRAM_CS1*%
%TO.N,/SRAM_CS1*%
X159452000Y-117175000D03*
%TO.P,DATEL GBOY,24,EEPROM_OE*%
%TO.N,/EEPROM_OE*%
X160483000Y-117172000D03*
%TO.P,DATEL GBOY,25,EEPROM_CE*%
%TO.N,/EEPROM_CE*%
X161514000Y-117172000D03*
%TO.P,DATEL GBOY,26,A15_Game*%
%TO.N,/A15_Game*%
X162507000Y-117172000D03*
D20*
%TO.P,DATEL GBOY,27,Wr_Game*%
%TO.N,/Wr_Game*%
X165005000Y-114632000D03*
%TO.P,DATEL GBOY,28,Rd_Game*%
%TO.N,/Rd_Game*%
X165005000Y-113602000D03*
%TO.P,DATEL GBOY,29,Wr_Sys*%
%TO.N,/Wr_Sys*%
X165005000Y-112568000D03*
%TO.P,DATEL GBOY,30,Rd_Sys*%
%TO.N,/Rd_Sys*%
X165005000Y-111537000D03*
%TO.P,DATEL GBOY,31,Const_High*%
%TO.N,/Const_High*%
X165008000Y-110507000D03*
%TO.P,DATEL GBOY,32,VCC*%
%TO.N,/VCC*%
X165008000Y-109510000D03*
%TO.P,DATEL GBOY,33,GND*%
%TO.N,/GND*%
X165005000Y-108441000D03*
%TO.P,DATEL GBOY,34,N/C*%
%TO.N,unconnected-(U3-Pad34)*%
X165009000Y-107447000D03*
%TO.P,DATEL GBOY,35,A16_Internal*%
%TO.N,/A16_Internal*%
X165005000Y-106420000D03*
%TO.P,DATEL GBOY,36,A15_Internal*%
%TO.N,/A15_Internal*%
X165009000Y-105385000D03*
%TO.P,DATEL GBOY,37,A14_Internal*%
%TO.N,/A14_Internal*%
X165005000Y-104394000D03*
%TO.P,DATEL GBOY,38,A13_Internal*%
%TO.N,/A13_Internal*%
X165009000Y-103321000D03*
%TO.P,DATEL GBOY,39,A12_Internal*%
%TO.N,/A12_Internal*%
X165007000Y-102332000D03*
D21*
%TO.P,DATEL GBOY,40,Switch*%
%TO.N,/Switch*%
X162466000Y-99750000D03*
%TO.P,DATEL GBOY,41,N/C*%
%TO.N,unconnected-(U3-Pad41)*%
X161474000Y-99753000D03*
%TO.P,DATEL GBOY,42,D0*%
%TO.N,/D0*%
X160443000Y-99753000D03*
%TO.P,DATEL GBOY,43,D1*%
%TO.N,/D1*%
X159409000Y-99750000D03*
%TO.P,DATEL GBOY,44,D2*%
%TO.N,/D2*%
X158374000Y-99750000D03*
%TO.P,DATEL GBOY,45,D3*%
%TO.N,/D3*%
X157348000Y-99749000D03*
%TO.P,DATEL GBOY,46,GND*%
%TO.N,/GND*%
X156353000Y-99753000D03*
%TO.P,DATEL GBOY,47,D4*%
%TO.N,/D4*%
X155321000Y-99748000D03*
%TO.P,DATEL GBOY,48,D5*%
%TO.N,/D5*%
X154289000Y-99752000D03*
%TO.P,DATEL GBOY,49,D6*%
%TO.N,/D6*%
X153259000Y-99752000D03*
%TO.P,DATEL GBOY,50,D7*%
%TO.N,/D7*%
X152266000Y-99752000D03*
%TO.P,DATEL GBOY,51,N/C*%
%TO.N,unconnected-(U3-Pad51)*%
X151236000Y-99747000D03*
%TO.P,DATEL GBOY,52,N/C*%
%TO.N,unconnected-(U3-Pad52)*%
X150201000Y-99747000D03*
%TD*%
D22*
%TO.P,HY628100ALLG-70,32,VCC*%
%TO.N,/VCC*%
X121154000Y-119266000D03*
%TO.P,HY628100ALLG-70,31,A15*%
%TO.N,/A15_Internal*%
X121158000Y-117991000D03*
%TO.P,HY628100ALLG-70,30,CS2*%
%TO.N,/VCC*%
X121161000Y-116685000D03*
%TO.P,HY628100ALLG-70,29,/WE*%
%TO.N,/WE_Internal*%
X121154000Y-115457000D03*
%TO.P,HY628100ALLG-70,28,A13*%
%TO.N,/A13_Internal*%
X121154000Y-114143000D03*
%TO.P,HY628100ALLG-70,27,A8*%
%TO.N,/A8*%
X121158000Y-112835000D03*
%TO.P,HY628100ALLG-70,26,A9*%
%TO.N,/A9*%
X121158000Y-111567000D03*
%TO.P,HY628100ALLG-70,25,A11*%
%TO.N,/A11*%
X121154000Y-110294000D03*
%TO.P,HY628100ALLG-70,24,/OE*%
%TO.N,/SRAM_OE*%
X121158000Y-109022000D03*
%TO.P,HY628100ALLG-70,23,A10*%
%TO.N,/A10*%
X121154000Y-107715000D03*
%TO.P,HY628100ALLG-70,22,/CS1*%
%TO.N,/SRAM_CS1*%
X121154000Y-106401000D03*
%TO.P,HY628100ALLG-70,21,I/O_8*%
%TO.N,/D7*%
X121154000Y-105135000D03*
%TO.P,HY628100ALLG-70,20,I/O_7*%
%TO.N,/D6*%
X121154000Y-103865000D03*
%TO.P,HY628100ALLG-70,19,I/O_6*%
%TO.N,/D5*%
X121154000Y-102593000D03*
%TO.P,HY628100ALLG-70,18,I/O_5*%
%TO.N,/D4*%
X121154000Y-101284000D03*
%TO.P,HY628100ALLG-70,17,I/O_4*%
%TO.N,/D3*%
X121154000Y-100052000D03*
%TO.P,HY628100ALLG-70,16,GND*%
%TO.N,/GND*%
X133028000Y-100054000D03*
%TO.P,HY628100ALLG-70,15,I/O_3*%
%TO.N,/D2*%
X133020000Y-101289000D03*
%TO.P,HY628100ALLG-70,14,I/O_2*%
%TO.N,/D1*%
X133024000Y-102598000D03*
%TO.P,HY628100ALLG-70,13,I/O_1*%
%TO.N,/D0*%
X133024000Y-103862000D03*
%TO.P,HY628100ALLG-70,12,A0*%
%TO.N,/A0*%
X133024000Y-105137000D03*
%TO.P,HY628100ALLG-70,11,A1*%
%TO.N,/A1*%
X133024000Y-106401000D03*
%TO.P,HY628100ALLG-70,10,A2*%
%TO.N,/A2*%
X133024000Y-107717000D03*
%TO.P,HY628100ALLG-70,9,A3*%
%TO.N,/A3*%
X133024000Y-109024000D03*
%TO.P,HY628100ALLG-70,8,A4*%
%TO.N,/A4*%
X133024000Y-110294000D03*
%TO.P,HY628100ALLG-70,7,A5*%
%TO.N,/A5*%
X133020000Y-111563000D03*
%TO.P,HY628100ALLG-70,6,A6*%
%TO.N,/A6*%
X133027000Y-112831000D03*
%TO.P,HY628100ALLG-70,5,A7*%
%TO.N,/A7*%
X133019000Y-114144000D03*
%TO.P,HY628100ALLG-70,4,A12*%
%TO.N,/A12_Internal*%
X133022000Y-115458000D03*
%TO.P,HY628100ALLG-70,3,A14*%
%TO.N,/A14_Internal*%
X133026000Y-116687000D03*
%TO.P,HY628100ALLG-70,2,A16*%
%TO.N,/A16_Internal*%
X133021000Y-117992000D03*
%TO.P,HY628100ALLG-70,1,N/C*%
%TO.N,unconnected-(U2-Pad1)*%
X133025000Y-119267000D03*
%TD*%
D23*
%TO.N,/Switch*%
X122316000Y-92820900D03*
X158995400Y-97051900D03*
X120119200Y-73007300D03*
%TO.N,/GND*%
X156008700Y-97917400D03*
X160465600Y-111438000D03*
X156391000Y-115319000D03*
X135784100Y-98241200D03*
%TO.N,/A16_Internal*%
X136188500Y-116745300D03*
X161815300Y-103728700D03*
X154179800Y-88696700D03*
%TO.N,/A15_Internal*%
X166903800Y-106127100D03*
X125397900Y-120657000D03*
%TO.N,/A12_Internal*%
X162748200Y-101640200D03*
X135258900Y-115063600D03*
%TO.N,/A7*%
X144111900Y-112444500D03*
X156579700Y-87598000D03*
%TO.N,/A6*%
X146130500Y-79018500D03*
X156319900Y-84840400D03*
X136627400Y-120604000D03*
%TO.N,/A5*%
X131947600Y-122051800D03*
X145847300Y-82474000D03*
X133830200Y-122051800D03*
%TO.N,/A4*%
X136954300Y-108327100D03*
X143786800Y-107039900D03*
X143711100Y-82648500D03*
%TO.N,/A3*%
X142325200Y-79027100D03*
%TO.N,/A2*%
X144833700Y-106696900D03*
X137619400Y-89919300D03*
X135284400Y-108104200D03*
X141663200Y-82618200D03*
X143451700Y-94966700D03*
%TO.N,/A1*%
X140382300Y-94957400D03*
X144295800Y-97484200D03*
X141856100Y-84373800D03*
%TO.N,/A0*%
X134234200Y-95451400D03*
X140309500Y-83972000D03*
X145625700Y-97788300D03*
X138400800Y-90552700D03*
%TO.N,/D0*%
X158705900Y-103069000D03*
X135274300Y-103748200D03*
X151341400Y-123422600D03*
%TO.N,/D1*%
X158907500Y-101415400D03*
X135460400Y-102642000D03*
X152341900Y-123571200D03*
%TO.N,/D2*%
X153643500Y-95290300D03*
X138344500Y-102390500D03*
%TO.N,/D3*%
X154823300Y-96263200D03*
X133653800Y-86749500D03*
%TO.N,/D4*%
X133679700Y-87971900D03*
X155452400Y-101807500D03*
X126679300Y-97553600D03*
%TO.N,/D5*%
X133671900Y-89093000D03*
X153869400Y-101966300D03*
X123980900Y-101909400D03*
X156337900Y-123693200D03*
%TO.N,/D6*%
X156094300Y-103450000D03*
X153435600Y-96940700D03*
X133692600Y-90362000D03*
%TO.N,/D7*%
X134744400Y-92369600D03*
X152509900Y-97850100D03*
X157410000Y-122639100D03*
X150643100Y-122069400D03*
%TO.N,/EEPROM_CE*%
X131858000Y-95741100D03*
X156225100Y-102449600D03*
%TO.N,/A10*%
X140177400Y-82943900D03*
X146107700Y-86141300D03*
%TO.N,/EEPROM_OE*%
X141159000Y-100407000D03*
X155093900Y-103430200D03*
%TO.N,/A11*%
X142993300Y-106418700D03*
X127142000Y-109830600D03*
X151534200Y-108648100D03*
%TO.N,/A9*%
X145488400Y-113834400D03*
X125052800Y-113516600D03*
X143754200Y-113455100D03*
X144768900Y-82486100D03*
%TO.N,/A8*%
X138408000Y-117867100D03*
X127143000Y-118974900D03*
%TO.N,/A13_Internal*%
X126652300Y-117475500D03*
X164198900Y-101218400D03*
X145791300Y-89846600D03*
%TO.N,/A14_Internal*%
X135279100Y-116182300D03*
X162187900Y-102581600D03*
%TO.N,/WE_Internal*%
X151219600Y-89189600D03*
X125500700Y-116115100D03*
X153861300Y-106601700D03*
%TO.N,/VCC*%
X163299200Y-96724300D03*
X145624100Y-109473300D03*
X125613500Y-117148300D03*
%TO.N,/SRAM_CS1*%
X155312000Y-105876400D03*
X126080900Y-106962500D03*
%TO.N,/SRAM_OE*%
X154786100Y-107535400D03*
X126535800Y-109022000D03*
%TO.N,/Clk*%
X126398300Y-120724900D03*
%TO.N,/Rd_Game*%
X162281000Y-108692100D03*
%TO.N,/CS*%
X127143900Y-120055800D03*
%TO.N,/A12*%
X151273000Y-115334200D03*
%TO.N,/A13*%
X150718700Y-92577600D03*
%TO.N,/A14*%
X151479500Y-93342800D03*
%TO.N,/A15_Game*%
X162409100Y-115331600D03*
X168797300Y-109475100D03*
%TO.N,/Reset*%
X163158700Y-125724300D03*
X117794400Y-76227300D03*
%TO.N,/Audio*%
X164609400Y-125692400D03*
X116823700Y-118575300D03*
%TO.N,/Button*%
X121692100Y-99144600D03*
X154333800Y-124596000D03*
%TO.N,/Wr_Sys*%
X124443200Y-124526400D03*
X166692900Y-113111400D03*
%TO.N,/Rd_Sys*%
X163118200Y-112075300D03*
X126691700Y-122175600D03*
%TO.N,/Const_High*%
X120688300Y-99126200D03*
X166781300Y-111985300D03*
%TD*%
D24*
%TO.N,/Switch*%
X161323200Y-97051900D02*
X158995400Y-97051900D01*
X162466000Y-98194700D02*
X161323200Y-97051900D01*
X120383000Y-73007300D02*
X120119200Y-73007300D01*
X127897000Y-74349000D02*
X121724700Y-74349000D01*
X162466000Y-99750000D02*
X162466000Y-98194700D01*
X122316000Y-92820900D02*
X122316000Y-94182000D01*
X121724700Y-74349000D02*
X120383000Y-73007300D01*
X129142000Y-73104000D02*
X127897000Y-74349000D01*
D25*
%TO.N,/GND*%
X156139000Y-98047700D02*
X156008700Y-97917400D01*
X165935000Y-130130000D02*
X165935000Y-125864700D01*
X135404000Y-85202000D02*
X133818700Y-85202000D01*
X119101500Y-81678000D02*
X119101500Y-80452700D01*
X165005000Y-108441000D02*
X163299700Y-108441000D01*
X120323900Y-83896400D02*
X119330800Y-82903300D01*
X127938000Y-85093200D02*
X127938000Y-85202000D01*
X145925800Y-108472900D02*
X145956700Y-108442000D01*
X135128300Y-98897000D02*
X135784100Y-98241200D01*
X161695500Y-107320900D02*
X161695500Y-107739700D01*
X119330800Y-82903300D02*
X119101500Y-82903300D01*
X163299700Y-108441000D02*
X162598400Y-107739700D01*
X156353000Y-98047700D02*
X156139000Y-98047700D01*
X120360900Y-78375900D02*
X120360900Y-79193300D01*
X119101500Y-81678000D02*
X119101500Y-82903300D01*
X137469200Y-102823100D02*
X143119000Y-108472900D01*
X143119000Y-108472900D02*
X145925800Y-108472900D01*
X161095100Y-111438000D02*
X160465600Y-111438000D01*
X165935000Y-117606400D02*
X161095100Y-112766500D01*
X133028000Y-100054000D02*
X134802100Y-100054000D01*
X122038100Y-79193300D02*
X127938000Y-85093200D01*
X133818700Y-85202000D02*
X127938000Y-85202000D01*
X156391000Y-117172000D02*
X156391000Y-115466700D01*
X120360900Y-79193300D02*
X119101500Y-80452700D01*
X120323900Y-85899100D02*
X120323900Y-83896400D01*
X134802100Y-100054000D02*
X135128300Y-100054000D01*
X135128300Y-100054000D02*
X137469200Y-102394900D01*
X161095100Y-112766500D02*
X161095100Y-111438000D01*
X161695500Y-107739700D02*
X161095100Y-108340100D01*
X165935000Y-125864700D02*
X165935000Y-117606400D01*
X156353000Y-99753000D02*
X156353000Y-101458300D01*
X157806100Y-103431500D02*
X161695500Y-107320900D01*
X147662000Y-108442000D02*
X145956700Y-108442000D01*
X119223000Y-87950000D02*
X119223000Y-86724700D01*
X122438000Y-97356000D02*
X122438000Y-96130700D01*
X135128300Y-100054000D02*
X135128300Y-98897000D01*
X122544900Y-96130700D02*
X127938000Y-90737600D01*
X127938000Y-90737600D02*
X127938000Y-85202000D01*
X157806100Y-102792700D02*
X157806100Y-103431500D01*
X161095100Y-108340100D02*
X161095100Y-111438000D01*
X156353000Y-101458300D02*
X156471700Y-101458300D01*
X122438000Y-96130700D02*
X122544900Y-96130700D01*
X137469200Y-102394900D02*
X137469200Y-102823100D01*
X119459000Y-77474000D02*
X120360900Y-78375900D01*
X156353000Y-99753000D02*
X156353000Y-98047700D01*
X156391000Y-115466700D02*
X156391000Y-115319000D01*
X119498300Y-86724700D02*
X120323900Y-85899100D01*
X119223000Y-86724700D02*
X119498300Y-86724700D01*
X156471700Y-101458300D02*
X157806100Y-102792700D01*
X120360900Y-79193300D02*
X122038100Y-79193300D01*
X162598400Y-107739700D02*
X161695500Y-107739700D01*
D24*
%TO.N,/A16_Internal*%
X163449700Y-106420000D02*
X161815300Y-104785600D01*
X161815300Y-104785600D02*
X161815300Y-103728700D01*
X150846300Y-85204000D02*
X150846300Y-85363200D01*
X149411000Y-85204000D02*
X150846300Y-85204000D01*
X134971300Y-117962500D02*
X136188500Y-116745300D01*
X165005000Y-106420000D02*
X163449700Y-106420000D01*
X133021000Y-117992000D02*
X134971300Y-117992000D01*
X150846300Y-85363200D02*
X154179800Y-88696700D01*
X134971300Y-117992000D02*
X134971300Y-117962500D01*
%TO.N,/A15_Internal*%
X166564300Y-105787600D02*
X166903800Y-106127100D01*
X167018000Y-101468800D02*
X167018000Y-104931300D01*
X166564300Y-105385000D02*
X166564300Y-105787600D01*
X167018000Y-104931300D02*
X166564300Y-105385000D01*
X125397900Y-120280600D02*
X125397900Y-120657000D01*
X149414000Y-83977000D02*
X147978700Y-83977000D01*
X123108300Y-117991000D02*
X125397900Y-120280600D01*
X156363300Y-90814100D02*
X167018000Y-101468800D01*
X151825400Y-88464300D02*
X154175200Y-90814100D01*
X154175200Y-90814100D02*
X156363300Y-90814100D01*
X147967100Y-88259800D02*
X148171600Y-88464300D01*
X121158000Y-117991000D02*
X123108300Y-117991000D01*
X147967100Y-83988600D02*
X147967100Y-88259800D01*
X147978700Y-83977000D02*
X147967100Y-83988600D01*
X148171600Y-88464300D02*
X151825400Y-88464300D01*
X165009000Y-105385000D02*
X166564300Y-105385000D01*
%TO.N,/A12_Internal*%
X162973600Y-98061300D02*
X162973600Y-101719900D01*
X133022000Y-115458000D02*
X134972300Y-115458000D01*
X162973600Y-101719900D02*
X162827900Y-101719900D01*
X148157300Y-89735600D02*
X150721900Y-89735600D01*
X150721900Y-89735600D02*
X152250700Y-91264400D01*
X147512000Y-83125700D02*
X147512000Y-89090300D01*
X147512000Y-89090300D02*
X148157300Y-89735600D01*
X149414000Y-82659000D02*
X147978700Y-82659000D01*
X156176700Y-91264400D02*
X162973600Y-98061300D01*
X134972300Y-115350200D02*
X135258900Y-115063600D01*
X163854100Y-102332000D02*
X163585700Y-102332000D01*
X147978700Y-82659000D02*
X147512000Y-83125700D01*
X134972300Y-115458000D02*
X134972300Y-115350200D01*
X152250700Y-91264400D02*
X156176700Y-91264400D01*
X162827900Y-101719900D02*
X162748200Y-101640200D01*
X165007000Y-102332000D02*
X163854100Y-102332000D01*
X163585700Y-102332000D02*
X162973600Y-101719900D01*
%TO.N,/A7*%
X137359000Y-130131000D02*
X137359000Y-126015700D01*
X144111900Y-112444500D02*
X145019400Y-111537000D01*
X145019400Y-111537000D02*
X147662000Y-111537000D01*
X133019000Y-114144000D02*
X134969300Y-114144000D01*
X147512000Y-80763000D02*
X147512000Y-79327700D01*
X149744700Y-80763000D02*
X147512000Y-80763000D01*
X137359000Y-126015700D02*
X137359000Y-115272800D01*
X140187300Y-112444500D02*
X144111900Y-112444500D01*
X137359000Y-115272800D02*
X140187300Y-112444500D01*
X136230200Y-114144000D02*
X134969300Y-114144000D01*
X148076000Y-78763700D02*
X148076000Y-75968000D01*
X137359000Y-115272800D02*
X136230200Y-114144000D01*
X147512000Y-79327700D02*
X148076000Y-78763700D01*
X156579700Y-87598000D02*
X149744700Y-80763000D01*
%TO.N,/A6*%
X149583000Y-78103500D02*
X149583000Y-77517000D01*
X135144800Y-112831000D02*
X133027000Y-112831000D01*
X133027000Y-112831000D02*
X131076700Y-112831000D01*
X146130500Y-79211200D02*
X146130500Y-79018500D01*
X132054500Y-121326500D02*
X130618400Y-119890400D01*
X132672900Y-121975700D02*
X132672900Y-121751300D01*
X133964300Y-123267100D02*
X132672900Y-121975700D01*
X146106700Y-110506000D02*
X137469800Y-110506000D01*
X133964300Y-123267100D02*
X136627400Y-120604000D01*
X132672900Y-121751300D02*
X132248100Y-121326500D01*
X135841000Y-130131000D02*
X135841000Y-125143800D01*
X146242000Y-79322700D02*
X146130500Y-79211200D01*
X147662000Y-110506000D02*
X146106700Y-110506000D01*
X135841000Y-125143800D02*
X133964300Y-123267100D01*
X156319900Y-84840400D02*
X149583000Y-78103500D01*
X132248100Y-121326500D02*
X132054500Y-121326500D01*
X130618400Y-113289300D02*
X131076700Y-112831000D01*
X146242000Y-80758000D02*
X146242000Y-79322700D01*
X130618400Y-119890400D02*
X130618400Y-113289300D01*
X137469800Y-110506000D02*
X135144800Y-112831000D01*
%TO.N,/A5*%
X145847300Y-82474000D02*
X144931000Y-81557700D01*
X148920700Y-111021400D02*
X137591300Y-111021400D01*
X144931000Y-81557700D02*
X144931000Y-80760000D01*
X130168000Y-120272200D02*
X131947600Y-122051800D01*
X149217300Y-107449000D02*
X149217300Y-110724800D01*
X131068700Y-113709200D02*
X131068700Y-119703800D01*
X149217300Y-110724800D02*
X148920700Y-111021400D01*
X134334000Y-124438200D02*
X134334000Y-130119000D01*
X131290400Y-113487500D02*
X131068700Y-113709200D01*
X137591300Y-111021400D02*
X135125200Y-113487500D01*
X131947600Y-122051800D02*
X134334000Y-124438200D01*
X131068700Y-119703800D02*
X132241100Y-120876200D01*
X135125200Y-113487500D02*
X131290400Y-113487500D01*
X132241100Y-120876200D02*
X132654600Y-120876200D01*
X132654600Y-120876200D02*
X133830200Y-122051800D01*
X131069700Y-111563000D02*
X130168000Y-112464700D01*
X147662000Y-107449000D02*
X149217300Y-107449000D01*
X133020000Y-111563000D02*
X131069700Y-111563000D01*
X130168000Y-112464700D02*
X130168000Y-120272200D01*
%TO.N,/A4*%
X143044800Y-95585500D02*
X143044800Y-105148200D01*
X143054400Y-86857300D02*
X143054400Y-94338300D01*
X146106700Y-106416000D02*
X146106700Y-106551500D01*
X132048900Y-110294000D02*
X133024000Y-110294000D01*
X143699000Y-82648500D02*
X143699000Y-86212700D01*
X129693000Y-122869700D02*
X129693000Y-111674700D01*
X143044800Y-105148200D02*
X143786800Y-105890200D01*
X132048900Y-110294000D02*
X131073700Y-110294000D01*
X143699000Y-86212700D02*
X143054400Y-86857300D01*
X143699000Y-80758000D02*
X143699000Y-82193300D01*
X146106700Y-106551500D02*
X145235900Y-107422300D01*
X143699000Y-82648500D02*
X143711100Y-82648500D01*
X144169200Y-107422300D02*
X143786800Y-107039900D01*
X134974300Y-110294000D02*
X134987400Y-110294000D01*
X134987400Y-110294000D02*
X136954300Y-108327100D01*
X145235900Y-107422300D02*
X144169200Y-107422300D01*
X143786800Y-105890200D02*
X143786800Y-107039900D01*
X143054400Y-94338300D02*
X142726400Y-94666300D01*
X129693000Y-111674700D02*
X131073700Y-110294000D01*
X133024000Y-110294000D02*
X134974300Y-110294000D01*
X147662000Y-106416000D02*
X146106700Y-106416000D01*
X132827000Y-130119000D02*
X132827000Y-126003700D01*
X143699000Y-82648500D02*
X143699000Y-82193300D01*
X142726400Y-94666300D02*
X142726400Y-95267100D01*
X132827000Y-126003700D02*
X129693000Y-122869700D01*
X142726400Y-95267100D02*
X143044800Y-95585500D01*
%TO.N,/A3*%
X133024000Y-109024000D02*
X135449300Y-109024000D01*
X142435000Y-83658500D02*
X142435000Y-82193300D01*
X147662000Y-105386000D02*
X149217300Y-105386000D01*
X142435000Y-81475600D02*
X142435000Y-82193300D01*
X145449700Y-107872600D02*
X143421500Y-107872600D01*
X135763800Y-101870100D02*
X135192000Y-101870100D01*
X141913100Y-100799800D02*
X141913100Y-99478400D01*
X142325200Y-79212900D02*
X142325200Y-79027100D01*
X133024000Y-109024000D02*
X131073700Y-109024000D01*
X146400900Y-106921400D02*
X145449700Y-107872600D01*
X129235000Y-110862700D02*
X129235000Y-123213400D01*
X130619300Y-101328100D02*
X130619300Y-99414100D01*
X131073700Y-109024000D02*
X129235000Y-110862700D01*
X131321000Y-130109000D02*
X131327100Y-130102900D01*
X148935800Y-106921400D02*
X146400900Y-106921400D01*
X131327100Y-130102900D02*
X131327100Y-128032800D01*
X141802600Y-99367900D02*
X141802600Y-85789700D01*
X142435000Y-80758000D02*
X142435000Y-79322700D01*
X133218200Y-97848100D02*
X134012600Y-97053700D01*
X136213800Y-108259500D02*
X136213800Y-102320100D01*
X135140700Y-101921400D02*
X131212600Y-101921400D01*
X136213800Y-102320100D02*
X135763800Y-101870100D01*
X141913100Y-99478400D02*
X141802600Y-99367900D01*
X141551800Y-101161100D02*
X141913100Y-100799800D01*
X141551800Y-106002900D02*
X141551800Y-101161100D01*
X142435000Y-79322700D02*
X142325200Y-79212900D01*
X131287400Y-125265800D02*
X131287400Y-127993100D01*
X132185300Y-97848100D02*
X133218200Y-97848100D01*
X129235000Y-123213400D02*
X131287400Y-125265800D01*
X131212600Y-101921400D02*
X130619300Y-101328100D01*
X141802600Y-85789700D02*
X142605600Y-84986700D01*
X143421500Y-107872600D02*
X141551800Y-106002900D01*
X142605600Y-84986700D02*
X142605600Y-83829100D01*
X142605600Y-83829100D02*
X142435000Y-83658500D01*
X135192000Y-101870100D02*
X135140700Y-101921400D01*
X131287400Y-127993100D02*
X131327100Y-128032800D01*
X130619300Y-99414100D02*
X132185300Y-97848100D01*
X135449300Y-109024000D02*
X136213800Y-108259500D01*
X149217300Y-106639900D02*
X148935800Y-106921400D01*
X134012600Y-97053700D02*
X136366600Y-97053700D01*
X149217300Y-105386000D02*
X149217300Y-106639900D01*
X140474000Y-101161100D02*
X141551800Y-101161100D01*
X136366600Y-97053700D02*
X140474000Y-101161100D01*
X142435000Y-81475600D02*
X142435000Y-80758000D01*
%TO.N,/A2*%
X132048900Y-107717000D02*
X131073700Y-107717000D01*
X131073700Y-107717000D02*
X128784700Y-110006000D01*
X133024000Y-107717000D02*
X134974300Y-107717000D01*
X141159000Y-80758000D02*
X141159000Y-82193300D01*
X144833700Y-106696900D02*
X144833700Y-105674000D01*
X137934400Y-89604300D02*
X137619400Y-89919300D01*
X141159000Y-80040300D02*
X141159000Y-80758000D01*
X143570500Y-101850800D02*
X146113700Y-104394000D01*
X137934400Y-79457900D02*
X137934400Y-89604300D01*
X141159000Y-79322700D02*
X138069600Y-79322700D01*
X128784700Y-110006000D02*
X128784700Y-124982400D01*
X147669000Y-104394000D02*
X146113700Y-104394000D01*
X143570500Y-95085500D02*
X143570500Y-101850800D01*
X129814000Y-130127000D02*
X129814000Y-126011700D01*
X134974300Y-107794100D02*
X135284400Y-108104200D01*
X144833700Y-105674000D02*
X146113700Y-104394000D01*
X141159000Y-82193300D02*
X141238300Y-82193300D01*
X134974300Y-107717000D02*
X134974300Y-107794100D01*
X132048900Y-107717000D02*
X133024000Y-107717000D01*
X141159000Y-80040300D02*
X141159000Y-79322700D01*
X141238300Y-82193300D02*
X141663200Y-82618200D01*
X138069600Y-79322700D02*
X137934400Y-79457900D01*
X128784700Y-124982400D02*
X129814000Y-126011700D01*
X143451700Y-94966700D02*
X143570500Y-95085500D01*
%TO.N,/A1*%
X128319500Y-109155200D02*
X131073700Y-106401000D01*
X130169000Y-99227500D02*
X130169000Y-103401500D01*
X128319500Y-126000200D02*
X128319500Y-109155200D01*
X128308000Y-130127000D02*
X128308000Y-126011700D01*
X139849000Y-80763000D02*
X139849000Y-82198300D01*
X130169000Y-103401500D02*
X131263500Y-104496000D01*
X131998700Y-97397800D02*
X130169000Y-99227500D01*
X139031200Y-96308500D02*
X134091700Y-96308500D01*
X140902700Y-82643400D02*
X140902700Y-82887500D01*
X134091700Y-96308500D02*
X133002400Y-97397800D01*
X133999200Y-106401000D02*
X134974300Y-106401000D01*
X134824100Y-104496000D02*
X134974300Y-104646200D01*
X131263500Y-104496000D02*
X134824100Y-104496000D01*
X144295800Y-101513100D02*
X146106700Y-103324000D01*
X128308000Y-126011700D02*
X128319500Y-126000200D01*
X144295800Y-97484200D02*
X144295800Y-101513100D01*
X134974300Y-104646200D02*
X134974300Y-106401000D01*
X133002400Y-97397800D02*
X131998700Y-97397800D01*
X147662000Y-103324000D02*
X146106700Y-103324000D01*
X140479400Y-85750500D02*
X140479400Y-94860300D01*
X141856100Y-84373800D02*
X140479400Y-85750500D01*
X133999200Y-106401000D02*
X133024000Y-106401000D01*
X141856100Y-83840900D02*
X141856100Y-84373800D01*
X133024000Y-106401000D02*
X131073700Y-106401000D01*
X140902700Y-82887500D02*
X141856100Y-83840900D01*
X140382300Y-94957400D02*
X139031200Y-96308500D01*
X139849000Y-82198300D02*
X140457600Y-82198300D01*
X140457600Y-82198300D02*
X140902700Y-82643400D01*
X140479400Y-94860300D02*
X140382300Y-94957400D01*
%TO.N,/A0*%
X138581000Y-83655100D02*
X138897900Y-83972000D01*
X138581000Y-82195300D02*
X138581000Y-83655100D01*
X127869200Y-108341500D02*
X131073700Y-105137000D01*
X126801000Y-126011700D02*
X127869200Y-124943500D01*
X147658000Y-102332000D02*
X145625700Y-100299700D01*
X126801000Y-130127000D02*
X126801000Y-126011700D01*
X138897900Y-83972000D02*
X138897900Y-90055600D01*
X131804900Y-96947500D02*
X129718700Y-99033700D01*
X138581000Y-80760000D02*
X138581000Y-82195300D01*
X127869200Y-124943500D02*
X127869200Y-108341500D01*
X129718700Y-99033700D02*
X129718700Y-103782000D01*
X132738100Y-96947500D02*
X131804900Y-96947500D01*
X134234200Y-95451400D02*
X132738100Y-96947500D01*
X145625700Y-100299700D02*
X145625700Y-97788300D01*
X138897900Y-83972000D02*
X140309500Y-83972000D01*
X133024000Y-105137000D02*
X131073700Y-105137000D01*
X129718700Y-103782000D02*
X131073700Y-105137000D01*
X138897900Y-90055600D02*
X138400800Y-90552700D01*
%TO.N,/D0*%
X134584000Y-77514000D02*
X136394700Y-79324700D01*
X133024000Y-103862000D02*
X135160500Y-103862000D01*
X150884000Y-130126000D02*
X150884000Y-126010700D01*
X160443000Y-101331900D02*
X158705900Y-103069000D01*
X160443000Y-101308300D02*
X160443000Y-101331900D01*
X137309000Y-80760000D02*
X137309000Y-79324700D01*
X136394700Y-79324700D02*
X137309000Y-79324700D01*
X160443000Y-99753000D02*
X160443000Y-101308300D01*
X150884000Y-126010700D02*
X151341400Y-125553300D01*
X151341400Y-125553300D02*
X151341400Y-123422600D01*
X135160500Y-103862000D02*
X135274300Y-103748200D01*
%TO.N,/D1*%
X152391000Y-126010700D02*
X152391000Y-123620300D01*
X134974300Y-102598000D02*
X135018300Y-102642000D01*
X159409000Y-101305300D02*
X159017600Y-101305300D01*
X135404000Y-82665000D02*
X133968700Y-82665000D01*
X135018300Y-102642000D02*
X135460400Y-102642000D01*
X152391000Y-123620300D02*
X152341900Y-123571200D01*
X152391000Y-130126000D02*
X152391000Y-126010700D01*
X159017600Y-101305300D02*
X158907500Y-101415400D01*
X133033200Y-75927300D02*
X133033200Y-81729500D01*
X133024000Y-102598000D02*
X134974300Y-102598000D01*
X159409000Y-99750000D02*
X159409000Y-101305300D01*
X133033200Y-81729500D02*
X133968700Y-82665000D01*
%TO.N,/D2*%
X131077600Y-100488700D02*
X131077600Y-99592700D01*
X131877900Y-101289000D02*
X131077600Y-100488700D01*
X153584000Y-121268700D02*
X154847100Y-120005600D01*
X153111300Y-101698600D02*
X153764300Y-101045600D01*
X153584000Y-125684700D02*
X153584000Y-121268700D01*
X153610400Y-107787800D02*
X153111300Y-107288700D01*
X153764300Y-101045600D02*
X153764300Y-97637800D01*
X153610400Y-112430800D02*
X153610400Y-107787800D01*
X154847100Y-120005600D02*
X154847100Y-113667500D01*
X135451800Y-97512600D02*
X136096400Y-97512600D01*
X154198300Y-97203800D02*
X154198300Y-96663900D01*
X153111300Y-107288700D02*
X153111300Y-101698600D01*
X153643500Y-95290300D02*
X155469600Y-95290300D01*
X153764300Y-97637800D02*
X154198300Y-97203800D01*
X153908000Y-130124000D02*
X153908000Y-126008700D01*
X131484000Y-81487300D02*
X133970700Y-83974000D01*
X158374000Y-99750000D02*
X158374000Y-98194700D01*
X136096400Y-97512600D02*
X138344500Y-99760700D01*
X154847100Y-113667500D02*
X153610400Y-112430800D01*
X131484000Y-77514000D02*
X131484000Y-81487300D01*
X138344500Y-99760700D02*
X138344500Y-102390500D01*
X154198300Y-96663900D02*
X153643500Y-96109100D01*
X153908000Y-126008700D02*
X153584000Y-125684700D01*
X155469600Y-95290300D02*
X158374000Y-98194700D01*
X133020000Y-101289000D02*
X131877900Y-101289000D01*
X153643500Y-96109100D02*
X153643500Y-95290300D01*
X133941600Y-99022800D02*
X135451800Y-97512600D01*
X131647500Y-99022800D02*
X133941600Y-99022800D01*
X135406000Y-83974000D02*
X133970700Y-83974000D01*
X131077600Y-99592700D02*
X131647500Y-99022800D01*
%TO.N,/D3*%
X154727100Y-101507100D02*
X154815700Y-101418500D01*
X155283500Y-97191900D02*
X154823300Y-96731700D01*
X123104300Y-100052000D02*
X124711900Y-98444400D01*
X155162200Y-125755900D02*
X155162200Y-122404900D01*
X158922300Y-115412400D02*
X155511400Y-112001500D01*
X158922300Y-118644800D02*
X158922300Y-115412400D01*
X155511400Y-107234900D02*
X154586700Y-106310200D01*
X133694000Y-86789700D02*
X133653800Y-86749500D01*
X157348000Y-98191000D02*
X156348900Y-97191900D01*
X157348000Y-99749000D02*
X157348000Y-98191000D01*
X154815700Y-101418500D02*
X154815700Y-97659700D01*
X135404000Y-86515000D02*
X133968700Y-86515000D01*
X154586700Y-106078500D02*
X153918300Y-105410100D01*
X153918300Y-105410100D02*
X153918300Y-102943200D01*
X155162200Y-122404900D02*
X158922300Y-118644800D01*
X154815700Y-97659700D02*
X155283500Y-97191900D01*
X121154000Y-100052000D02*
X123104300Y-100052000D01*
X154823300Y-96731700D02*
X154823300Y-96263200D01*
X153918300Y-102943200D02*
X154727100Y-102134400D01*
X124711900Y-95771800D02*
X133694000Y-86789700D01*
X155415000Y-126008700D02*
X155162200Y-125755900D01*
X155415000Y-130124000D02*
X155415000Y-126008700D01*
X124711900Y-98444400D02*
X124711900Y-95771800D01*
X154727100Y-102134400D02*
X154727100Y-101507100D01*
X154586700Y-106310200D02*
X154586700Y-106078500D01*
X156348900Y-97191900D02*
X155283500Y-97191900D01*
X133694000Y-86789700D02*
X133968700Y-86515000D01*
X155511400Y-112001500D02*
X155511400Y-107234900D01*
%TO.N,/D4*%
X155612500Y-125489400D02*
X156965200Y-126842100D01*
X123104300Y-101284000D02*
X123104300Y-101128600D01*
X155612500Y-122699300D02*
X155612500Y-125489400D01*
X135404000Y-87782000D02*
X133968700Y-87782000D01*
X155452400Y-102046000D02*
X154368600Y-103129800D01*
X155321000Y-99748000D02*
X155321000Y-101676100D01*
X123104300Y-101128600D02*
X126679300Y-97553600D01*
X156848300Y-121463500D02*
X155612500Y-122699300D01*
X156958000Y-127146900D02*
X156958000Y-130135000D01*
X154368600Y-103808900D02*
X156624100Y-106064400D01*
X154368600Y-103129800D02*
X154368600Y-103808900D01*
X156928400Y-121463500D02*
X156848300Y-121463500D01*
X121154000Y-101284000D02*
X123104300Y-101284000D01*
X133679700Y-87971900D02*
X133778800Y-87971900D01*
X126679300Y-97553600D02*
X126679300Y-94972300D01*
X156965200Y-127437400D02*
X156965200Y-127139700D01*
X156965200Y-127139700D02*
X156958000Y-127146900D01*
X156965200Y-127139700D02*
X156965200Y-126842100D01*
X159967400Y-118424500D02*
X156928400Y-121463500D01*
X159967400Y-115183600D02*
X159967400Y-118424500D01*
X156624100Y-111840300D02*
X159967400Y-115183600D01*
X155452400Y-101807500D02*
X155452400Y-102046000D01*
X126679300Y-94972300D02*
X133679700Y-87971900D01*
X155321000Y-101676100D02*
X155452400Y-101807500D01*
X156624100Y-106064400D02*
X156624100Y-111840300D01*
X133778800Y-87971900D02*
X133968700Y-87782000D01*
%TO.N,/D5*%
X121154000Y-102593000D02*
X123104300Y-102593000D01*
X153869400Y-101726900D02*
X153869400Y-101966300D01*
X154289000Y-99752000D02*
X154289000Y-101307300D01*
X129694500Y-95631700D02*
X123980900Y-101345300D01*
X135404000Y-89093000D02*
X133968700Y-89093000D01*
X129694500Y-93070400D02*
X129694500Y-95631700D01*
X156337900Y-123916600D02*
X156337900Y-123693200D01*
X158441000Y-126019700D02*
X156337900Y-123916600D01*
X133968700Y-89093000D02*
X133671900Y-89093000D01*
X158441000Y-130135000D02*
X158441000Y-126019700D01*
X123104300Y-102593000D02*
X123787900Y-101909400D01*
X123787900Y-101909400D02*
X123980900Y-101909400D01*
X154289000Y-101307300D02*
X153869400Y-101726900D01*
X133671900Y-89093000D02*
X129694500Y-93070400D01*
X123980900Y-101345300D02*
X123980900Y-101909400D01*
%TO.N,/D6*%
X130651600Y-93403000D02*
X130651600Y-95327000D01*
X159673200Y-126002700D02*
X156663100Y-122992600D01*
X160994100Y-114936500D02*
X158322900Y-112265300D01*
X157034900Y-121913800D02*
X157528200Y-121913800D01*
X159931000Y-130118000D02*
X159931000Y-126002700D01*
X156663100Y-122992600D02*
X156663100Y-122285600D01*
X160994100Y-118447900D02*
X160994100Y-114936500D01*
X158322900Y-112265300D02*
X158322900Y-105678600D01*
X153435600Y-96940700D02*
X153259000Y-97117300D01*
X133692600Y-90362000D02*
X130651600Y-93403000D01*
X133968700Y-90362000D02*
X133692600Y-90362000D01*
X156663100Y-122285600D02*
X157034900Y-121913800D01*
X159931000Y-126002700D02*
X159673200Y-126002700D01*
X124706300Y-102263000D02*
X123104300Y-103865000D01*
X124706300Y-101272300D02*
X124706300Y-102263000D01*
X121154000Y-103865000D02*
X123104300Y-103865000D01*
X153259000Y-97117300D02*
X153259000Y-99752000D01*
X130651600Y-95327000D02*
X124706300Y-101272300D01*
X135404000Y-90362000D02*
X133968700Y-90362000D01*
X157528200Y-121913800D02*
X160994100Y-118447900D01*
X158322900Y-105678600D02*
X156094300Y-103450000D01*
%TO.N,/D7*%
X161450000Y-130118000D02*
X161450000Y-126002700D01*
X153812500Y-118900000D02*
X153812500Y-114222600D01*
X153160100Y-113570200D02*
X153160100Y-107974400D01*
X153812500Y-114222600D02*
X153160100Y-113570200D01*
X152266000Y-100529600D02*
X152266000Y-101307300D01*
X161450000Y-126002700D02*
X158086400Y-122639100D01*
X153160100Y-107974400D02*
X152266000Y-107080300D01*
X131101900Y-95977000D02*
X128039200Y-99039700D01*
X134846000Y-92268000D02*
X137310000Y-92268000D01*
X152266000Y-107080300D02*
X152266000Y-101307300D01*
X128039200Y-100200100D02*
X123104300Y-105135000D01*
X134744400Y-92369600D02*
X134174000Y-92369600D01*
X150643100Y-122069400D02*
X153812500Y-118900000D01*
X152509900Y-97952800D02*
X152509900Y-97850100D01*
X152266000Y-98196700D02*
X152509900Y-97952800D01*
X158086400Y-122639100D02*
X157410000Y-122639100D01*
X152266000Y-99752000D02*
X152266000Y-98196700D01*
X134744400Y-92369600D02*
X134846000Y-92268000D01*
X128039200Y-99039700D02*
X128039200Y-100200100D01*
X134174000Y-92369600D02*
X131101900Y-95441700D01*
X131101900Y-95441700D02*
X131101900Y-95977000D01*
X121154000Y-105135000D02*
X123104300Y-105135000D01*
X152266000Y-100529600D02*
X152266000Y-99752000D01*
%TO.N,/EEPROM_CE*%
X133895800Y-93703300D02*
X131858000Y-95741100D01*
X158773200Y-112078700D02*
X161514000Y-114819500D01*
X138582000Y-92268000D02*
X138582000Y-93703300D01*
X157205800Y-103680200D02*
X158773200Y-105247600D01*
X161514000Y-117172000D02*
X161514000Y-115616700D01*
X138582000Y-93703300D02*
X133895800Y-93703300D01*
X156225100Y-102449600D02*
X157205800Y-103430300D01*
X157205800Y-103430300D02*
X157205800Y-103680200D01*
X161514000Y-114819500D02*
X161514000Y-115616700D01*
X158773200Y-105247600D02*
X158773200Y-112078700D01*
%TO.N,/A10*%
X139854000Y-92269000D02*
X139854000Y-93704300D01*
X149217300Y-114633000D02*
X150569400Y-113280900D01*
X141034800Y-84272500D02*
X141034800Y-83671500D01*
X150569400Y-113280900D02*
X150569400Y-102110300D01*
X133961700Y-94698200D02*
X132162700Y-96497200D01*
X121154000Y-107715000D02*
X123104300Y-107715000D01*
X141913000Y-130136000D02*
X141913000Y-124849300D01*
X139854000Y-85453300D02*
X141034800Y-84272500D01*
X139854000Y-90833700D02*
X139854000Y-85453300D01*
X146885600Y-94084300D02*
X146885600Y-86919200D01*
X126390100Y-107715000D02*
X123104300Y-107715000D01*
X132162700Y-96497200D02*
X131601300Y-96497200D01*
X149668800Y-96867500D02*
X146885600Y-94084300D01*
X131601300Y-96497200D02*
X129268400Y-98830100D01*
X149668800Y-101209700D02*
X149668800Y-96867500D01*
X150569400Y-102110300D02*
X149668800Y-101209700D01*
X147662000Y-114633000D02*
X149217300Y-114633000D01*
X147662000Y-119100300D02*
X147662000Y-114633000D01*
X139854000Y-92269000D02*
X139854000Y-90833700D01*
X146885600Y-86919200D02*
X146107700Y-86141300D01*
X139854000Y-93704300D02*
X138860100Y-94698200D01*
X140307200Y-82943900D02*
X140177400Y-82943900D01*
X129268400Y-98830100D02*
X129268400Y-104836700D01*
X141913000Y-124849300D02*
X147662000Y-119100300D01*
X129268400Y-104836700D02*
X126390100Y-107715000D01*
X141034800Y-83671500D02*
X140307200Y-82943900D01*
X138860100Y-94698200D02*
X133961700Y-94698200D01*
%TO.N,/EEPROM_OE*%
X155093900Y-103430200D02*
X155093900Y-103475300D01*
X155093900Y-103475300D02*
X157074300Y-105455700D01*
X160483000Y-115062300D02*
X160483000Y-117172000D01*
X157074400Y-105455700D02*
X157074400Y-111653700D01*
X157074400Y-111653700D02*
X160483000Y-115062300D01*
X157074300Y-105455700D02*
X157074400Y-105455700D01*
X141159000Y-92269000D02*
X141159000Y-100407000D01*
%TO.N,/A11*%
X143060400Y-82225600D02*
X143060400Y-78654000D01*
X150242000Y-115216200D02*
X151534200Y-113924000D01*
X142276100Y-93856200D02*
X142276100Y-95453700D01*
X142428000Y-92269000D02*
X142428000Y-93704300D01*
X142428000Y-93704300D02*
X142276100Y-93856200D01*
X150242000Y-115617700D02*
X150242000Y-115216200D01*
X150242000Y-117173000D02*
X150242000Y-115617700D01*
X142983400Y-83570000D02*
X142983400Y-82302600D01*
X143060400Y-78654000D02*
X142082000Y-77675600D01*
X142428000Y-85801200D02*
X143104900Y-85124300D01*
X143384000Y-126020700D02*
X143384000Y-124031000D01*
X142428000Y-90833700D02*
X142428000Y-85801200D01*
X123567700Y-109830600D02*
X127142000Y-109830600D01*
X143104900Y-83691500D02*
X142983400Y-83570000D01*
X142082000Y-77675600D02*
X142082000Y-75927300D01*
X142276100Y-95453700D02*
X142461800Y-95639400D01*
X143104900Y-85124300D02*
X143104900Y-83691500D01*
X121154000Y-110294000D02*
X123104300Y-110294000D01*
X123104300Y-110294000D02*
X123567700Y-109830600D01*
X143384000Y-130136000D02*
X143384000Y-126020700D01*
X142461800Y-105887200D02*
X142993300Y-106418700D01*
X151534200Y-113924000D02*
X151534200Y-108648100D01*
X142983400Y-82302600D02*
X143060400Y-82225600D01*
X142428000Y-92269000D02*
X142428000Y-90833700D01*
X142461800Y-95639400D02*
X142461800Y-105887200D01*
X143384000Y-124031000D02*
X150242000Y-117173000D01*
%TO.N,/A9*%
X145875300Y-113834400D02*
X146106700Y-113603000D01*
X121158000Y-111567000D02*
X123108300Y-111567000D01*
X148929200Y-112054000D02*
X149668700Y-111314500D01*
X140370000Y-125023500D02*
X140370000Y-130136000D01*
X147662000Y-113603000D02*
X146106700Y-113603000D01*
X144149300Y-113455100D02*
X145550400Y-112054000D01*
X144293500Y-83155700D02*
X144768900Y-82680300D01*
X145488400Y-119905100D02*
X140370000Y-125023500D01*
X149668700Y-111314500D02*
X149668700Y-102561400D01*
X145488400Y-113834400D02*
X145488400Y-119905100D01*
X143754200Y-113455100D02*
X144149300Y-113455100D01*
X143700000Y-92269000D02*
X143700000Y-90833700D01*
X145488400Y-113834400D02*
X145875300Y-113834400D01*
X144293500Y-90240200D02*
X144293500Y-83155700D01*
X147529700Y-97534000D02*
X143700000Y-93704300D01*
X123108300Y-111567000D02*
X123108300Y-111572100D01*
X149668700Y-102561400D02*
X147529700Y-100422400D01*
X143700000Y-90833700D02*
X144293500Y-90240200D01*
X144768900Y-82680300D02*
X144768900Y-82486100D01*
X145550400Y-112054000D02*
X148929200Y-112054000D01*
X147529700Y-100422400D02*
X147529700Y-97534000D01*
X123108300Y-111572100D02*
X125052800Y-113516600D01*
X143700000Y-92269000D02*
X143700000Y-93704300D01*
%TO.N,/A8*%
X127377700Y-116250700D02*
X127377700Y-118740200D01*
X121158000Y-112835000D02*
X123345500Y-112835000D01*
X138863000Y-126020700D02*
X138408000Y-125565700D01*
X146877000Y-83062600D02*
X146877000Y-77863000D01*
X148840000Y-97611300D02*
X144932000Y-93703300D01*
X123345500Y-112835000D02*
X125217900Y-114707400D01*
X148439700Y-112571000D02*
X147662000Y-112571000D01*
X144932000Y-92985600D02*
X144932000Y-92268000D01*
X149217300Y-112571000D02*
X150119100Y-111669200D01*
X144932000Y-90832700D02*
X144932000Y-85007600D01*
X138408000Y-117329100D02*
X141375500Y-114361600D01*
X150119100Y-111669200D02*
X150119100Y-102297000D01*
X125834400Y-114707400D02*
X127377700Y-116250700D01*
X138408000Y-117867100D02*
X138408000Y-117329100D01*
X148840000Y-101017900D02*
X148840000Y-97611300D01*
X146877000Y-77863000D02*
X146529000Y-77515000D01*
X138863000Y-130136000D02*
X138863000Y-126020700D01*
X141375500Y-114361600D02*
X143879800Y-114361600D01*
X125217900Y-114707400D02*
X125834400Y-114707400D01*
X138408000Y-125565700D02*
X138408000Y-117867100D01*
X148439700Y-112571000D02*
X149217300Y-112571000D01*
X144932000Y-92985600D02*
X144932000Y-93703300D01*
X144932000Y-92268000D02*
X144932000Y-90832700D01*
X150119100Y-102297000D02*
X148840000Y-101017900D01*
X144932000Y-85007600D02*
X146877000Y-83062600D01*
X127377700Y-118740200D02*
X127143000Y-118974900D01*
X145670400Y-112571000D02*
X147662000Y-112571000D01*
X143879800Y-114361600D02*
X145670400Y-112571000D01*
%TO.N,/A13_Internal*%
X125793400Y-115374900D02*
X126652300Y-116233800D01*
X145791300Y-90387000D02*
X146239000Y-90834700D01*
X165706200Y-101218400D02*
X164198900Y-101218400D01*
X165009000Y-103321000D02*
X166564300Y-103321000D01*
X124336200Y-115374900D02*
X125793400Y-115374900D01*
X145791300Y-89846600D02*
X145791300Y-90387000D01*
X121154000Y-114143000D02*
X123104300Y-114143000D01*
X146239000Y-92270000D02*
X146239000Y-90834700D01*
X126652300Y-116233800D02*
X126652300Y-117475500D01*
X166564300Y-103321000D02*
X166564300Y-102076500D01*
X123104300Y-114143000D02*
X124336200Y-115374900D01*
X166564300Y-102076500D02*
X165706200Y-101218400D01*
%TO.N,/A14_Internal*%
X152743800Y-91826000D02*
X158695000Y-97777200D01*
X160958500Y-101352200D02*
X162187900Y-102581600D01*
X165005000Y-104394000D02*
X163449700Y-104394000D01*
X134976300Y-116687000D02*
X135279100Y-116384200D01*
X158695000Y-97777200D02*
X160281900Y-97777200D01*
X160281900Y-97777200D02*
X160958500Y-98453800D01*
X160958500Y-98453800D02*
X160958500Y-101352200D01*
X133026000Y-116687000D02*
X134976300Y-116687000D01*
X147951000Y-91826000D02*
X152743800Y-91826000D01*
X135279100Y-116384200D02*
X135279100Y-116182300D01*
X163449700Y-104394000D02*
X163449700Y-103843400D01*
X147511000Y-92266000D02*
X147951000Y-91826000D01*
X163449700Y-103843400D02*
X162187900Y-102581600D01*
%TO.N,/WE_Internal*%
X121154000Y-115457000D02*
X123104300Y-115457000D01*
X123104300Y-115457000D02*
X123762400Y-116115100D01*
X123762400Y-116115100D02*
X125500700Y-116115100D01*
X157389000Y-115620700D02*
X157389000Y-115257900D01*
X154060700Y-111929600D02*
X154060700Y-106801100D01*
X151128000Y-89098000D02*
X151219600Y-89189600D01*
X149414000Y-89098000D02*
X151128000Y-89098000D01*
X154060700Y-106801100D02*
X153861300Y-106601700D01*
X157389000Y-117176000D02*
X157389000Y-115620700D01*
X157389000Y-115257900D02*
X154060700Y-111929600D01*
D25*
%TO.N,/VCC*%
X119004100Y-84674100D02*
X119098500Y-84768500D01*
X149414000Y-87821000D02*
X152031200Y-87821000D01*
X117997600Y-88934500D02*
X118963800Y-89900700D01*
X166713300Y-109510000D02*
X166713300Y-107761900D01*
X121161000Y-116685000D02*
X119060700Y-116685000D01*
X166713300Y-107761900D02*
X167809200Y-106666000D01*
X145917000Y-109473300D02*
X145624100Y-109473300D01*
X119098500Y-84768500D02*
X119098500Y-84854000D01*
X119053700Y-118509000D02*
X119939400Y-119394700D01*
X167809200Y-101234300D02*
X163299200Y-96724300D01*
X119004100Y-84674100D02*
X119023900Y-84654300D01*
X145956700Y-109513000D02*
X145917000Y-109473300D01*
X121154000Y-119266000D02*
X120710500Y-119266000D01*
X119221000Y-98579300D02*
X119053700Y-98746600D01*
X119102000Y-91126000D02*
X119102000Y-89900700D01*
X166131000Y-79615300D02*
X156160600Y-89585700D01*
X153795900Y-89585700D02*
X156160600Y-89585700D01*
X119099000Y-93666500D02*
X119099000Y-94180000D01*
X123261300Y-116685000D02*
X123724600Y-117148300D01*
X123724600Y-117148300D02*
X125613500Y-117148300D01*
X121161000Y-116685000D02*
X123261300Y-116685000D01*
X119053700Y-116685000D02*
X119060700Y-116685000D01*
X119099000Y-93666500D02*
X119099000Y-92954700D01*
X119053700Y-98746600D02*
X119053700Y-116685000D01*
X119221000Y-95527300D02*
X119221000Y-97354000D01*
X156160600Y-89585700D02*
X163299200Y-96724300D01*
X119099000Y-95405300D02*
X119221000Y-95527300D01*
X119098500Y-84854000D02*
X117997600Y-85954900D01*
X147662000Y-109513000D02*
X145956700Y-109513000D01*
X119099000Y-94180000D02*
X119099000Y-95405300D01*
X119263000Y-130136000D02*
X119263000Y-125870700D01*
X119263000Y-120071100D02*
X119263000Y-125870700D01*
X118984200Y-84694000D02*
X119004100Y-84674100D01*
X117997600Y-85954900D02*
X117997600Y-88934500D01*
X119221000Y-97354000D02*
X119221000Y-98579300D01*
X119939400Y-119394700D02*
X119263000Y-120071100D01*
X118963800Y-89900700D02*
X119102000Y-89900700D01*
X165008000Y-109510000D02*
X166713300Y-109510000D01*
X167809200Y-106666000D02*
X167809200Y-101234300D01*
X120068100Y-119266000D02*
X119939400Y-119394700D01*
X152031200Y-87821000D02*
X153795900Y-89585700D01*
X119053700Y-116685000D02*
X119053700Y-118509000D01*
X119102000Y-92951700D02*
X119102000Y-91126000D01*
X166131000Y-75967000D02*
X166131000Y-79615300D01*
X119099000Y-92954700D02*
X119102000Y-92951700D01*
X120710500Y-119266000D02*
X120068100Y-119266000D01*
D24*
%TO.N,/SRAM_CS1*%
X159452000Y-115305100D02*
X156133900Y-111987000D01*
X121154000Y-106401000D02*
X123104300Y-106401000D01*
X156133900Y-106698300D02*
X155312000Y-105876400D01*
X125519400Y-106401000D02*
X126080900Y-106962500D01*
X159452000Y-117175000D02*
X159452000Y-115305100D01*
X156133900Y-111987000D02*
X156133900Y-106698300D01*
X123104300Y-106401000D02*
X125519400Y-106401000D01*
%TO.N,/SRAM_OE*%
X154786100Y-111990800D02*
X154786100Y-107535400D01*
X158416000Y-115620700D02*
X154786100Y-111990800D01*
X158416000Y-117176000D02*
X158416000Y-115620700D01*
X121158000Y-109022000D02*
X126535800Y-109022000D01*
%TO.N,/Clk*%
X120928900Y-126881800D02*
X120928900Y-126194300D01*
X120968600Y-129973400D02*
X120968600Y-126921500D01*
X120928900Y-126881800D02*
X120968600Y-126921500D01*
X120928900Y-126194300D02*
X126398300Y-120724900D01*
X120806000Y-130136000D02*
X120968600Y-129973400D01*
%TO.N,/Wr_Game*%
X164380600Y-74736400D02*
X163155000Y-75962000D01*
X166594000Y-74736400D02*
X164380600Y-74736400D01*
X165005000Y-114632000D02*
X166560300Y-114632000D01*
X168424500Y-106899700D02*
X168424500Y-76566900D01*
X168018000Y-107306200D02*
X168424500Y-106899700D01*
X168424500Y-76566900D02*
X166594000Y-74736400D01*
X168018000Y-113174300D02*
X168018000Y-107306200D01*
X166560300Y-114632000D02*
X168018000Y-113174300D01*
%TO.N,/Rd_Game*%
X162281000Y-112433300D02*
X162281000Y-108692100D01*
X163449700Y-113602000D02*
X162281000Y-112433300D01*
X165005000Y-113602000D02*
X163449700Y-113602000D01*
%TO.N,/CS*%
X125330000Y-126011700D02*
X127417100Y-123924600D01*
X125330000Y-130127000D02*
X125330000Y-126011700D01*
X127417100Y-123924600D02*
X127417100Y-120329000D01*
X127417100Y-120329000D02*
X127143900Y-120055800D01*
%TO.N,/A12*%
X151273000Y-118728300D02*
X144855000Y-125146300D01*
X151273000Y-115334200D02*
X151273000Y-117173000D01*
X151273000Y-117173000D02*
X151273000Y-118728300D01*
X144855000Y-125146300D02*
X144855000Y-130136000D01*
%TO.N,/A13*%
X152306000Y-116397300D02*
X152306000Y-115619700D01*
X152306000Y-117175000D02*
X152306000Y-118730300D01*
X152306000Y-116397300D02*
X152306000Y-117175000D01*
X151199600Y-107287700D02*
X151199600Y-102103600D01*
X152259500Y-108347600D02*
X151199600Y-107287700D01*
X152269400Y-118730300D02*
X146380000Y-124619700D01*
X152306000Y-115619700D02*
X152259500Y-115573200D01*
X151199600Y-102103600D02*
X150718700Y-101622700D01*
X152306000Y-118730300D02*
X152269400Y-118730300D01*
X150718700Y-101622700D02*
X150718700Y-92577600D01*
X152259500Y-115573200D02*
X152259500Y-108347600D01*
X146380000Y-124619700D02*
X146380000Y-130136000D01*
%TO.N,/A14*%
X153299000Y-117952600D02*
X153299000Y-117175000D01*
X152709800Y-115030500D02*
X152709800Y-108161000D01*
X153299000Y-117175000D02*
X153299000Y-115619700D01*
X153299000Y-115619700D02*
X152709800Y-115030500D01*
X151760700Y-107211900D02*
X151760700Y-93624000D01*
X153299000Y-117952600D02*
X153299000Y-118730300D01*
X147870000Y-126010700D02*
X147870000Y-123800000D01*
X147870000Y-123800000D02*
X150325900Y-121344100D01*
X147870000Y-130126000D02*
X147870000Y-126010700D01*
X150685200Y-121344100D02*
X153299000Y-118730300D01*
X151760700Y-93624000D02*
X151479500Y-93342800D01*
X150325900Y-121344100D02*
X150685200Y-121344100D01*
X152709800Y-108161000D02*
X151760700Y-107211900D01*
%TO.N,/A15_Game*%
X166824300Y-74286000D02*
X137694000Y-74286000D01*
X162409100Y-115518800D02*
X162409100Y-115331600D01*
X168932900Y-109339500D02*
X168932900Y-76394600D01*
X137694000Y-74286000D02*
X136051000Y-75929000D01*
X168932900Y-76394600D02*
X166824300Y-74286000D01*
X162507000Y-115616700D02*
X162409100Y-115518800D01*
X162507000Y-117172000D02*
X162507000Y-115616700D01*
X168797300Y-109475100D02*
X168932900Y-109339500D01*
%TO.N,/Reset*%
X121436900Y-74743000D02*
X122518000Y-75824100D01*
X119278700Y-74743000D02*
X121436900Y-74743000D01*
X117794400Y-76227300D02*
X119278700Y-74743000D01*
X162909000Y-126002700D02*
X163158700Y-125753000D01*
X122518000Y-75824100D02*
X122518000Y-77517000D01*
X163158700Y-125753000D02*
X163158700Y-125724300D01*
X162909000Y-130118000D02*
X162909000Y-126002700D01*
%TO.N,/Audio*%
X164609400Y-125833300D02*
X164609400Y-125692400D01*
X164428000Y-126014700D02*
X164609400Y-125833300D01*
X120970000Y-75966000D02*
X119266000Y-75966000D01*
X119266000Y-75966000D02*
X116823700Y-78408300D01*
X116823700Y-78408300D02*
X116823700Y-118575300D01*
X164428000Y-130130000D02*
X164428000Y-126014700D01*
%TO.N,/A15_Cart*%
X149377000Y-124361300D02*
X154330000Y-119408300D01*
X154330000Y-119408300D02*
X154330000Y-118726300D01*
X149377000Y-130126000D02*
X149377000Y-126010700D01*
X149377000Y-126010700D02*
X149377000Y-124361300D01*
X154330000Y-117171000D02*
X154330000Y-118726300D01*
%TO.N,/Button*%
X122258500Y-90905000D02*
X122198900Y-90964600D01*
X121692100Y-98975400D02*
X121692100Y-99144600D01*
X122319000Y-91128000D02*
X121240600Y-92206400D01*
X122440000Y-87952000D02*
X122440000Y-89027300D01*
X122278300Y-90885200D02*
X122258500Y-90905000D01*
X122198900Y-91007900D02*
X122319000Y-91128000D01*
X122258500Y-89208800D02*
X122440000Y-89027300D01*
X121240600Y-92206400D02*
X121240600Y-98523900D01*
X155362000Y-121073200D02*
X154333800Y-122101400D01*
X122258500Y-90905000D02*
X122258500Y-89208800D01*
X154333800Y-122101400D02*
X154333800Y-124596000D01*
X155362000Y-117173000D02*
X155362000Y-121073200D01*
X121240600Y-98523900D02*
X121692100Y-98975400D01*
X122198900Y-90964600D02*
X122198900Y-91007900D01*
%TO.N,/Wr_Sys*%
X122313000Y-126015700D02*
X123802300Y-124526400D01*
X123802300Y-124526400D02*
X124443200Y-124526400D01*
X165005000Y-112568000D02*
X166149500Y-112568000D01*
X166149500Y-112568000D02*
X166692900Y-113111400D01*
X122313000Y-130131000D02*
X122313000Y-126015700D01*
%TO.N,/Rd_Sys*%
X163118200Y-111868500D02*
X163118200Y-112075300D01*
X165005000Y-111537000D02*
X163449700Y-111537000D01*
X126691700Y-122175600D02*
X126691700Y-123345200D01*
X123800100Y-127185600D02*
X123786400Y-127199300D01*
X126691700Y-123345200D02*
X123823800Y-126213100D01*
X123823800Y-126213100D02*
X123823800Y-127161900D01*
X123826100Y-127159600D02*
X123823800Y-127161900D01*
X123800100Y-127185600D02*
X123823000Y-127208500D01*
X123823800Y-127161900D02*
X123800100Y-127185600D01*
X163449700Y-111537000D02*
X163118200Y-111868500D01*
X123823000Y-127208500D02*
X123823000Y-130127000D01*
%TO.N,/Const_High*%
X166563300Y-110507000D02*
X166563300Y-111767300D01*
X120688300Y-87558500D02*
X120688300Y-99126200D01*
X122315500Y-84318300D02*
X122315500Y-84856000D01*
X122315500Y-85931300D02*
X120688300Y-87558500D01*
X166563300Y-111767300D02*
X166781300Y-111985300D01*
X122315500Y-84856000D02*
X122315500Y-85931300D01*
X122318500Y-83777700D02*
X122318500Y-81680000D01*
X122315500Y-84318300D02*
X122315500Y-83780700D01*
X122315500Y-83780700D02*
X122318500Y-83777700D01*
X165008000Y-110507000D02*
X166563300Y-110507000D01*
%TD*%
M02*
